<svg xmlns="http://www.w3.org/2000/svg" width="96" height="97" fill="none" viewBox="0 0 96 97">
  <rect width="96" height="96" y=".4" fill="#fff" rx="48"/>
  <path fill="#4BB3A4" d="m39.339 23.718-3.225 7.866-9.943-9.944c4.257-2.178 9.604-1.486 13.168 2.078Z"/>
  <path fill="#60D9CE" d="m31.327 31.728 11.888 16.528 7.249-7.25-7.894-7.893c.41-3.342-.668-6.83-3.233-9.395l-8.01 8.01Z"/>
  <path fill="#4BB3A4" d="m31.328 31.728 14.207 14.208-4.93 4.93-7.893-7.895a11.304 11.304 0 0 1-9.394-3.233c-3.564-3.564-4.256-8.91-2.078-13.168l7.623 7.622 2.465-2.464Z"/>
  <path fill="#60D9CE" d="m56.663 73.082 3.225-7.866 9.943 9.944c-4.257 2.178-9.604 1.486-13.168-2.078Z"/>
  <path fill="#4BB3A4" d="M64.671 65.072 52.783 48.544l-7.249 7.25 7.894 7.893c-.41 3.342.668 6.83 3.233 9.395l8.01-8.01Z"/>
  <path fill="#60D9CE" d="M64.673 65.073 50.465 50.865l4.93-4.93 7.894 7.894c3.34-.41 6.829.668 9.394 3.234 3.564 3.563 4.256 8.91 2.077 13.167l-7.622-7.622-2.465 2.465Z"/>
  <path fill="#FF6126" d="m73.24 23.159 1.233 1.232c2.033 2.033 2.033 5.36 0 7.394l-2.992 2.992-8.023-4.93 9.782-6.688Z"/>
  <path fill="#FF8151" d="m72.01 21.926 1.232 1.233-8.236 8.235-3.383-6.476 2.992-2.992c2.034-2.033 5.361-2.033 7.394 0Z"/>
  <path fill="#A3FDF6" d="m66.552 29.848 4.93 4.929-4.93 4.93-8.023-4.93 8.023-4.93Z"/>
  <path fill="#DBFFFA" d="m61.624 24.919 4.93 4.929-6.477 6.476-3.382-6.476 4.93-4.93Z"/>
  <path fill="#000E0F" d="m24.523 70.33 1.083 4.176-4.95 1.237 3.867-5.413Z"/>
  <path fill="#116371" d="m21.894 70.794 1.856 1.856-3.093 3.093 1.237-4.95Z"/>
  <path fill="#FFA07D" d="m29.646 65.207 4.156 7.25-8.195 2.049-1.856-1.856 5.895-7.443Z"/>
  <path fill="#FFC0A8" d="m23.942 62.598 4.93 4.93-5.122 5.122-1.856-1.856 2.049-8.196Z"/>
  <path fill="#FFD15E" d="m61.624 34.776 4.93 4.93-32.752 32.75-4.929-4.929 14.055-18.695 18.696-14.056Z"/>
  <path fill="#FFEA7C" d="m61.622 34.776-4.93-4.929-32.75 32.75 4.929 4.93 32.75-32.75Z"/>
</svg>
