<svg xmlns="http://www.w3.org/2000/svg" width="1440" height="1002" fill="none" viewBox="0 0 1440 1002">
  <g clip-path="url(#a)">
    <path fill="#FFF9E6" d="M0 0h1440v1002H0z"/>
    <path fill="#55B01C" d="M1046.58 1046.71c-.52-2.39-3.07-2.22-4.94-1.73-2.18.58-4.17 1.8-5.81 3.33-1.67 1.54-2.97 3.39-4.07 5.37 0-7.37.04-14.73.16-22.1.16-10.32.46-20.65.87-30.96.08-2.064-3.12-2.579-3.21-.49-.46 11.52-.75 23.04-.91 34.56-.17-.24-.34-.48-.51-.71a29.354 29.354 0 0 0-5.28-5.46c-.96-.76-2.26-1.51-3.43-.68-.79.56-1 1.59-.87 2.5.14 1.02.65 1.88 1.22 2.72.64.95 1.39 1.82 2.21 2.62.23.22.49.42.73.63.13.36.29.72.51 1.06.8 1.27 2.15 2.11 3.6 2.41.46.46.92.91 1.41 1.34.1.09.2.14.32.18-.04 4.66-.06 9.32-.05 13.98 0 .5 0 .99.01 1.49a93.555 93.555 0 0 0-4.09-7.15c-2.04-3.19-4.65-6.88-8.21-8.5-1.28-.58-3.03-.82-4.15.21-1.53 1.41-.47 3.61.23 5.17 1.74 3.92 4.26 7.44 7.03 10.7 1.53 1.8 3.13 3.53 4.75 5.25 1.26 1.33 2.68 2.65 4.5 2.89.14 15.08.52 30.15 1.18 45.21.39 8.85.89 17.69 1.46 26.54-.16.08-.28.23-.27.46.23 10.24.47 20.47.7 30.71.02.65 1 .53 1-.11l-.04-6.87c.06.77.11 1.54.18 2.32.07.64 1.03.53 1-.11-.02-.31-.03-.62-.05-.93.3.11.73-.07.72-.5-.01-.7-.05-1.41-.06-2.11v.13c.18 2.9.32 5.79.45 8.69.01.28.21.41.42.42.02 1.77.04 3.54.03 5.31 0 .64.99.52.99-.11.05-10.76-.55-21.52-1.76-32.21.14-.25.22-.55.19-.91-1.23-18.2-2.08-36.44-2.56-54.68-.2-7.81-.31-15.63-.38-23.44.13 0 .25-.01.37-.03 1.06-.17 2.03-.86 2.91-1.42 1.94-1.24 3.72-2.69 5.35-4.3 1.6-1.58 3.03-3.33 4.26-5.22 1.03-1.58 2.32-3.49 1.89-5.47Zm-21.2 14.19c-1.25-1.31-2.47-2.64-3.66-4-2.27-2.6-4.41-5.34-6.13-8.34-.84-1.46-1.89-3.22-2.23-4.89-.24-1.23.69-1.19 1.62-.86-.66.07-1.16.89-.75 1.6.23.38.46.75.68 1.13a34.873 34.873 0 0 0 10.92 15.05c.71.82 1.44 1.64 2.18 2.44.09.09.19.16.29.22-1.16-.4-2.11-1.49-2.92-2.35Zm-4.84-31.19a.62.62 0 0 1 .04-.2c0-.01.03-.02.04-.03.38-.01.8.43 1.07.65.18.15.36.3.53.45-.54.08-1.01.6-.88 1.17-.07-.11-.15-.21-.22-.31-.32-.52-.63-1.11-.58-1.73Zm12.47 30.92c-.16.09-.82.45-1.23.52v-.74c.14-.18.3-.35.42-.51.12-.16.25-.31.37-.47.18.16.43.26.74.29.14.02.28 0 .42-.02.17.06.36.09.54.11-.41.28-.83.56-1.26.82Zm8.44-7.4-.02.02c-.4.47-.86.91-1.34 1.32.39-.47.76-.95 1.1-1.45.64-.71 1.22-1.47 1.73-2.28-.36.88-.86 1.68-1.47 2.39Zm2.73-6a1.61 1.61 0 0 0-.2-.62c.24.03.46.11.58.3.12.2.15.42.15.66-.15-.13-.33-.24-.53-.34Z"/>
    <path fill="#FFCB0F" d="M1075.05 981.393c-2.22-1.908-5.21-2.905-8.01-3.628-4.37-1.129-8.94-1.363-13.4-.749a30.468 30.468 0 0 0 4.95-5.112c2.58-3.384 5.19-7.756 4.35-12.189-.76-4.021-4.53-7.021-8.42-7.753-4.34-.815-8.76.784-12.32 3.207-3.41 2.322-6.28 5.392-8.42 8.915-.26-3.228-.8-6.427-2.21-9.377-1.63-3.397-4.74-6.416-8.49-7.274-3.8-.87-7.58.741-10.03 3.68-2.55 3.06-3.68 6.979-3.41 10.928.22 3.179 1.16 6.202 2.35 9.134-5.4-1.77-11.08-2.247-15.914 1.519-2.845 2.214-4.8 5.605-4.248 9.293.64 4.28 4.348 7.354 8.302 8.577 2.79.861 5.7.798 8.57.349a31.948 31.948 0 0 0-3.65 2.98c-1.79 1.273-3.39 2.788-4.6 4.678-2.499 3.919-3.05 9.089.08 12.839a11.48 11.48 0 0 0 3 2.53c.96.8 2.09 1.4 3.38 1.69 1.07.24 2.13.26 3.15.11 2.02.1 3.96-.39 5.76-1.23 3.83-1.53 7.07-4.3 9.79-7.39.69-.79 1.34-1.59 1.99-2.41.43 4.15 1.25 8.27 2.54 12.22 1.87 5.68 5.19 11.21 10.96 13.55 4.89 1.98 10.29.77 13.7-3.3 3.28-3.93 4.44-9.33 3.32-14.29-.59-2.59-1.67-4.98-3.08-7.2.73.23 1.47.42 2.22.56 5.11.95 10.2-.39 14.2-3.69 3.89-3.207 6.41-8.101 6.6-13.15.1-2.98-.67-6.014-3.01-8.017Zm-22.8 25.947c.47.73.84 1.52 1.13 2.35a1.4 1.4 0 0 0-.85.18c-.11-.62-.24-1.24-.39-1.86-.05-.19-.14-.35-.26-.47.14-.04.26-.11.37-.2Zm-1.7-.26c.04.08.09.13.14.18-.23.07-.45.21-.59.41-.08-.58-.16-1.16-.23-1.74.23.38.46.77.68 1.15Zm-1.13 3.36c-.05.12-.08.25-.09.4-.05.62-.12 1.24-.19 1.85-.03-.77-.12-1.55-.27-2.32.18.06.37.09.55.07Zm-2.37-9.87c.09.1.19.19.28.29-.21.2-.35.46-.31.77.02.12.03.24.05.36-.03.06-.06.13-.08.19-.36-.64-.73-1.28-1.11-1.91.38.11.77.21 1.17.3Zm.27 7.3c-.17 0-.33.03-.49.09-.15-.7-.3-1.4-.45-2.09.33.66.64 1.32.94 2Zm-1.72 3.44c.03.35.22.63.49.8l-.24.99c-.18.58-.37 1.15-.55 1.73l-.18-4.12c.1.29.27.48.48.6Zm-1.67-4.5c.15.48.29.95.44 1.43-.16-.07-.32-.1-.49-.11.02-.44.04-.88.05-1.32Zm-37.83-4.52c.27 0 .55-.09.8-.34.04-.03.08-.06.12-.1-.05.1-.09.19-.11.29l-.77 1.22c-.01-.36-.02-.71-.04-1.07Zm-2.24-1.94c-.47.77-.82 1.6-1.05 2.46-.23.44-.39.9-.49 1.37.21-1.78.97-3.53 2.06-5.094.06-.09.14-.173.2-.262-.02.4.2.778.52 1.004-.44-.122-.93.016-1.24.522Zm-.74 8.19c.86 1.32 2.18 2.19 3.65 2.63-.02.09-.05.17-.07.25-.17.81.56 1.65 1.41 1.38.72-.23 1.41-.51 2.08-.83.17.68 1.04 1.14 1.68.72.58-.38 1.13-.78 1.66-1.2.31-.02.61-.06.91-.13-1.31 1.03-2.77 1.82-4.37 2.1-2.74-.19-5.24-1.79-6.69-4.22-.3-.51-.53-1.02-.7-1.54.12.29.27.57.44.84Zm22.96-23.356c.7-.45 1.4-.906 2.11-1.345l-1.91 2.064c-.31.233-.63.46-.94.689.33-.455.58-.924.74-1.408Zm4.02 21.416c-.2-1.52-.34-3.04-.44-4.57.08-.1.16-.21.24-.31.07 1.07.15 2.13.27 3.2-.04.56-.06 1.12-.07 1.68Zm24.07 17.59c-2.4 3.92-6.7 5.89-11.19 4.56-3.54-1.06-6.15-3.59-8.02-6.64 1.18 1.62 2.57 3.08 4.16 4.29 1.52 1.15 3.25 2.02 5.17 2.24 1.14.14 2.26 0 3.34-.33a7.587 7.587 0 0 0 5.13-3.11c.65-.57 1.26-1.17 1.83-1.79l.06-.06c-.15.28-.31.56-.48.84Zm3.58-40.58c-.2-.248-.4-.491-.6-.732l1.2.197c-.27.092-.47.29-.6.535Zm13.83 2.584a4.793 4.793 0 0 1-.5-.973c.54.589 1.02 1.245 1.42 1.948-.08.111-.14.245-.17.402-.01.066-.03.132-.04.198a1.165 1.165 0 0 0-.84-.27c.33-.308.47-.782.13-1.305Zm-.79-4.769c.48.214.93.448 1.36.704-.28.097-.54.196-.79.289a15.438 15.438 0 0 0-3.56-2.088c1.02.309 2.03.662 2.99 1.095Zm-3.32 10.722c-.1.155-.19.316-.29.473-.03-.008-.06-.02-.09-.025l-.99-.156 1.37-.292Zm-6.73-3.964c-.49-.992-1.09-1.937-1.69-2.818l1.44.267c-.65.531-.65 1.684.38 1.967l1.62.448c-.58.048-1.17.099-1.75.136Zm5.94 8.277c-.34.192-.69.371-1.05.526-.55.241-1.12.436-1.69.597-.03-.194-.11-.38-.25-.538l2.17-.422c.84-.163.98-1.129.61-1.734.03-.005.06-.009.08-.014.31.416.91.62 1.44.396-.42.414-.86.81-1.31 1.189Zm1.83-9.103c-.34-.095-.69-.19-1.03-.286l.56-.05c.2-.018.37-.086.52-.183-.02.173-.02.348-.05.519Zm1.95 10.089c.08-.163.12-.333.12-.502.72-.659 1.38-1.369 1.98-2.126-.56.961-1.31 1.835-2.1 2.628Zm5.31-7.442c-.05-.377-.11-.753-.19-1.126.07-.288.14-.584.19-.883.05.671.05 1.342 0 2.009Z"/>
    <path fill="#F64E33" d="M1053.09 979.467a.87.87 0 0 0-.07-.698c-1.88-3.403-4.1-6.753-7.39-8.953a18.132 18.132 0 0 0-9.92-3.055c-6.94-.064-13.34 4.262-16.11 10.591-3.03 6.893-1.04 15.537 3.99 20.982 2.7 2.916 6.17 3.966 10.05 4.186 3.89.23 7.66-.35 11.07-2.3 5.19-2.96 8.28-8.347 8.66-14.04l.03-.156c.32-2.199.19-4.405-.31-6.557Zm-19.32-2.306c.17-.147.34-.284.51-.426.03.13.05.261.09.388-.17.112-.34.23-.51.355a.802.802 0 0 0-.09-.317Zm11.03 6.09c.01-.015.02-.03.02-.045v.326c-.02.257-.03.516-.07.769-.06.007-.12.012-.18.033-.05.013-.08.034-.13.049l.36-1.132Zm3.37.106c.12.225.24.454.37.678a25.504 25.504 0 0 1-.65 3.207c.02-.748.01-1.496-.04-2.242.13-.543.24-1.09.32-1.643Zm-11.59 9.425c.24-.054.49-.124.73-.202l-.03.519c-.41.243-.83.475-1.26.684.19-.331.38-.664.56-1.001Zm8.21-.787c.02.335.05.669.09 1a9.593 9.593 0 0 1-2.65 2.058 20.7 20.7 0 0 0 2.56-3.058Zm-8.67-20.849c.04.028.07.064.12.084l.09.035c-.12.077-.24.155-.35.233h-.06c-.51-.191-1.04-.072-1.57.21-.22.047-.43.099-.65.161a.93.93 0 0 0-.6-.478c.52-.155 1.06-.282 1.6-.382l1.42.137Zm-5.14 20.215c.02.347.06.692.12 1.03-.07.11-.15.194-.21.217-.1.033-.17-.053-.23-.214.11-.344.22-.688.32-1.033Zm.85 6.951c.39.17.78.328 1.18.457-.59-.081-1.18-.2-1.75-.338.19-.034.38-.073.57-.119Zm-.03-2.882c.4.058.81-.137.92-.631.3.072.64.004.84-.267.19-.248.35-.507.52-.763.06.065.13.12.2.161.07.588.3 1.102.82 1.458.14.094.28.148.43.182-.43.144-.87.253-1.31.301-.91.098-1.73-.07-2.42-.441Zm19.12-16.961a.765.765 0 0 0-.22.874.666.666 0 0 0-.21.138c-.95-2.636-2.25-5.073-4.24-7.028a.932.932 0 0 1-.1-.113c1.94 1.713 3.45 3.88 4.77 6.129Zm-25.77-.852c.03.585.64 1.11 1.2.749-.24.462-.46.937-.65 1.42-.3-.722-1.5-.812-1.61.137-.09.91-.17 1.822-.23 2.734-.13-.265-.39-.377-.67-.364a16.49 16.49 0 0 1 1.96-4.676Zm-5.29 6.243v.047c.04.49.55.781.99.739 0 .004.01.007.01.011-.13 2.38.02 4.737.45 7.061-1.02-2.489-1.53-5.216-1.45-7.858Zm16.64 17.01c-3.59.18-7.64-.18-10.5-2.558a15.56 15.56 0 0 1-2.79-3.087c.06-.011.11-.037.17-.054.39.602.82 1.173 1.33 1.696 1.66 1.731 3.89 2.668 6.21 3.173 3.89.85 8.03.73 11.74-.67-1.92.89-4 1.39-6.16 1.5Zm7.61-4.048c.44-.346.83-.725 1.21-1.125.05.082.11.156.18.22-.44.324-.9.628-1.39.905Zm6.81-8.116c.31-1.217.46-2.475.46-3.745a.595.595 0 0 0 .34-.281c.01.256.03.512.02.767a15.13 15.13 0 0 1-.82 3.259Zm-28.34-18.519c1.31 1.955 2.58 3.941 3.81 5.954.13.22.27.456.41.686.08.033.15.077.22.147 1.2 1.193 2.62 2.123 3.97 3.134a.408.408 0 0 0 .02-.248c-1.91-9.582-6.14-18.435-10.36-27.175-.3-.623-1.31-.241-1.01.386 4.01 8.305 8.04 16.734 10.04 25.786-1.26-.972-2.02-2.72-2.81-3.993a148.476 148.476 0 0 0-3.7-5.726c-2.6-3.833-5.37-7.549-8.29-11.14-.44-.538-1.32.09-.88.63a158.51 158.51 0 0 1 8.58 11.559Zm1.78 8.32c-1.03-.289-2.07-.55-3.13-.747-2.55-.474-5.1-.547-7.68-.721-5.13-.348-10.06-2.154-15.225-2.258-.685-.014-.858 1.054-.162 1.068 5.077.103 9.927 1.862 14.967 2.24 2.5.187 4.97.226 7.45.652 1.94.335 3.86.835 5.72 1.477a138.952 138.952 0 0 1-22.25 3.951c-.7.065-.58 1.139.11 1.074 7.91-.743 15.73-2.163 23.39-4.228-1.09-.802-2.19-1.59-3.19-2.508Zm2.61 8.129c-7.55 5.044-15.1 10.089-22.66 15.134-.58.39.06 1.26.63.88 7.56-5.046 15.11-10.091 22.66-15.136.58-.388-.05-1.264-.63-.878Zm3.76 3.538a138.36 138.36 0 0 0-18.92 17.646c-.46.52.38 1.21.84.69a136.868 136.868 0 0 1 18.71-17.458c.56-.424-.07-1.303-.63-.878Zm11.65 31.016c-2.43-8.37-3.32-17.07-4.2-25.707-.07-.692-1.15-.576-1.08.118.89 8.739 1.81 17.519 4.27 25.979.19.67 1.2.28 1.01-.39Zm4.89-.92c-2.49-7.69-4.68-15.47-6.55-23.334-.16-.668-1.24-.559-1.08.118 1.9 7.956 4.1 15.826 6.62 23.606.21.66 1.22.27 1.01-.39Zm4.11-8.09-6.76-14.253c-.3-.626-1.31-.243-1.01.386 2.25 4.747 4.51 9.507 6.76 14.257.3.62 1.31.24 1.01-.39Zm12.68-16.038c-3.24.074-6.49.234-9.71-.154a36.488 36.488 0 0 1-9.37-2.426c-.65-.261-1.09.725-.44.987a37.668 37.668 0 0 0 9.64 2.508c3.32.399 6.66.235 10 .16.69-.016.57-1.091-.12-1.075Zm4.37-7.072c-7.04.441-14.11.33-21.13-.334-.69-.065-.86 1.003-.16 1.069 7.11.673 14.28.787 21.41.339.7-.043.58-1.117-.12-1.074Zm-10.11-27.626c-2.77 3.077-5.53 6.153-8.29 9.23-2.39 2.66-4.78 5.377-6.26 8.67-.29.634.7 1.075.99.44 1.47-3.287 3.9-5.971 6.28-8.623 2.7-3.01 5.41-6.02 8.11-9.03.47-.518-.37-1.203-.83-.687Zm-4.65-3.493a111.596 111.596 0 0 0-15.43 16.65c-.41.555.42 1.244.84.687 4.5-5.986 9.6-11.509 15.22-16.458.52-.457-.11-1.338-.63-.879Zm11.97 24.756a224.52 224.52 0 0 1-19.03 1.906c-.7.04-.58 1.114.12 1.075 6.36-.365 12.71-1.001 19.03-1.906.69-.099.57-1.174-.12-1.075Z"/>
    <path fill="#55B01C" d="M21.842 834.307c-.515-2.382-3.07-2.216-4.936-1.725-2.185.575-4.168 1.801-5.815 3.328-1.663 1.54-2.968 3.39-4.061 5.367-.006-7.365.034-14.73.153-22.094.166-10.325.462-20.647.873-30.965.083-2.06-3.123-2.575-3.206-.487-.46 11.517-.753 23.04-.915 34.565a17.483 17.483 0 0 0-.506-.715 29.491 29.491 0 0 0-5.279-5.457c-.962-.766-2.264-1.509-3.437-.68-.79.558-1 1.59-.87 2.498.144 1.016.65 1.882 1.219 2.718a17.16 17.16 0 0 0 2.216 2.62c.23.224.484.421.727.632.133.364.292.721.508 1.062.803 1.271 2.15 2.108 3.604 2.408.454.46.92.911 1.406 1.341a.897.897 0 0 0 .32.176c-.042 4.661-.06 9.323-.052 13.985 0 .496.009.991.01 1.487a89.566 89.566 0 0 0-4.09-7.148c-2.036-3.19-4.643-6.88-8.205-8.5-1.275-.58-3.034-.822-4.15.207-1.534 1.415-.469 3.61.225 5.17 1.746 3.926 4.262 7.444 7.033 10.706 1.528 1.799 3.135 3.529 4.756 5.244 1.26 1.332 2.68 2.648 4.49 2.895.142 15.074.529 30.144 1.19 45.204a1313.4 1313.4 0 0 0 1.453 26.538.498.498 0 0 0-.267.461l.702 30.717c.014.647.997.527.994-.109l-.038-6.875c.065.772.113 1.545.187 2.317.06.644 1.026.53.994-.11l-.047-.928c.297.116.725-.073.717-.5-.012-.702-.045-1.404-.063-2.107.002.045.006.089.009.133.17 2.893.318 5.787.445 8.683.013.28.206.409.418.422.026 1.769.038 3.537.03 5.306-.002.642.992.529.995-.109a274.052 274.052 0 0 0-1.768-32.202c.14-.252.22-.554.196-.91a1316.91 1316.91 0 0 1-2.557-54.683 1310.36 1310.36 0 0 1-.381-23.442c.124-.002.249-.012.37-.031 1.058-.171 2.022-.857 2.908-1.422a32.458 32.458 0 0 0 5.35-4.299 31.402 31.402 0 0 0 4.259-5.218c1.026-1.577 2.316-3.485 1.886-5.474Zm-21.2 14.198a136.853 136.853 0 0 1-3.66-4.003c-2.27-2.601-4.407-5.339-6.126-8.34-.838-1.463-1.89-3.221-2.226-4.89-.246-1.227.685-1.187 1.612-.856-.66.064-1.152.888-.743 1.591.222.382.454.756.68 1.135 2.203 5.932 6.005 11.126 10.914 15.051.717.823 1.444 1.639 2.187 2.441.084.091.182.16.287.213-1.163-.393-2.115-1.485-2.926-2.342Zm-4.834-31.194a.666.666 0 0 1 .033-.198c.007-.011.037-.022.048-.028.38-.015.8.43 1.071.648.18.145.352.299.529.448-.539.082-1.015.602-.885 1.167-.07-.105-.148-.203-.215-.31-.323-.512-.636-1.103-.58-1.727ZM8.28 848.227c-.16.094-.828.454-1.23.52l-.008-.737c.142-.177.303-.347.425-.506.122-.159.248-.316.371-.474.182.157.426.266.735.295a1.46 1.46 0 0 0 .423-.028c.172.063.357.099.546.118-.418.275-.83.559-1.262.812Zm8.437-7.395a16.535 16.535 0 0 0 1.47-2.392 8.78 8.78 0 0 1-1.47 2.392Zm2.73-5.996a1.682 1.682 0 0 0-.198-.622c.242.027.453.11.573.301.121.192.155.419.151.659a2.103 2.103 0 0 0-.527-.338Z"/>
    <path fill="#FFCB0F" d="M50.32 768.994c-2.228-1.907-5.213-2.904-8.013-3.628-4.368-1.128-8.939-1.362-13.398-.749a30.58 30.58 0 0 0 4.951-5.112c2.578-3.383 5.188-7.755 4.348-12.188-.762-4.021-4.532-7.022-8.427-7.753-4.337-.815-8.758.783-12.317 3.206-3.41 2.323-6.283 5.393-8.413 8.916-.264-3.229-.804-6.428-2.218-9.377-1.628-3.398-4.738-6.417-8.485-7.275-3.8-.87-7.585.741-10.036 3.681-2.55 3.06-3.675 6.978-3.403 10.928.22 3.178 1.156 6.202 2.345 9.134-5.396-1.77-11.075-2.247-15.912 1.518-2.845 2.215-4.8 5.605-4.249 9.294.64 4.28 4.349 7.353 8.307 8.576 2.788.862 5.696.799 8.569.349a31.396 31.396 0 0 0-3.649 2.981c-1.795 1.273-3.393 2.787-4.601 4.677-2.502 3.915-3.053 9.087.077 12.835a11.474 11.474 0 0 0 3.002 2.531c.962.803 2.09 1.403 3.374 1.691 1.074.24 2.13.259 3.157.113 2.02.101 3.955-.395 5.761-1.232 3.827-1.524 7.067-4.296 9.787-7.393a62.336 62.336 0 0 0 1.986-2.401c.428 4.15 1.252 8.267 2.546 12.211 1.865 5.68 5.186 11.213 10.954 13.551 4.89 1.981 10.29.778 13.7-3.296 3.287-3.926 4.447-9.327 3.324-14.288-.587-2.592-1.676-4.986-3.077-7.205.728.233 1.468.426 2.22.565 5.11.946 10.198-.388 14.2-3.693 3.883-3.207 6.41-8.101 6.592-13.15.107-2.979-.665-6.014-3.003-8.017Zm-22.802 25.947c.47.73.842 1.52 1.131 2.351a1.324 1.324 0 0 0-.85.181 32.806 32.806 0 0 0-.395-1.863 1.015 1.015 0 0 0-.257-.467c.137-.044.26-.115.371-.202Zm-1.707-.255c.04.072.097.121.149.178a1.115 1.115 0 0 0-.596.405l-.232-1.735c.233.379.46.763.679 1.152Zm-1.123 3.359a1.352 1.352 0 0 0-.095.397c-.05.619-.117 1.236-.184 1.852a16.315 16.315 0 0 0-.27-2.32c.179.058.368.083.549.071Zm-2.374-9.877c.09.099.19.191.282.289-.214.201-.352.466-.31.778l.047.356a1.374 1.374 0 0 0-.08.193 54.7 54.7 0 0 0-1.11-1.914c.387.107.778.207 1.171.298Zm.271 7.303a1.225 1.225 0 0 0-.489.093l-.45-2.097c.326.662.64 1.329.94 2.004Zm-1.719 3.439c.03.353.223.63.493.803-.084.327-.163.657-.244.987l-.548 1.731-.185-4.123c.102.289.276.485.484.602Zm-1.665-4.498.43 1.431a1.241 1.241 0 0 0-.485-.107l.055-1.324Zm-37.837-4.52c.267.003.548-.094.806-.338.037-.034.075-.066.112-.101-.049.095-.085.19-.102.284l-.774 1.22c-.01-.355-.02-.71-.042-1.065Zm-2.238-1.938a9.78 9.78 0 0 0-1.053 2.457c-.23.438-.385.899-.49 1.37.213-1.783.969-3.531 2.063-5.094.063-.09.137-.172.202-.261-.022.399.194.778.517 1.003-.436-.122-.93.016-1.238.525Zm-.737 8.187c.854 1.324 2.175 2.194 3.643 2.635-.02.084-.044.166-.063.25-.176.808.556 1.65 1.407 1.377a15.92 15.92 0 0 0 2.075-.831c.176.679 1.04 1.141 1.688.715a25.184 25.184 0 0 0 1.658-1.196c.304-.018.608-.06.908-.127-1.307 1.024-2.766 1.813-4.371 2.099-2.742-.196-5.234-1.792-6.687-4.225a8.014 8.014 0 0 1-.706-1.537c.127.287.273.569.448.84Zm22.956-23.355c.704-.451 1.404-.906 2.114-1.346l-1.911 2.065c-.313.232-.63.46-.946.689.33-.455.587-.925.743-1.408Zm4.024 21.418a63.299 63.299 0 0 1-.444-4.57l.237-.315c.072 1.068.156 2.137.277 3.202a24.767 24.767 0 0 0-.07 1.683Zm24.065 17.591c-2.396 3.919-6.703 5.888-11.186 4.554-3.54-1.053-6.149-3.592-8.026-6.636 1.184 1.623 2.573 3.079 4.165 4.286 1.522 1.152 3.252 2.022 5.167 2.247 1.139.133 2.263-.005 3.338-.33a7.645 7.645 0 0 0 5.135-3.111 23.788 23.788 0 0 0 1.828-1.791c.02-.022.036-.045.056-.066-.149.285-.306.568-.477.847Zm3.583-40.584a27.996 27.996 0 0 0-.603-.732l1.203.197c-.271.092-.475.29-.6.535Zm13.826 2.584a4.818 4.818 0 0 1-.497-.973 10.366 10.366 0 0 1 1.418 1.949 1.046 1.046 0 0 0-.166.402c-.013.066-.03.131-.044.197a1.173 1.173 0 0 0-.842-.27c.332-.308.473-.781.131-1.305Zm-.783-4.768c.475.213.927.447 1.352.704-.273.096-.532.196-.787.289-1.077-.856-2.283-1.544-3.56-2.088a24.88 24.88 0 0 1 2.995 1.095Zm-3.327 10.721c-.1.155-.19.317-.286.473-.031-.008-.06-.019-.093-.024l-.992-.156 1.37-.293Zm-6.73-3.964c-.491-.991-1.083-1.937-1.688-2.818l1.437.268c-.65.531-.642 1.684.38 1.966l1.623.449c-.584.047-1.168.098-1.753.135Zm5.946 8.278c-.343.191-.692.37-1.05.526-.554.24-1.12.436-1.695.597a1.079 1.079 0 0 0-.245-.538l2.17-.422c.839-.163.98-1.129.605-1.734l.085-.014c.304.416.905.62 1.433.395-.417.415-.852.811-1.303 1.19Zm1.828-9.103-1.035-.286.566-.051c.195-.017.367-.085.517-.182-.018.172-.023.347-.048.519Zm1.947 10.088a1.16 1.16 0 0 0 .12-.501 19.204 19.204 0 0 0 1.986-2.127c-.567.961-1.313 1.835-2.106 2.628Zm5.309-7.441a10.038 10.038 0 0 0-.192-1.126c.075-.289.14-.584.197-.883.05.67.048 1.341-.005 2.009Z"/>
    <path fill="#F64E33" d="M28.36 767.069a.86.86 0 0 0-.072-.698c-1.877-3.404-4.103-6.753-7.384-8.953a18.142 18.142 0 0 0-9.92-3.056c-6.94-.064-13.34 4.263-16.117 10.592-3.024 6.892-1.042 15.536 3.995 20.982 2.694 2.912 6.167 3.961 10.043 4.189 3.89.229 7.66-.357 11.072-2.302 5.195-2.961 8.286-8.348 8.662-14.042.008-.052.02-.104.027-.156.325-2.198.196-4.404-.306-6.556Zm-19.32-2.307c.165-.146.338-.283.506-.426.03.131.058.262.096.388a9.485 9.485 0 0 0-.512.356.873.873 0 0 0-.09-.318Zm11.026 6.091c.01-.015.02-.03.028-.046l-.001.327c-.024.256-.035.515-.074.768-.06.008-.12.013-.182.033-.043.014-.081.035-.123.049l.352-1.131Zm3.373.105c.125.226.244.454.37.679a24.89 24.89 0 0 1-.65 3.206c.02-.747.008-1.495-.035-2.241.125-.543.235-1.09.315-1.644Zm-11.592 9.426a7.49 7.49 0 0 0 .732-.203l-.034.519c-.408.243-.823.476-1.253.685.19-.332.376-.665.555-1.001Zm8.213-.788c.021.336.052.669.091 1.001a9.747 9.747 0 0 1-2.652 2.058c.95-.937 1.81-1.96 2.56-3.059Zm-8.673-20.849c.042.028.075.064.126.085l.084.035c-.117.077-.234.154-.35.233-.02.001-.041-.002-.062-.001-.505-.19-1.04-.071-1.565.211a9.94 9.94 0 0 0-.647.16.934.934 0 0 0-.6-.477 14.73 14.73 0 0 1 1.6-.382l1.414.136ZM6.25 778.962c.02.347.058.692.12 1.03-.073.11-.146.195-.213.218-.095.032-.17-.053-.229-.214.11-.344.217-.689.322-1.034Zm.846 6.951c.389.171.782.328 1.184.457-.594-.081-1.176-.2-1.75-.337a9.28 9.28 0 0 0 .566-.12Zm-.027-2.881c.396.058.815-.138.918-.632.305.073.642.004.843-.267.185-.248.353-.506.524-.762a.798.798 0 0 0 .2.161c.065.587.3 1.102.817 1.457.137.094.28.148.426.183a6.262 6.262 0 0 1-1.312.301c-.909.098-1.725-.071-2.416-.441Zm19.118-16.962a.767.767 0 0 0-.216.874.733.733 0 0 0-.21.138c-.948-2.635-2.25-5.073-4.246-7.027l-.097-.113c1.945 1.713 3.454 3.879 4.77 6.128Zm-25.764-.851c.03.585.636 1.109 1.194.748-.238.463-.456.937-.651 1.421-.296-.723-1.499-.812-1.602.137-.098.91-.17 1.821-.23 2.734-.136-.265-.396-.377-.675-.365a16.467 16.467 0 0 1 1.964-4.675Zm-5.293 6.242c.001.016 0 .032.002.048.038.489.548.781.992.739l.001.01c-.13 2.38.023 4.738.456 7.061-1.019-2.489-1.533-5.216-1.45-7.858Zm16.638 17.01c-3.584.183-7.639-.178-10.497-2.558a15.505 15.505 0 0 1-2.793-3.086c.06-.012.11-.038.168-.055.389.602.826 1.174 1.329 1.696 1.666 1.732 3.896 2.669 6.211 3.175 3.894.852 8.035.731 11.743-.672-1.92.889-4 1.39-6.16 1.5Zm7.616-4.047c.43-.346.83-.725 1.205-1.125.05.082.11.156.18.22-.443.324-.904.628-1.385.905Zm6.809-8.116a15.5 15.5 0 0 0 .453-3.745.593.593 0 0 0 .345-.281c.006.255.024.511.018.767a15.492 15.492 0 0 1-.816 3.259Zm-28.348-18.519a156.653 156.653 0 0 1 3.815 5.953c.134.221.274.456.41.686a.709.709 0 0 1 .224.148c1.2 1.193 2.614 2.123 3.963 3.134a.43.43 0 0 0 .025-.249C4.367 757.88.139 749.027-4.081 740.286c-.301-.623-1.313-.241-1.01.387 4.01 8.304 8.045 16.734 10.039 25.785-1.258-.972-2.022-2.719-2.806-3.992A156.91 156.91 0 0 0-9.849 745.6c-.438-.539-1.318.089-.879.63a158.455 158.455 0 0 1 8.573 11.559Zm1.786 8.319a36.501 36.501 0 0 0-3.13-.746c-2.55-.475-5.1-.547-7.68-.722-5.135-.348-10.064-2.153-15.227-2.258-.684-.014-.857 1.055-.162 1.069 5.079.103 9.925 1.862 14.972 2.24 2.493.186 4.97.226 7.441.651 1.95.336 3.86.835 5.727 1.478a138.935 138.935 0 0 1-22.256 3.95c-.693.065-.576 1.14.118 1.075a140.515 140.515 0 0 0 23.387-4.229c-1.091-.801-2.192-1.59-3.19-2.508Zm2.61 8.129-22.659 15.135c-.58.387.053 1.264.63.878l22.66-15.135c.58-.387-.053-1.264-.63-.878Zm3.763 3.539a138.33 138.33 0 0 0-18.92 17.647c-.463.521.374 1.206.835.687a136.83 136.83 0 0 1 18.715-17.456c.55-.425-.078-1.304-.63-.878Zm11.642 31.016c-2.429-8.369-3.32-17.067-4.2-25.708-.071-.692-1.146-.575-1.075.118.89 8.736 1.81 17.515 4.266 25.977.194.669 1.202.278 1.01-.387Zm4.89-.921a305.584 305.584 0 0 1-6.55-23.334c-.16-.667-1.236-.559-1.075.118a309.218 309.218 0 0 0 6.615 23.603c.215.663 1.224.274 1.01-.387Zm4.114-8.089-6.763-14.254c-.296-.625-1.307-.243-1.009.387l6.763 14.254c.296.625 1.308.243 1.009-.387Zm12.678-16.038c-3.24.074-6.485.233-9.713-.155a36.487 36.487 0 0 1-9.368-2.426c-.643-.26-1.086.726-.44.988a37.694 37.694 0 0 0 9.646 2.507c3.32.399 6.66.236 9.993.16.695-.016.575-1.09-.118-1.074Zm4.376-7.072c-7.044.441-14.11.33-21.137-.334-.688-.065-.857 1.003-.162 1.068 7.118.673 14.281.787 21.417.34.694-.043.576-1.118-.118-1.074Zm-10.119-27.626-8.289 9.23c-2.387 2.659-4.78 5.377-6.258 8.669-.285.635.702 1.076.987.441 1.475-3.287 3.904-5.971 6.286-8.624l8.11-9.029c.465-.519-.372-1.203-.836-.687Zm-4.643-3.493a111.375 111.375 0 0 0-15.43 16.65c-.417.555.417 1.243.835.687a110.034 110.034 0 0 1 15.226-16.459c.518-.456-.109-1.338-.63-.878Zm11.969 24.756a224.85 224.85 0 0 1-19.034 1.906c-.695.04-.576 1.114.118 1.074a224.845 224.845 0 0 0 19.034-1.906c.686-.098.573-1.173-.118-1.074Z"/>
    <path stroke="#171714" stroke-miterlimit="10" stroke-width="2" d="m1368.76 132.43 5.29 27.705h7.05l7.65-28.791"/>
    <path stroke="#171714" stroke-miterlimit="10" stroke-width="2" d="m1388 154.432 8.68-25.532-37.04 1.087 1.44 4.742 8.98 27.308"/>
    <path fill="#1D6FAB" d="m1387.48 166.996.81-2.42c.36-1.078 1.52-7.919 1.73-10.269l-1.31-.045c-.53.057-1.09.016-1.65-.057-7.1-.252-14.2-.53-21.3-.511.5 4.172.58 8.494 1.86 12.741.09.295 14.71.257 19.86.561Z"/>
    <path fill="#FFCB0F" d="M1377.73 54.078c-41.98 0-45.45 28.74-40.04 48.023 3.49 12.418 14.08 26.251 23.72 34.947h33.06c9.48-8.696 19.59-22.529 23.31-34.947 5.77-19.236 2.89-48.023-40.05-48.023Z"/>
    <path fill="#F64E33" d="M1377.78 54.078c-24.01 0-25.99 28.74-22.9 48.023 2 12.418 8.06 26.251 13.57 34.947h18.91c5.42-8.696 11.21-22.529 13.34-34.947 3.3-19.236 1.65-48.023-22.92-48.023Z"/>
    <path fill="#00C2CD" d="M1377.84 54.078c-9.37 0-10.15 28.74-8.94 48.023.78 12.418 3.14 26.251 5.3 34.947h7.38c2.11-8.696 4.37-22.529 5.2-34.947 1.29-19.236.64-48.023-8.94-48.023Z"/>
    <path fill="#171714" d="m1394.29 136.639-33.5-.358c-1.28-.013-1.05 1.975.22 1.989l33.5.357c1.29.014 1.06-1.975-.22-1.988Z"/>
    <path fill="#FFCB0F" d="M1386.86 157.846c-.09-.229-.29-.464-.52-.555-.48-.188-1.13-.018-1.32.507a8.462 8.462 0 0 0-.58 2.851c-.01.273.01.502.18.733.14.202.41.379.66.406.25.027.53-.015.73-.177.2-.154.4-.401.41-.663.01-.66.11-1.312.29-1.948.04-.13.08-.261.13-.389.1-.249.12-.511.02-.765Zm-5.8-.784c-.05-.262-.14-.486-.35-.662-.2-.158-.5-.261-.75-.222-.25.039-.51.15-.66.359-.15.203-.28.487-.22.745.1.458.14.923.14 1.391-.02.374-.06.746-.14 1.113-.05.235.04.541.18.732.14.202.41.379.66.406.57.06 1.02-.291 1.14-.84a7.16 7.16 0 0 0 0-3.022Zm-6.04.522c-.05-.257-.16-.494-.36-.663-.2-.158-.5-.26-.75-.221-.51.079-.97.552-.88 1.104.16.98.32 1.959.49 2.939.04.257.15.495.36.663.19.158.49.26.74.222.51-.08.98-.553.89-1.104-.17-.98-.33-1.96-.49-2.94Zm-4.37 2.685c-.35-.921-.69-1.841-1.04-2.762-.18-.491-.8-.789-1.29-.576-.5.217-.77.769-.58 1.292.35.921.69 1.842 1.04 2.763.18.491.8.789 1.29.575.5-.217.77-.768.58-1.292Z"/>
    <path stroke="#171714" stroke-miterlimit="10" stroke-width="2" d="m54.426 303.247 5.551 29.066h7.402l7.02-30.206"/>
    <path stroke="#171714" stroke-miterlimit="10" stroke-width="2" d="m74.616 326.329 8.108-26.786-37.86 1.14v3.989l10.929 29.636"/>
    <path fill="#1D6FAB" d="M73.385 337.779H54.398c-.663 0-1.238-.414-1.382-.996l-2.54-10.23c-.198-.795.476-1.551 1.382-1.551h24.067c.907 0 1.58.756 1.382 1.551l-2.54 10.23c-.144.582-.718.996-1.382.996Z"/>
    <path fill="#57B4F7" d="M63.837 221.045c-44.044 0-47.676 30.153-42 50.383 3.655 13.028 12.772 27.541 22.885 36.664h36.685c9.944-9.123 20.547-23.636 24.454-36.664 6.052-20.181 3.028-50.383-42.024-50.383Z"/>
    <path fill="#FFCB0F" d="M63.901 221.045c-25.194 0-27.272 30.153-24.025 50.383 2.09 13.028 8.45 27.541 14.235 36.664h19.84c5.689-9.123 11.754-23.636 13.989-36.664 3.462-20.181 1.732-50.383-24.039-50.383Z"/>
    <path fill="#F64E33" d="M63.954 221.045c-9.832 0-10.643 30.153-9.376 50.383.816 13.028 3.297 27.541 5.555 36.664h7.743c2.22-9.123 4.587-23.636 5.459-36.664 1.35-20.181.676-50.383-9.381-50.383Z"/>
    <path fill="#FFCB0F" d="M72.147 330.46c-.011 1.247-1.435 1.897-2.409 1.168-.721-.54-1.096-1.454-1.797-2.032-1.91-1.576-3.862-.123-5.344 1.233-.685.627-1.73 1.52-2.495.577-.527-.648-.832-1.43-1.506-1.962-2.012-1.589-4.118.327-5.162 2.017-.668 1.08.87 2.361 1.546 1.27.444-.72 1.487-2.524 2.508-1.603.657.593.902 1.532 1.61 2.11.842.687 1.966.759 2.951.36 1.129-.456 1.857-1.389 2.79-2.115.428-.332 1-.75 1.568-.519.419.171.709.66.972 1.001.65.845 1.344 1.598 2.417 1.868 2.38.596 4.318-1.275 4.34-3.593.012-1.284-1.977-1.055-1.989.22Zm-11.148-4.38c-1.285 0-1.058 1.988.22 1.988 1.284 0 1.057-1.988-.22-1.988Z"/>
    <path fill="#FFCB0F" d="M69.98 326.943c-1.285 0-1.058 1.988.219 1.988 1.285 0 1.057-1.988-.22-1.988Zm-13.641 6.907c-1.285 0-1.058 1.988.22 1.988 1.284 0 1.057-1.988-.22-1.988Zm8.976 0c-1.284 0-1.057 1.988.22 1.988 1.285 0 1.057-1.988-.22-1.988Zm-12.258-7.079c-1.284 0-1.057 1.989.22 1.989 1.285 0 1.057-1.989-.22-1.989Z"/>
    <path fill="#57B4F7" d="M1244.97 989.336a30.9 30.9 0 0 1 .05-2.55c.92-18.192 7.34-39.837 29.35-43.618 10.41-1.789 22.37 2.471 27.77 11.163 4.93 7.937 3.85 17.731 1.36 26.388-1.14 3.994-2.57 7.946-4.8 11.494-4.34 6.908-10.37 13.097-19.13 14.147-9.19 1.09-18.9-.79-26.92-5.43-2.52-1.461-4.95-3.256-6.3-5.701-1-1.823-1.33-3.853-1.38-5.893Z"/>
    <path fill="#57B4F7" d="M1310.31 1029.06c3.76-2.2 6.97-5.2 9.2-8.78 1.04-1.65 1.88-3.45 2.14-5.36.72-5.33-3.11-10.3-6.72-14.62-4-4.79-8.63-8.963-12.71-13.557-.27-.303-.57-.627-.99-.696-.29-.05-.59.046-.87.144-9.47 3.309-18.68 10.586-21.33 19.919-1.28 4.53 2.45 12.78 5.25 17.34 2.09 3.39 5.12 6.25 8.58 8.46 3.08 1.97 6.51 1.21 9.88.31 2.68-.71 5.23-1.78 7.57-3.16Z"/>
    <path fill="#00ADB9" d="M1290.84 1002.62c-1.82 1.36-3.23 3.14-4.39 5.02-2.41 3.91-3.85 8.52-3.03 13.05 1.43 7.84 10.06 13.89 18.57 13.72 12.32-.24 24.14-13.65 18.52-25.13-4.43-9.04-21.89-12.489-29.67-6.66Z"/>
    <path fill="#57B4F7" d="M1316.53 961.948c2.49.954 5.06 1.742 7.68 2.36 8.9 2.096 15.52 11.876 9.12 19.59-3.91 4.713-11.43 5.878-17.71 4.076-10.33-2.965-18.34-14.202-24-22.328-3.72-5.353-6.2-11.849-4.74-17.936.43-1.799 1.56-3.784 3.55-3.909 1.96-.123 3.46 1.597 4.67 3.071 5.61 6.806 13.07 11.875 21.43 15.076Z"/>
    <path fill="#77E6AC" d="M1318.89 966.518c.86-.274 1.75-.493 2.63-.661 5.32-1.004 9.92.92 12.42 5.517 2.16 3.954 2.3 9.015-.62 12.524-4.45 5.366-18.31 7.939-22.14.045-1.8-3.729-2.26-8.19-.23-11.7 1.63-2.818 4.63-4.674 7.94-5.725Z"/>
    <path fill="#57B4F7" d="m1255.43 949.363-.16.016c-5.22.497-10.43-1.171-15.63-2.148-5.15-.969-11.24-1.566-14.54 2.738-2.51 3.258-3.24 7.655-1.95 11.574 1.4 4.23 5.41 8.322 10.2 9.188 5.65 1.022 11.56.355 16.77-1.668 9.14-3.553 16.09-10.587 21.87-18.023 1.15-1.487 5.49-7.94.58-7.527-2.61.219-5.39 1.749-7.64 2.828-2.97 1.427-6.11 2.671-9.5 3.022Z"/>
    <path fill="#77E6AC" d="M1222.37 953.021c-1.47 3.805-1.01 8.596 1.12 12.003 2.2 3.524 6.58 5.785 10.78 5.283 3.85-.461 7.2-3.163 8.66-6.608s1.11-7.504-.59-10.894c-2.04-4.041-5.39-6.918-10.32-6.676-3.27.161-6.37 1.844-8.27 4.382a10.5 10.5 0 0 0-1.38 2.51Z"/>
    <path fill="#FF7C69" d="M1316.26 981.834c1.19 2.395 4.13 4.085 7.28 3.922 5.95-.309 9.99-4.664 9.26-10.128-.37-2.722-3.18-4.427-5.98-4.469-2.17-.032-4.23.774-6.06 1.804-1.76.991-3.41 2.251-4.34 3.956-.95 1.726-.88 3.452-.16 4.915Zm-88.31-31.251c-1.14.783-1.99 1.97-2.43 3.245-1.14 3.336-.68 7.904 2.55 10.29 3.42 2.525 9.16 1.074 10.62-2.674.78-2.006.25-4.297-.68-6.3-.69-1.471-1.6-2.888-2.91-3.944s-3.05-1.717-4.74-1.529c-.89.099-1.7.428-2.41.912Z"/>
    <path fill="#57B4F7" d="M1314.35 904.633c1.93-2.729 5.2-4.703 9.17-4.969 4.3-.288 8.83 1.581 11.48 4.735 4.47 5.329 2.87 13.51-2.7 17.232-2.19 1.468-5.09 2.197-7.89 1.732-2.96-.493-5.56-2.242-7.59-4.277-1.78-1.773-3.23-3.833-3.94-6.085-.91-2.929-.27-5.909 1.47-8.368Zm-59.16-10.278c1.78-2.595 4.78-4.485 8.4-4.768 3.91-.305 8.02 1.428 10.41 4.39 4.03 5.003 2.51 12.75-2.59 16.31-2.01 1.405-4.65 2.117-7.19 1.698-2.7-.443-5.05-2.077-6.89-3.986-1.6-1.662-2.91-3.598-3.53-5.722-.81-2.762-.21-5.584 1.39-7.922Z"/>
    <path fill="#57B4F7" d="M1272.35 895.669c-4.88 2.48-9.17 5.961-12.39 10.34-6.29 8.566-7.45 20.63-1.62 29.83 7.39 11.656 23.34 19.105 37.53 18.418 12.74-.617 24.5-8.547 28.95-19.538 4.46-10.991 1.39-24.482-7.55-33.238-12.07-11.806-30.91-12.934-44.92-5.812Z"/>
    <path fill="#E6F5F9" d="M1282.08 920.725c-2.84.065-5.71.497-8.13 1.798-2.42 1.302-4.32 3.587-4.51 6.208-.18 2.521 1.24 5.028 3.27 6.784 2.02 1.756 4.6 2.854 7.21 3.689 2.49.797 5.04 1.383 7.62 1.829 3.74.647 7.63.993 11.23.032 3.6-.96 6.87-3.46 7.66-6.865.25-1.053.25-2.182-.15-3.214-.59-1.513-1.95-2.652-3.26-3.72-5.64-4.603-13.59-6.702-20.94-6.541Z"/>
    <path stroke="#000" stroke-linecap="round" stroke-miterlimit="10" stroke-width="2" d="M1289.39 928.46c-.04-.1-.19.016-.22.119-.27 1.167-.46 2.379-1.09 3.408-.63 1.029-1.84 1.853-3.12 1.687-.56-.071-1.08-.317-1.54-.625-.62-.418-1.16-.969-1.45-1.627-.3-.657-.32-1.428.03-2.041m32.28-1.377c1.1-2.107 1.97-5.87.28-8.029-.69-.885-1.83-1.375-2.97-1.645-2.47-.591-4.73.075-6.19 1.974-.87 1.123-1.34 2.476-1.63 3.844m-36.12-5.915c.12-1.473.47-2.922 1.03-4.292 1.11-2.746 4.69-3.916 7.69-3.6 1.1.117 2.21.395 3.13.998 2.55 1.683 2.28 5.572.57 7.57m9.64 10.032c-.38.93-.61 1.92-.67 2.923-.03.578 0 1.198.35 1.689.51.71 1.52.931 2.42.982.53.029 1.07.021 1.57-.131.5-.151.95-.46 1.16-.905"/>
    <path fill="#FF7C69" d="M1293.22 923.824c-1.94-1.351-4.46-1.268-6.53-.363-1.64.714-1.99 2.915-1.17 4.338 1.16 1.999 4.06 2.526 6.42 2.114.8-.14 1.62-.375 2.21-.885 1.56-1.334.81-3.986-.93-5.204Zm37.15-11.541c-.07-1.187-.85-2.293-1.89-3.021-1.03-.729-2.29-1.117-3.56-1.329-.98-.166-2.03-.21-3-.05.86 1.857 1.56 3.779 2.5 5.609v.006c.22.396.43.794.64 1.192.46.775.86 1.57 1.2 2.388 1.05-.366 2-.944 2.75-1.706.83-.837 1.43-1.934 1.36-3.089Zm-69.6-8.187c.01.185-.32.048-.4-.126-.56-1.283-.86-2.698-.57-4.034.3-1.436 1.29-2.715 2.65-3.43 1.37-.715 3.08-.855 4.59-.376.92.289 1.78.812 2.32 1.564"/>
    <path fill="#57B4F7" d="M1218.55 1012.56c-2.46-3.77-4.03-8.01-4.43-12.33-.18-1.998-.12-4.037.54-5.916 1.49-4.211 6.76-8.401 11.35-9.446 3.28-.745 6.71-.569 9.93-1.57 3.58-1.116 6.91-2.976 9.7-5.298 2.79.129 5.32 1.752 7.29 3.654 7.66 7.421 7.29 17.479 3.1 25.996-3.59 7.29-12.61 17.26-22.57 15.61-3.8-.62-6.64-1.9-9.35-4.29-2.16-1.9-4.03-4.06-5.56-6.41Z"/>
    <path fill="#77E6AC" d="M1249.17 997.304c1.05 2.091 1.52 4.376 1.72 6.646.4 4.7-.43 9.61-3.33 13.38-5.04 6.53-15.93 8.1-23.77 4-11.37-5.94-16.05-23.733-5.39-31.669 8.38-6.244 26.27-1.32 30.77 7.643Z"/>
    <path fill="#FF7C69" d="M1237.92 998.028c2.58 2.472 4.51 5.712 5.39 8.632.93 3.05.49 6.49-1.58 8.91-.9 1.06-2.08 1.89-3.34 2.55-5.58 2.9-13.6 1.94-17.64-2.88-6.66-7.97-3.15-22.875 9.6-21.184 2.82.374 5.42 1.907 7.57 3.972Z"/>
    <path fill="#E6F5F9" d="M1263.65 968.326c-1.48 1.311-2.72 2.457-3.8 4.39-2.09 3.774-3 8.164-2.38 12.447.93 6.358 5.31 12.944 12.59 14.1 4.89.777 10.57.274 14.12-3.457 1.84-1.935 3.12-4.337 4.17-6.792a48.381 48.381 0 0 0 3.1-10.113c.4-2.082.66-4.25.14-6.307-.68-2.703-2.62-4.918-4.79-6.669-2.26-1.824-4.86-3.279-7.68-3.956-2.83-.676-5.89-.538-8.53.669-2.54 1.159-4.11 3.166-6.12 4.968-.28.249-.55.487-.82.72Z" opacity=".47"/>
    <path fill="#E6F5F9" d="M1287.83 960.464c-2.02-.816-4.12-1.288-6.24-1.685.76-2.177 1.59-4.331 2.45-6.473a22.33 22.33 0 0 1-1.89-.679 165.7 165.7 0 0 0-2.55 6.793c-1.8-.318-3.61-.638-5.38-1.122-.52-.142-1.07.35-1.14.84-.08.586.32.995.84 1.138 1.65.452 3.34.751 5.04 1.044a197.426 197.426 0 0 0-3.08 10.098c-1.4-.343-2.8-.653-4.22-.902-1.27-.222-1.57 1.755-.3 1.978 1.35.236 2.67.527 4 .849-.83 3.045-1.59 6.109-2.32 9.179-1.98-.227-3.99-.34-5.92-.856-.52-.141-1.06.348-1.13.839-.09.584.31.998.84 1.139 1.86.5 3.82.593 5.75.808-.53 2.282-1.04 4.571-1.56 6.859a79.106 79.106 0 0 0-5.19-1.097c-1.27-.221-1.57 1.757-.3 1.978 1.7.296 3.38.653 5.05 1.059-.8 3.559-1.58 7.119-2.37 10.669-1.18 5.32-2.41 10.64-3.78 15.91-.32 1.25 1.66 1.54 1.98.3 2.26-8.73 4.13-17.57 6.07-26.384 1.37.369 2.72.763 4.06 1.208.52.171 1.09.022 1.32-.507.21-.456.01-1.149-.5-1.32-1.47-.487-2.95-.92-4.44-1.324.52-2.357 1.05-4.713 1.6-7.063 1.05.199 2.06.48 3.03.955 1.16.565 1.97-1.262.82-1.827-1.09-.532-2.22-.837-3.38-1.053.72-3.003 1.46-6 2.27-8.98 1.41.392 2.82.824 4.2 1.318.51.181 1.09.014 1.32-.507.21-.465.01-1.138-.51-1.32a64.221 64.221 0 0 0-4.49-1.412c.69-2.48 1.42-4.95 2.21-7.406.3-.95.62-1.894.94-2.838 2.07.379 4.12.828 6.08 1.621 1.19.482 2.01-1.343.82-1.827Z"/>
    <path fill="#171714" d="M1405.97 280.205c.64 1.877 2.79 3.617 3.95 4.941l5.93 6.761c3.87 4.422 7.8 8.802 11.63 13.269 3.77 4.411 7.49 9.201 11.62 13.269.59-.477 1.16-.978 1.74-1.467l-26.13-29.835c-1.59-1.812-3.18-3.628-4.95-5.26-1.17-1.078-2.45-2.094-3.96-2.594.01.308.07.614.17.916Z"/>
    <path fill="#77E6AC" d="M1365.65 287.829c.42-1.317.88-2.632 1.39-3.943 7.92-20.603 28.61-44.179 50.56-49.659 20.13-5.025 36.72 5.502 46.21 18.77-3.21-1.693-10.84-.08-15.32 5.206-4.48 5.286-5.76 9.068-6.64 15.161-5.85-.557-12.91 2.633-17.53 7.922-4.62 5.289-6.59 12.43-4.88 17.736-7.1-1.868-17.03.387-21.51 9.221-2.85 5.605-2.37 11.638.07 16.022-2.38-4.284-12.39-1.7-16.34 1.687-2.04 1.751-3.71 3.45-4.58 5.824-.9 2.452-1.57 5.051-.97 7.258a109.075 109.075 0 0 1-8.89-13.61c-2.89-5.242-4.76-10.758-4.79-17.406-.03-6.543 1.04-13.391 3.22-20.189Z"/>
    <mask id="b" width="102" height="108" x="1362" y="232" maskUnits="userSpaceOnUse" style="mask-type:luminance">
      <path fill="#fff" d="M1365.65 287.829c.42-1.317.88-2.632 1.39-3.943 7.92-20.603 28.61-44.179 50.56-49.659 20.13-5.025 36.72 5.502 46.21 18.77-3.21-1.693-10.84-.08-15.32 5.206-4.48 5.286-5.76 9.068-6.64 15.161-5.85-.557-12.91 2.633-17.53 7.922-4.62 5.289-6.59 12.43-4.88 17.736-7.1-1.868-17.03.387-21.51 9.221-2.85 5.605-2.37 11.638.07 16.022-2.38-4.284-12.39-1.7-16.34 1.687-2.04 1.751-3.71 3.45-4.58 5.824-.9 2.452-1.57 5.051-.97 7.258a109.075 109.075 0 0 1-8.89-13.61c-2.89-5.242-4.76-10.758-4.79-17.406-.03-6.543 1.04-13.391 3.22-20.189Z"/>
    </mask>
    <g mask="url(#b)">
      <path fill="#FFCB0F" d="M1432.42 259.994c-5.14-4.464-11.61-7.876-18.8-9.563-4.55-1.068-9.35-1.907-14.4-1.595-2.38.146-4.94.5-7.37 1.541-3.17 1.362-3.7 3.175-5.13 6.097-5.74 11.715-7.87 23.721-6.57 34.858 1.41 12.14 6.54 22.695 13.33 31.659 1.56 2.062 3.79 4.037 7.01 3.466 2.3-.408 4.58-1.681 6.79-2.928 4.69-2.65 9.42-5.326 13.73-8.74 7.71-6.107 13.64-14.221 18.96-22.341 1.03-1.575 2.09-3.205 3.57-4.418 1.47-1.214 3.5-1.908 4.79-1.191l1.08-.307c-4.38-9.779-9.02-19.602-16.99-26.538Z"/>
      <path fill="#F64E33" d="M1431.01 256.281c-5.54-4.014-9.67-6.098-17.1-7.252-6.48-1.008-19.4.036-26.37 4.993-.57.402-1.08.897-1.56 1.443 1.06 1.033 2.04 2.142 3.01 3.251 5.76 6.601 11.01 13.672 16.66 20.373.93 1.102 1.92 2.135 2.9 3.185 2.8 2.98 8.45 12.644 11.06 15.791 3.29 3.957 3.58 1.484 7.4 4.969l24.03-19.043c-5.13-9.27-11.44-21.474-20.03-27.71Z"/>
    </g>
    <path fill="#171714" d="M1385.9 250.402a2.623 2.623 0 0 0-.73-.38c-1.52-.459-2.22.995-1.94 2.225.09.367.25.714.41 1.055.48 1.015 1.03 2.025 1.84 2.798 1.95 1.845 3.4-1.087 2.8-2.846-.13-.391-.37-.736-.63-1.062-.37-.48-.78-.93-1.23-1.347a5.24 5.24 0 0 0-.52-.443Zm.88 9.13c.43-1.205-1.39-2.028-1.83-.813-2.08 5.866-3.63 11.919-4.55 18.078-.88 5.92-1.55 12.193.32 17.989.4 1.227 2.27.506 1.87-.716-1.81-5.592-1.02-11.745-.14-17.441a94.143 94.143 0 0 1 4.33-17.097Z"/>
    <path fill="#171714" d="M1438.61 264.016c-8.01-12.219-22.94-17.787-37.15-16.091-4.49.536-8.88 1.741-13.05 3.483-1.18.496-.47 2.365.72 1.867 8.82-3.685 18.76-4.849 28.05-2.29 8.02 2.209 15.23 7.223 19.8 14.198.71 1.08 2.33-.093 1.63-1.167Zm-18.98 32.775c-1.65-3.223-3.76-6.13-5.96-8.991-2.46-3.191-4.92-6.374-7.39-9.56l-14.7-19.04c-.79-1.019-2.42.147-1.63 1.167 4.8 6.216 9.6 12.432 14.41 18.647 2.37 3.076 4.75 6.15 7.12 9.226 2.28 2.956 4.58 5.931 6.29 9.268.58 1.135 2.45.429 1.86-.717Zm-40.9 11.804a46.067 46.067 0 0 1-2.29-24.356c.23-1.267-1.75-1.569-1.98-.299a48.125 48.125 0 0 0 2.4 25.372c.46 1.205 2.33.489 1.87-.717Zm-4.29-.182c-.74-2.589-1.49-5.179-2.24-7.769-.15-.52-.82-.757-1.29-.576-.54.208-.73.772-.58 1.292l2.25 7.77c.15.519.81.757 1.29.575.54-.207.72-.771.57-1.292Zm20.78-7.479c-.81-1.381-1.62-2.762-2.42-4.143-.27-.454-1-.541-1.4-.229-.46.361-.51.912-.23 1.396a839.9 839.9 0 0 1 2.42 4.144c.27.453 1 .54 1.4.228.46-.361.51-.912.23-1.396Zm2.36-3.227c-.75-1.554-1.5-3.108-2.24-4.662-.23-.471-.77-.802-1.3-.575-.46.201-.81.788-.57 1.292.75 1.554 1.5 3.107 2.24 4.661.23.471.77.803 1.3.576.46-.201.81-.789.57-1.292Z"/>
    <path fill="#F64E33" d="M1445.31 271.751c-7.13-.468-14.26 2.013-19.44 6.958-5.22 4.974-7.99 12.124-7.77 19.294.04 1.286 2.02 1.062 1.99-.22-.2-6.5 2.38-12.974 7.03-17.526 4.69-4.581 11.37-6.956 17.89-6.528 1.27.084 1.59-1.893.3-1.978Z"/>
    <path fill="#FFCB0F" d="M1419.09 297.077c-4.02-.12-8.17-.72-11.85 1.235-2.96 1.569-5.49 3.948-7.36 6.716-3.7 5.478-4.98 12.34-3.23 18.735.34 1.242 2.2.515 1.86-.717-1.54-5.645-.35-11.917 2.91-16.748 1.62-2.399 3.72-4.462 6.22-5.932 3.43-2.016 7.34-1.425 11.15-1.311 1.27.039 1.58-1.939.3-1.978Z"/>
    <path fill="#77E6AC" d="M1397.75 322.899c-4.25-4.221-11.37-1.697-15.52 1.328-4.62 3.362-7.74 8.586-7.78 14.361 0 1.284 1.98 1.056 1.99-.22.03-4.918 2.85-9.424 6.7-12.328 3.46-2.614 9.67-5.237 13.34-1.596.91.909 2.17-.645 1.27-1.545Z"/>
    <path fill="#FFCB0F" d="m1419.17 192.208-5.93-.582c.48-2.079.95-4.158 1.43-6.237.07-.296-.19-.505-.39-.379-1.82 1.134-3.46 2.676-4.83 4.545-.18.244-.35.493-.52.748-.13.194-.26.441-.43.577-.28.221-.55.018-.81-.161-.27-.191-.54-.39-.8-.585l-3.12-2.256c-.2-.148-.45.096-.39.379.33 1.6.73 3.175 1.18 4.728a32.442 32.442 0 0 0-4.43 4.09c-.22.244.02.611.26.56 1.75-.367 3.48-.865 5.18-1.477l.18.52c.03.084.07.129.12.153-.78 2.32-1.48 4.686-1.71 7.208-.02.277.32.46.46.237l1.8-2.874c.6-.956 1.16-1.971 1.81-2.88.19-.272.35-.211.58-.034.2.157.39.34.58.51l1.2 1.063 2.46 2.175c.21.189.43-.123.39-.379a27.812 27.812 0 0 0-1.17-5.319c2.52-.65 4.91-1.908 7.04-3.705.22-.191.13-.599-.14-.625Z"/>
    <path fill="#FF9786" d="m32.307 146.617.502-.46 1.002-.921 2.083-1.913c.17-.155-.015-.38-.204-.35l-4.586.726c-.331.053-.796.217-1.056-.07-.236-.26-.397-.624-.579-.923l-1.213-1.993c-.09-.149-.34-.13-.383.05l-1.237 5.182a.209.209 0 0 0-.002.077 16.155 16.155 0 0 0-4.578 1.519c-.171.086-.11.329.05.383l2.434.817 1.217.408c.143.048.471.102.57.228.104.135.033.42.016.574-.164 1.488-.685 3.005-.067 4.458.067.156.285.116.362 0a49.253 49.253 0 0 0 3.141-5.42l5.744 2.554c.212.094.422-.144.254-.33a35242.436 35242.436 0 0 1-2.785-3.071c-.294-.325-.618-.638-.889-.982-.188-.238.028-.381.204-.543Z"/>
    <path fill="#6EDEEB" d="M393.36 1000.78c-1.01-.63-2.019-1.254-3.028-1.879l-1.566-.971-.73-.453-.314-.194c-.1-.062-.316-.148-.38-.256-.129-.215.123-.738.189-.954l.26-.844.556-1.809 1.075-3.496c.064-.21-.182-.407-.359-.289a30.27 30.27 0 0 0-5.83 5.086c-1.552-.995-3.926-2.663-5.685-3.152-.195-.055-.329.127-.301.314.256 1.696 1.34 4.273 1.855 5.901a24.485 24.485 0 0 0-4.039 4.006c-.152.19-.011.49.238.42l3.073-.78c.512-.14 1.024-.27 1.536-.4.235-.06.507-.17.748-.18.315-.01.318.32.377.57l1.484 6.38c.057.25.412.24.471 0l1.585-6.41c.066-.26.132-.53.198-.8.051-.2.086-.5.232-.661.189-.209.523-.1.758-.056.257.048.514.095.771.147 1.047.19 2.094.38 3.141.58 1.165.21 2.331.43 3.496.65.262.04.44-.32.189-.47ZM171.922 244.411l-3.027-1.877-1.566-.971-.731-.454-.313-.194c-.1-.062-.317-.147-.381-.255-.128-.215.123-.738.19-.954l.259-.844.556-1.809 1.075-3.496c.065-.21-.181-.407-.359-.289a30.202 30.202 0 0 0-5.83 5.086c-1.552-.995-3.925-2.664-5.685-3.153-.195-.054-.328.127-.3.315.255 1.696 1.339 4.273 1.854 5.901a24.697 24.697 0 0 0-4.038 4.003c-.153.191-.012.491.238.427l3.072-.788 1.537-.395c.234-.06.506-.175.747-.182.315-.01.319.32.377.571l1.485 6.379c.057.246.411.242.471 0l1.584-6.406.198-.801c.052-.207.087-.501.233-.663.188-.209.523-.1.758-.056l.77.142 3.141.582 3.497.648c.261.048.44-.311.188-.467Z"/>
    <path fill="#99EBDA" d="m34.54 387.505-.819-3.467c-.14-.598-.282-1.195-.423-1.793l-.198-.837-.084-.358c-.027-.115-.12-.328-.09-.45.06-.243.608-.436.808-.542l.78-.415 1.67-.888 3.23-1.717c.194-.103.159-.417-.05-.458a30.2 30.2 0 0 0-7.72-.514 18.366 18.366 0 0 0-1.951-5.113c-.1-.177-.323-.142-.435.01a32.734 32.734 0 0 0-2.702 4.356 24.685 24.685 0 0 0-5.686-.016c-.243.027-.355.339-.133.47l2.733 1.611 1.366.805c.209.123.483.234.659.399.23.215-.001.452-.137.671l-3.452 5.565c-.133.215.12.462.333.333l5.646-3.419.705-.427c.183-.11.415-.294.633-.306.281-.015.44.299.576.496l.445.645 1.814 2.629 2.02 2.928c.15.219.53.09.462-.198Z"/>
    <path fill="#AB95F9" d="M56.797 72.79c1.995-2.515 4.461-4.643 7.298-6.17 7.22-3.89 20.239-4.433 26.363 2.125 4.561 4.885 4.745 16.554 4.25 22.654 3.539-4.069 8.34-7.213 13.677-7.99 5.337-.776 11.175 1.09 14.481 5.352 4.655 6 2.934 12.152-3.291 16.241 4.444-.753 8.835 3.139 9.419 7.608.583 4.469-2.056 8.949-5.819 11.43-3.762 2.482-8.45 3.21-12.952 3.014-5.692-.248-11.782-2.225-14.865-7.016-1.839 9.471-11.672 16.652-21.253 15.52-9.58-1.131-17.47-10.404-17.053-20.043-6.594 7.485-20.405 6.381-25.727-2.056-5.321-8.437-.367-21.377 9.229-24.103 4.182-1.188 9.622.006 11.117 4.089-1.527-7.186.576-14.923 5.126-20.656Z"/>
    <path stroke="#1B0512" stroke-linecap="round" stroke-miterlimit="10" stroke-width="2" d="M57.746 99.185c-.203-2.918 2.202-5.164 4.838-5.956 3.596-1.08 6.975 2.924 4.257 6.057m34.3 8.062c-.433-1.747.907-3.476 2.454-4.398 1.688-1.007 4.053-1.341 5.494-.004 1.411 1.308 1.313 3.527 1.108 5.439m-29.213-4.188a11.563 11.563 0 0 0 5.507 1.007"/>
    <path fill="#fff" d="M124.412 112.654c-.498-.075-1.106.298-1.138.84-.109 1.787-1 3.441-2.37 4.589-1.518 1.272-3.416 1.935-5.358 2.201-1.273.174-1.061 2.163.219 1.988 2.303-.315 4.629-1.114 6.41-2.652 1.704-1.472 2.938-3.547 3.077-5.827.032-.539-.272-1.052-.84-1.139ZM72.06 127.437c-1.71-1.717-2.658-4.147-2.662-6.632 0-.54-.608-.939-1.104-.884-.584.065-.885.562-.884 1.104.005 2.99 1.282 5.852 3.38 7.958.381.383 1.09.25 1.408-.138.371-.452.245-1.023-.138-1.408Zm4.03-1.797-.346-1.554a.753.753 0 0 0-.12-.361.746.746 0 0 0-.239-.302c-.192-.158-.495-.26-.745-.222-.25.039-.506.15-.662.359-.152.202-.279.488-.222.745l.346 1.554a.76.76 0 0 0 .12.361c.053.12.132.221.239.302.192.158.495.26.745.222.25-.039.506-.15.662-.359.152-.202.279-.488.222-.745Zm7.19 1.65a.755.755 0 0 0-.21-.32.756.756 0 0 0-.317-.235c-.24-.095-.52-.126-.765-.02l-.225.121a.996.996 0 0 0-.33.406l-.69 1.208a.753.753 0 0 0-.079.387.753.753 0 0 0 .058.379.75.75 0 0 0 .21.319.757.757 0 0 0 .317.236c.241.094.52.126.765.02l.225-.122a.988.988 0 0 0 .33-.405l.691-1.209a.75.75 0 0 0 .078-.387.751.751 0 0 0-.058-.378Zm5.779-50.356c-.543-.058-1.05.286-1.139.84l-.69 4.316c-.083.517.306 1.082.84 1.139.542.057 1.05-.287 1.138-.84l.69-4.317c.083-.516-.305-1.081-.84-1.138Zm-23.524-4.483c-4.564 3.108-8.106 7.645-9.991 12.837-.437 1.203 1.386 2.026 1.827.814a24.774 24.774 0 0 1 9.331-12.026c1.067-.726-.103-2.348-1.167-1.625Zm4.155 2.625c-.424-.316-1.067-.305-1.409.138a38.358 38.358 0 0 0-2.903 4.372c-.26.456.039 1.137.507 1.32.546.215 1.04-.018 1.32-.506a37.526 37.526 0 0 1 .474-.806c.027-.045.204-.347.062-.104.202-.347.431-.68.654-1.014a36.41 36.41 0 0 1 1.432-1.992c.319-.413.304-1.077-.138-1.408Zm-31.589 37.483c-1.387-1.797-2.765-3.719-2.515-6.108.246-2.355 1.415-4.518 1.99-6.797.314-1.246-1.665-1.54-1.978-.3-.632 2.506-1.96 4.855-2.033 7.486-.074 2.671 1.339 4.849 2.912 6.886.786 1.019 2.412-.147 1.624-1.167Z"/>
    <path fill="#FFBB97" d="M110.189 112.556c-1.025-.683-2.342-.748-3.537-.765-.683-.011-1.364.03-2.042.105-.633.07-1.283.137-1.843.462-.579.335-.945.974-.881 1.65.017.174.059.333.118.48a1.42 1.42 0 0 0 .291 1.218c.684.821 1.889 1.259 2.911 1.446.975.178 2.01.139 2.976-.075 1.006-.223 2.202-.542 2.783-1.472.647-1.038.209-2.393-.776-3.049Zm-46.296-6.763c-.245-.607-.737-1.018-1.282-1.347-.89-.536-1.953-.665-2.973-.619-.533.024-1.062.106-1.585.213-.538.11-1.141.191-1.638.431-.754.364-1.15 1.182-.873 1.991.096.281.26.537.46.763.058.148.13.289.23.41.386.465.92.634 1.476.798 1.88.555 4.415.988 5.846-.753.43-.523.599-1.245.34-1.887Z"/>
    <path stroke="#57B4F7" stroke-linecap="round" stroke-miterlimit="10" stroke-width="2" d="M1223.86 77.416c1.29-.335 2.59-.636 3.9-.902m7.87-1.197c34.42-3.47 70.44 15.5 87.59 47.731 4.2 7.887 6.8 16.51 9.57 25.005 4.63 14.24 9.32 29.235 6.49 43.941-5.76 30.025-33.57 42.585-56.6 57.043-18.83 11.824-41.64 30.833-24.45 54.147 4.13 5.598 10.41 9.252 16.9 11.747 23.92 9.189 56.02.646 65.03-23.332 1.16-3.071 1.91-6.412 1.28-9.63-1.33-6.674-8.31-10.882-15.05-11.774-14.64-1.936-28.94 8.281-35.48 21.52-15.9 32.157-.26 58.265 34.24 62.114 22.59 2.521 44.24-6.541 66.36-9.255 12.36-1.517 22.41.28 34.28 3.2 10.43 2.566 20.38 3.363 27.79 12.494 5.76 7.087 7.7 17.415 3.87 25.702-5.1 11.029-18.03 15.706-26.95 23.96-15.89 14.707-16.96 41.92-3.73 59.06 11.61 15.029 32.21 21.619 50.91 18.23M66.313-.4c-6.497 21.13-1.073 47.993-13.645 64.567-4.843 6.384-11.629 9.99-18.334 12.97C20.69 83.199 6.474 87.417-6.76 94.702c-13.235 7.286-25.776 18.202-32.431 33.923-6.463 15.267-6.69 33.373-4.674 50.373 1.629 13.738 4.818 27.701 12.108 38.371 10.87 15.91 29.227 21.764 46.174 20.212 16.946-1.552 33-9.435 48.862-16.864 15.862-7.428 32.254-14.586 49.248-14.574 62.086.044 88.78 86.837 71.236 149.251-22.195 78.963-88.303 116.385-146.977 147.405-15.415 8.15-31.253 15.648-44.993 27.433-13.739 11.785-25.427 28.654-28.506 48.773-2.306 15.059.352 30.57 3.835 45.29 5.362 22.661 12.711 44.623 21.883 65.393 6.835 15.476-74.837 37.963-60.991 42.912 10.98 3.924-11.283 95.41-.012 93 29.873-6.39-16.311 91.941 14.01 91.032-22.639 80.822 176.066 127.268 201.449 105.308 11.308-9.78 17.183-26.875 25.122-40.469 10.224-17.507 21.733-34.067 35.695-47.333 19.049-18.1 45.375-29.57 67.412-17.506 21.919 11.999 32.501 44.097 31.153 73.317-1.348 29.221-12.169 56.381-22.786 82.641 18.924 56.98 89.766 148.78 221.735 60.14 131.97-88.63 204.286-137.769 223.948-151.259 122.805-35.608 396.21-85.46 507.38 0 138.97 106.819 254.44-181.099 192.96-291.783"/>
    <path fill="#6EDEEB" d="M1297.59 853.463a1.768 1.768 0 0 0-.56-.909c-1.16-1.007-2.45.368-3.02 1.327l-3.63 6.101c-.26.324-.53.638-.81.928-.62.625-1.67.562-2.16-.129a134.23 134.23 0 0 0 2.09-14.393c.13-1.344-.7-2.635-2.1-2.846-1.27-.194-2.72.749-2.84 2.099-.02.256-.06.51-.08.765-.28 1.337-.45 2.705-.71 4.04-.45 2.268-.81 4.63-1.42 6.857-.12.424-.45.853-.86.935l-.42-3.044-1.53-11.181c-.25-1.818-1.98-2.42-3.33-2.009-.69-.031-1.33.556-1.58 1.357-.18.607-.15 1.253-.1 1.881.12 1.38.34 2.747.56 4.114l.75 4.629c.2 1.533.43 3.063.64 4.595-.01.35-.06.635-.23.713-.43.205-.95-.684-1.13-.958a7.113 7.113 0 0 1-.26-.412 176.05 176.05 0 0 0-4.37-10.807c-1.31-2.933-5.98-1.155-4.67 1.792a174.796 174.796 0 0 1 6.41 16.661c.13.701.21 1.407.18 2.122-.01.53-.09 1.084-.41 1.521-.44.609-1.02.89-1.68.972-.33-.214-.66-.438-1-.645-2.97-1.802-6.31-3.365-9.87-2.959-1.3.148-2.42 1.423-2.21 2.76.19 1.279 1.27 2.271 2.59 2.212.07.029.14.066.21.092 2.4.899 4.33 2.418 6.15 4.145 3.62 3.428 4.69 6.38 9.82 6.773 3.86.297 10.8 1.094 14.24-1.018 6.26-3.84 1.49-11.985 3.48-17.701 1-2.876 2.96-5.368 3.72-8.335.17-.67.31-1.358.14-2.045ZM994.603 59.924a1.79 1.79 0 0 0-.554-.909c-1.164-1.007-2.457.368-3.027 1.327l-3.626 6.1a11.34 11.34 0 0 1-.814.929c-.617.625-1.668.562-2.156-.129.95-4.757 1.655-9.56 2.093-14.393.122-1.344-.707-2.635-2.099-2.846-1.276-.194-2.723.749-2.846 2.1-.023.255-.058.509-.083.764-.274 1.337-.445 2.705-.708 4.04-.446 2.268-.806 4.63-1.418 6.857-.117.424-.454.853-.863.935-.138-1.015-.278-2.03-.417-3.044l-1.529-11.181c-.249-1.818-1.976-2.42-3.332-2.009-.688-.032-1.33.556-1.576 1.357-.186.607-.154 1.253-.099 1.88.119 1.38.339 2.748.559 4.115l.745 4.63c.207 1.532.43 3.062.645 4.594-.009.35-.067.635-.231.713-.432.205-.948-.684-1.135-.958-.091-.134-.171-.274-.256-.412a176.62 176.62 0 0 0-4.375-10.807c-1.305-2.933-5.979-1.155-4.668 1.792a175.887 175.887 0 0 1 6.413 16.661c.131.7.206 1.407.184 2.122-.017.53-.096 1.084-.411 1.52-.44.61-1.023.891-1.681.973-.333-.214-.659-.438-.999-.645-2.973-1.802-6.31-3.365-9.877-2.96-1.299.149-2.418 1.424-2.21 2.76.198 1.28 1.277 2.272 2.591 2.213.071.029.14.066.212.092 2.404.9 4.328 2.418 6.151 4.145 3.619 3.428 4.687 6.38 9.815 6.773 3.867.297 10.808 1.094 14.247-1.018 6.254-3.84 1.488-11.985 3.478-17.7 1.002-2.877 2.959-5.369 3.716-8.336.17-.67.317-1.358.141-2.045Z"/>
    <path fill="#57B4F7" d="M59.517 476.396a1.8 1.8 0 0 0-.554-.908c-1.164-1.008-2.457.368-3.027 1.326l-3.627 6.101c-.256.324-.526.638-.813.929-.617.625-1.669.562-2.156-.129a136.43 136.43 0 0 0 2.093-14.393c.122-1.345-.707-2.635-2.1-2.846-1.275-.194-2.722.748-2.845 2.099-.023.255-.058.509-.083.765-.274 1.336-.445 2.705-.708 4.04-.446 2.268-.806 4.629-1.418 6.856-.117.424-.454.854-.863.936-.138-1.015-.278-2.029-.417-3.044l-1.53-11.182c-.248-1.817-1.975-2.419-3.33-2.008-.69-.032-1.331.556-1.577 1.357-.186.607-.154 1.252-.1 1.88.12 1.38.34 2.748.56 4.114l.745 4.63c.207 1.533.43 3.063.645 4.594-.009.351-.067.635-.231.713-.432.205-.948-.684-1.135-.957-.091-.134-.172-.275-.256-.413a176.016 176.016 0 0 0-4.375-10.806c-1.305-2.933-5.98-1.156-4.668 1.792a175.952 175.952 0 0 1 6.413 16.661c.13.7.206 1.407.184 2.122-.017.53-.096 1.084-.411 1.52-.44.609-1.023.891-1.68.973-.334-.215-.66-.439-1-.645-2.973-1.803-6.31-3.365-9.877-2.959-1.3.147-2.418 1.422-2.21 2.759.198 1.28 1.277 2.271 2.591 2.213.071.029.14.065.212.092 2.404.899 4.328 2.418 6.151 4.145 3.619 3.427 4.687 6.379 9.815 6.773 3.866.297 10.808 1.094 14.247-1.019 6.254-3.84 1.488-11.984 3.478-17.7 1.002-2.877 2.959-5.368 3.716-8.336.17-.669.317-1.357.14-2.045Z"/>
    <path fill="#FC0" d="M550.914 990.767c-.14-1.265-1.426-2.462-2.76-2.211-3.531.665-7.1 1.182-10.62 1.9-1.02.208-4.81 1.216-4.361-.774.187-.834 4.318-2.084 5.208-2.454 1.971-.82 4.003-1.463 6.037-2.105 1.157-.365 2.775-1.495 3.142-2.713.537-1.779-1.437-2.78-2.991-2.317l-19.807 5.905c-.325-.057-.645-.141-.924-.31-.344-.98-.445-1.954-.079-3.005 1.213-3.478 3.24-6.552 3.746-10.275.385-2.827-3.513-3.918-4.756-1.39-1.723 3.504-4.027 6.768-6.846 9.535-2.993 2.443-5.336 3.709-5.971 8.126-.557 3.867-1.822 10.791.072 14.391 3.182 6.05 10.689 2.88 16.24 4.25 1.11.55 2.268 1.02 3.345 1.51.144.07.288.13.432.2 1.848 1.1 3.626 2.34 5.675 3.01 1.073.35 3.143.66 4.1-.21 1.879-1.73-.874-3.39-2.173-4.18-1.908-1.16-3.724-2.34-5.755-3.27-.282-.13-.564-.27-.847-.39-.074-.08-.158-.15-.228-.23-.564-.64-.462-1.63.191-2.11 5.11.65 10.012 2.49 15.17 2.86 2 .14 3.769-2.03 2.355-3.79-.921-1.137-2.862-1.156-4.17-1.462-.883-.207-1.77-.399-2.64-.631-2.25-.6-4.6-1.12-6.798-1.884-.328-.114-.647-.366-.8-.669a622.264 622.264 0 0 0 14.603-2.547c1.325-.25 2.367-1.346 2.21-2.76Z"/>
    <path fill="#FF7C69" d="M1288.3 68.707c1.24.294 2.8-.513 3.01-1.853.56-3.55 1.28-7.084 1.79-10.64.15-1.03.47-4.938 2.2-3.845.72.457.5 4.768.55 5.73.11 2.132.03 4.263-.05 6.394-.05 1.212.47 3.116 1.5 3.873 1.49 1.104 3.1-.417 3.19-2.037l1.11-20.638c.16-.286.35-.56.6-.766 1.04.007 1.99.24 2.86.939 2.86 2.314 5.08 5.258 8.41 6.99 2.53 1.314 4.87-1.988 2.91-4.01-2.72-2.803-5.01-6.073-6.67-9.66-1.29-3.64-1.69-6.273-5.64-8.36-3.45-1.826-9.54-5.35-13.57-4.78-6.77.958-6.31 9.093-9.47 13.86-.89.86-1.73 1.79-2.55 2.638-.12.113-.23.226-.34.34-1.65 1.37-3.42 2.626-4.74 4.33-.69.891-1.69 2.734-1.18 3.931.98 2.35 3.48.319 4.66-.638 1.73-1.407 3.46-2.72 5.02-4.316l.66-.666c.09-.043.19-.098.29-.138.79-.316 1.69.115 1.91.89-2.33 4.592-5.71 8.588-7.8 13.32-.8 1.836.65 4.233 2.77 3.492 1.39-.483 2.06-2.303 2.79-3.432.49-.761.97-1.532 1.48-2.272 1.33-1.917 2.61-3.954 4.07-5.766.21-.27.56-.486.9-.528-.9 4.86-1.75 9.727-2.53 14.607-.21 1.332.47 2.682 1.86 3.011Z"/>
    <path fill="#FC0" d="M1117.16 74.411c-.14-1.264-1.43-2.461-2.76-2.21-3.53.665-7.1 1.181-10.62 1.9-1.02.207-4.81 1.216-4.37-.775.19-.833 4.32-2.083 5.21-2.453 1.97-.82 4.01-1.463 6.04-2.105 1.16-.365 2.77-1.496 3.14-2.714.54-1.778-1.44-2.78-2.99-2.317-6.6 1.969-13.2 3.937-19.81 5.906-.32-.058-.64-.142-.92-.31-.34-.98-.45-1.954-.08-3.005 1.21-3.478 3.24-6.552 3.75-10.275.38-2.828-3.52-3.919-4.76-1.39-1.72 3.504-4.03 6.768-6.85 9.535-2.99 2.442-5.33 3.709-5.97 8.125-.55 3.867-1.82 10.792.08 14.39 3.18 6.05 10.69 2.881 16.24 4.249 1.11.55 2.26 1.02 3.34 1.514.14.066.29.133.43.199 1.85 1.097 3.63 2.338 5.68 3.008 1.07.352 3.14.666 4.1-.212 1.88-1.722-.88-3.389-2.17-4.176-1.91-1.158-3.73-2.34-5.76-3.273-.28-.13-.56-.263-.85-.392-.07-.078-.15-.148-.23-.228-.56-.636-.46-1.632.2-2.103 5.11.646 10.01 2.486 15.17 2.853 2 .142 3.76-2.031 2.35-3.782-.92-1.142-2.86-1.161-4.17-1.468-.88-.206-1.77-.399-2.64-.63-2.25-.6-4.6-1.12-6.8-1.885-.32-.114-.64-.365-.8-.668 4.88-.798 9.75-1.633 14.61-2.548 1.32-.25 2.36-1.345 2.21-2.76Z"/>
    <path fill="#FFCB0F" d="M138.631 414.619a27.434 27.434 0 0 1-.677-1.153c-.092-.179-.187-.357-.278-.537-.414-.81-.808-1.63-1.212-2.445-.863-1.737-1.765-3.476-2.942-5.025-.791-1.042-2.409-1.421-3.49-.572-1.042.818-1.417 2.377-.572 3.489.235.309.455.628.67.95l2.955 5.636c.143.391.27.789.368 1.188.218.893-.444 1.804-1.364 1.793-.166-.004-.328-.038-.492-.064a276.6 276.6 0 0 0-4.901-4.537c-1.949-1.75-3.932-3.861-6.401-4.865-1.21-.492-2.796-.02-3.301 1.267-.482 1.228-.03 2.773 1.267 3.301.176.071.343.158.512.241.87.783 1.784 1.527 2.639 2.316 1.711 1.581 3.547 3.136 5.135 4.837.119.127.218.286.29.454-4.479-1.71-9.091-3.091-13.646-4.563-1.285-.415-2.71-.061-3.301 1.267-.182.409-.275 2.152.14 2.471 1.93 1.48 5.106 1.882 7.456 2.423 2.027.467 4.243 1.45 6.116 2.39 1.189.596 1.776.876 1.336 2.232-1.487-.017-3.053-.657-4.544-.836-2.027-.244-4.12-.177-6.121-.459-1.341-.189-3.081-.513-4.252.433-.816.66-1.284 2.609-.38 3.429.925.838 3.452.668 4.631.845 2.127.319 4.276.629 6.413.893 3.156.389 6.848 1.261 9.532 3.031.446.294.88.655 1.088 1.155.179.432.22.845.166 1.242-3.196 2.29-6.075 5.063-8.886 7.8-.94.915-.654 2.772.344 3.52 1.185.888 2.513.635 3.519-.344l.866-.838c1.983-1.475 4.216-2.291 6.567-2.919 4.852-1.296 7.949-.655 10.993-4.848 2.296-3.161 6.644-8.697 6.647-12.764.006-7.12-8.795-7.589-12.89-11.834Z"/>
    <path fill="#E6E89F" d="m1270.48 122.199-6.22 1.134-.75.137c-.26.047-.56.164-.77-.047-.16-.152-.26-.395-.36-.579-.15-.243-.29-.485-.43-.728-.55-.929-1.1-1.858-1.64-2.787-.1-.174-.39-.192-.49 0a17.616 17.616 0 0 0-1.59 4.678l-6.6 2.635c-.23.093-.3.478 0 .544 1.98.434 4 .642 6.03.636a59.175 59.175 0 0 0-2.66 7.172c-.06.201.14.413.35.347 1.63-.524 2.66-1.908 3.71-3.172.27-.328.55-.652.85-.957.18-.191.4-.441.69-.472.25-.027.52.097.75.187.86.341 1.63.872 2.44 1.303.86.456 1.79.808 2.78.697.17-.019.34-.167.27-.357a29.325 29.325 0 0 0-2.29-4.965 17.53 17.53 0 0 0 6.21-4.934c.17-.223.01-.524-.28-.472Zm86.95 110.483c-2.08.378-4.15.756-6.23 1.133l-.75.138c-.25.046-.56.163-.77-.047-.15-.152-.25-.396-.36-.58-.14-.242-.28-.485-.43-.727-.54-.929-1.09-1.858-1.64-2.788-.1-.174-.39-.192-.48 0a17.267 17.267 0 0 0-1.59 4.678l-6.6 2.635c-.24.094-.3.479 0 .545 1.98.433 4 .642 6.02.636a60.848 60.848 0 0 0-2.65 7.172c-.06.2.14.412.34.347 1.63-.525 2.67-1.909 3.72-3.172.27-.328.55-.652.84-.958.19-.19.41-.441.69-.471.25-.027.53.096.75.187.86.341 1.63.871 2.45 1.303.86.456 1.79.807 2.78.696.16-.018.33-.167.27-.357a30.125 30.125 0 0 0-2.29-4.965 17.57 17.57 0 0 0 6.2-4.933c.18-.223.02-.525-.27-.472ZM123.31 51.08l-6.222 1.134-.753.137c-.257.047-.56.164-.771-.047-.152-.152-.252-.395-.36-.58l-.428-.727-1.64-2.787c-.103-.175-.389-.193-.487 0a17.425 17.425 0 0 0-1.588 4.678l-6.602 2.635c-.235.093-.3.478 0 .544 1.98.434 4 .642 6.026.636a60.002 60.002 0 0 0-2.656 7.172c-.06.2.143.413.347.347 1.629-.524 2.663-1.908 3.713-3.172.273-.328.551-.652.848-.957.186-.19.404-.442.686-.472.25-.027.526.097.754.187.859.341 1.628.872 2.442 1.303.861.456 1.79.808 2.779.697.168-.019.339-.167.272-.357a29.807 29.807 0 0 0-2.287-4.966 17.559 17.559 0 0 0 6.201-4.933c.177-.223.016-.524-.274-.472Z"/>
    <path fill="#FFCB0F" d="m86.02 433.354-6.221 1.133-.753.137c-.257.047-.56.164-.77-.046-.153-.153-.253-.396-.361-.58l-.428-.727-1.64-2.788c-.103-.174-.39-.192-.487 0a17.427 17.427 0 0 0-1.588 4.678l-6.602 2.635c-.235.094-.3.479 0 .544 1.98.434 4 .643 6.026.637a60.078 60.078 0 0 0-2.656 7.171c-.06.201.142.413.347.347 1.63-.524 2.663-1.908 3.713-3.171.273-.328.55-.652.848-.958.186-.19.404-.441.686-.471.25-.027.526.096.754.187.859.341 1.628.871 2.442 1.302.86.457 1.79.808 2.78.697.167-.019.338-.167.271-.357a29.79 29.79 0 0 0-2.287-4.965 17.567 17.567 0 0 0 6.201-4.934c.177-.222.016-.524-.274-.471Zm1224.15 513.281c-1.19-1.217-2.37-2.434-3.56-3.651a35.576 35.576 0 0 0 3.42-4.48c.11-.171-.03-.466-.24-.439-1.84.237-3.63.745-5.33 1.532-.41.19-.9.484-1.36.346-.45-.132-.8-.618-1.11-.942l-2.16-2.223a.276.276 0 0 0-.47.206c.02 1.358.04 2.716.07 4.074l-2.85-.119c-.25-.01-.35.322-.19.498.63.698 1.27 1.396 1.91 2.094a45.601 45.601 0 0 1-4.07 2.054c-.26.113-.27.608.07.572l6.16-.631c-.03 2.137-.02 4.291.49 6.374.08.304.44.246.54 0a45.257 45.257 0 0 0 2.14-7.144c2.11.73 4.2 1.517 6.27 2.366.27.11.46-.296.27-.487Z"/>
    <path fill="#F64E33" d="M1049.17 85.823c.17-.17.35-.34.53-.51.35-.341.71-.682 1.06-1.022.74-.708 1.47-1.415 2.21-2.122.18-.173-.02-.422-.22-.39l-4.86.807c-.35.058-.84.24-1.12-.078-.25-.288-.42-.693-.61-1.024l-1.29-2.211c-.09-.166-.36-.144-.4.055l-1.32 5.75v.085c-1.69.306-3.32.869-4.85 1.685-.18.096-.12.365.05.425l2.58.907 1.29.453c.15.053.5.112.61.253.11.149.03.466.01.636-.17 1.652-.72 3.334-.07 4.946.07.173.3.128.39 0a55.965 55.965 0 0 0 3.33-6.013l6.09 2.833c.22.105.44-.16.27-.365-.67-.767-1.33-1.534-2-2.3l-.96-1.108c-.31-.36-.65-.708-.94-1.09-.2-.264.03-.422.22-.602ZM267.256 991.492a174.538 174.538 0 0 0-2.348-24.35c-.998-5.943-3.525-11.208-7.639-15.693-5.149-5.614-11.746-8.709-18.302-11.235-5.25-2.024-10.607-3.764-16.096-4.358-5.119-.554-10.281-.104-15.417.345-8.479.743-17.096 1.521-25.082 5.246-8.278 3.861-14.788 10.594-19.663 18.208-5.434 8.486-10.354 18.334-13.035 28.034-1.58 5.716-2.959 11.593-2.623 17.511.335 5.92 2.596 11.97 7.194 15.72.541.44 1.138.86 1.827.97 1.609.26 4.535-1.86 5.829-2.78 2.145-1.51 2.755-3.21 2.022-6.02-8.352-31.976 20.275-57.345 49.732-58.688 13.696-.625 29.537 2.995 36.129 16.452 3.191 6.515 4.198 13.867 4.942 21.023.38 3.65 1.136 7.62.878 11.323-.356 5.1-2.006 11.93-.636 16.9.65 2.36 2.666 4.52 5.109 4.51 1.992-.01 3.754-1.45 4.696-3.21.943-1.75 1.216-3.78 1.44-5.76a174.518 174.518 0 0 0 1.043-24.148Z"/>
    <path fill="#FFCB0F" d="M258.921 1014.35c-2.847-20.392 2-46.918-13.337-60.927-6.155-5.622-13.863-8.124-21.512-8.861-7.649-.736-15.346.175-23.016.76-12.869.983-27.017 8.166-34.855 21.735-4.399 7.616-7.001 16.597-8.909 25.643-.939 4.451-1.726 9.12-.959 13.6.942 5.49 5.558 10.82 10.054 11.61 3.764.65 8.842-2.01 8.564-7.55-.617-12.263-1.066-25.509 9.204-34.012 8.254-6.835 20.581-11.187 30.815-13.612 33.552-7.949 26.798 32.117 29.686 52.804 1.284 9.2 15.56 8.09 14.265-1.19Z"/>
    <path fill="#57B4F7" d="M216.081 953.176c-3.393.113-6.827.514-10.371.946-7.873.962-14.853 1.542-21.804 6.153-16.647 11.043-19.563 34.163-19.609 51.675-.027 10.24 16.942 8.94 16.969-1.26.019-7.46-.397-19.048 4.313-25.521 5.091-6.997 19.192-11.002 27.389-13.857 4.461-1.554 8.502-.439 12.657 2.657 3.062 2.281 5.809 3.394 6.799 6.808 2.884 9.948 3.229 20.983 2.645 31.203-.185 3.25 1.572 6.08 4.317 7.72 1.357.81 2.924.78 4.256 1.42 1.585.77 2.072 2.07 3.982 1.33 1.107-.42 2.624-2.6 3.177-3.68 2.146-4.17 1.513-10.12 1.337-14.63-.311-7.942-.155-16.099-1.367-23.953-1.736-11.247-8.448-20.356-19.186-24.612-5.234-2.074-10.321-2.572-15.504-2.399Z"/>
    <path fill="#FF7C69" d="M216.046 963.171c-.933-.067-1.867-.126-2.799-.186-4.501-.286-9.068-.567-13.48.371-10.625 2.259-17.821 11.89-22.876 20.871-5.231 9.296-8.253 19.863-8.414 30.543-.048 3.21 4.13 3.39 6.446 4.09 1.74.53 2.89 1.27 4.839 1.03 3.881-.46 6.826-3.6 6.844-7.54.032-6.79-.294-17.352 3.677-23.259 4.294-6.386 16.155-10.064 23.049-12.682 3.754-1.425 7.148-.418 10.634 2.395 2.569 2.072 4.876 3.081 5.701 6.19 2.404 9.058 2.671 19.106 2.16 28.426-.212 3.87 5.183 11.27 9.385 7.26 1.184-1.13 1.641-2.8 2.023-4.39 2.588-10.77 4.03-22.053 1.788-32.895-.754-3.647-1.954-7.275-4.167-10.271-3.013-4.078-7.697-6.672-12.568-8.08-3.975-1.148-8.107-1.579-12.242-1.873Z"/>
    <path fill="#77E6AC" d="M212.133 972.649c-3.494-.216-6.973-.011-10.29 1.062-7.799 2.522-12.103 8.836-15.963 15.579-4.548 7.945-7.184 16-7.821 25.23-.058.85-.098 1.71.153 2.52.518 1.67 2.201 2.76 3.916 3.08 1.284.24 4.014.4 5.203-.15 1.771-.83 1.64-2.14 2.163-4.33 1.843-7.7 4.23-15.51 8.206-22.402 2.99-5.183 7.581-10.718 14.065-10.912 3.438-.102 6.937 1.277 9.271 3.819 2.614 2.847 3.682 6.737 4.094 10.493.473 4.312.11 8.702-.563 12.982a80.217 80.217 0 0 1-1.725 8.13c2.292 2.59 11.495 5.7 13.517 1.74.894-1.75.695-3.83.632-5.8-.203-6.29 1.213-12.53 1.253-18.83.04-6.295-1.631-13.115-6.592-16.991-3.298-2.577-7.567-3.488-11.691-4.207-2.577-.45-5.207-.85-7.828-1.013Z"/>
    <path fill="#1D6FAB" d="M233.752 990.73c-.502-.053-1.101.281-1.138.84l-.346 5.18c-.034.52.272 1.078.84 1.138.502.053 1.101-.281 1.138-.84l.346-5.179c.034-.521-.272-1.078-.84-1.139Z"/>
    <path fill="#FF7C69" d="M84.182 938.103c-2.061-3.741-6.943-4.986-10.898-3.817-3.425 1.012-5.726 3.481-7.326 6.423-1.35-2.829-3.295-5.271-6.454-6.497-4.345-1.686-8.902.209-10.689 4.471-2.648 6.32 1.767 13.028 4.515 18.49.729 1.45 10.407 16.856 11.01 16.297a89.464 89.464 0 0 0 17.34-22.128c2.116-3.817 4.838-8.999 2.502-13.239Zm51-789c-2.061-3.741-6.943-4.986-10.898-3.817-3.425 1.012-5.726 3.481-7.326 6.423-1.349-2.829-3.295-5.271-6.454-6.497-4.345-1.686-8.902.209-10.689 4.471-2.648 6.32 1.767 13.028 4.515 18.49.729 1.45 10.407 16.856 11.01 16.297a89.483 89.483 0 0 0 17.34-22.128c2.117-3.817 4.838-8.999 2.502-13.239Z"/>
    <path fill="#F64E33" d="M1130.74 1005.14c-1.84-5.159-.26-11.136 4.95-14.436 4.6-2.907 11.09-2.388 15.16 1.214-1.23-4.802-1.11-10.16 1.44-14.409 2.55-4.249 7.91-6.979 12.65-5.507 2.45.762 4.48 2.506 6.16 4.444 5.79 6.672 5.1 13.3 4.89 21.659-.16 6.305.38 14.845-1.47 20.825-2.06 6.66-13.25 1.08-18.23.09-7.63-1.52-16.72-3.25-22.44-8.98a13.121 13.121 0 0 1-3.11-4.9ZM129.72 282.351c-.237-1.508-.355-3.039-.063-4.53 1.063-5.424 7.884-8.506 13.016-6.452 5.132 2.053 7.996 8.1 7.256 13.578.639-5.098 4.322-8.257 9.142-9.242 1.271-.26 2.573-.475 3.861-.321 4.814.578 7.631 6.304 6.768 11.075-.863 4.771-4.296 8.63-7.792 11.99-5.694 5.473-12.103 10.983-19.053 14.785-6.117-9.127-10.872-18.72-12.936-29.745a38.605 38.605 0 0 1-.199-1.138Z"/>
    <path fill="#FFCB0F" d="M165.044 287.68c-.62-.244-1.141.029-1.466.562.118-.193-.006.009-.03.047a15.415 15.415 0 0 1-.417.633 19.326 19.326 0 0 1-2.668 3.114l-.073.067-.188.168a19.775 19.775 0 0 1-2.077 1.603c-.483.325-.617 1.089-.254 1.55.381.486 1.034.601 1.549.254 2.528-1.698 4.605-3.939 6.187-6.532.304-.498-.054-1.267-.563-1.466Zm-5.527-1.005c-.479-.359-1.172-.33-1.563.152l-3.091 3.815c-.366.451-.33 1.203.153 1.564.479.358 1.171.33 1.563-.153l3.091-3.815c.365-.451.329-1.202-.153-1.563Zm-21.197 3.897a55.7 55.7 0 0 1-2.96-12.005c-.186-1.415-2.395-1.179-2.208.244a58.39 58.39 0 0 0 3.095 12.557c.495 1.344 2.568.547 2.073-.796Zm5.672 12.754a15.902 15.902 0 0 1-2.028-2.851c-.175-.368-.369-.726-.532-1.1-.233-.532-.867-.885-1.435-.639-.531.231-.887.866-.639 1.435a16.822 16.822 0 0 0 2.83 4.45c.204.23.42.403.736.451.264.04.6-.029.814-.197.432-.339.666-1.086.254-1.549Zm6.245-3.178a.82.82 0 0 0-.233-.355.835.835 0 0 0-.352-.261c-.267-.105-.578-.14-.849-.023-.277.121-.48.312-.617.585l-.766 1.534a.829.829 0 0 0-.087.43.834.834 0 0 0 .064.42.844.844 0 0 0 .233.355c.093.117.21.204.352.261.268.105.578.14.85.022.277-.12.48-.311.616-.585l.767-1.533a.83.83 0 0 0 .087-.43.824.824 0 0 0-.065-.42Zm-4.707-18.721c-.613-.065-1.152.32-1.264.932l-.767 4.218c-.104.572.349 1.202.933 1.264.613.065 1.152-.319 1.264-.932l.767-4.218c.104-.572-.349-1.202-.933-1.264Z"/>
    <path fill="#1D6FAB" d="M1207.12 96.725c4.37-.38 11.17-2.597 11.01-8.334-.02-.66-.19-1.303-.36-1.94-1.09-4.012-2.3-7.999-3.91-11.83-.72-1.715-1.6-3.484-3.15-4.5-3.79-2.467-15.54 4.453-19.25 6.3-5.35 2.674-10.11 5.845-14.87 9.302-4.54 3.304-10.22 5.054-15.28 7.432-5.33 2.5-10.56 5.593-14.18 10.224 19.98-3.048 39.89-4.906 59.99-6.654Z"/>
    <path fill="#57B4F7" d="M1210.86 88.57c-4.65.658-9.32 1.137-13.96 1.881-9.12 1.465-44.28 9.808-43.88 9.573 3.34-1.948 23.1-9.492 26.58-11.182 6.21-3.025 12.47-5.952 18.65-9.049 3.16-1.58 6.32-3.145 9.55-4.568 1.19-.522 4.46-1.2 5.24-2.161.77-.965.16-1.569.44-2.849 1.45-6.713.62-14.798-.03-21.572-.11-1.21-.26-2.45-.8-3.535-.55-1.085-1.6-2-2.81-2.058-.78-.037-1.52.271-2.22.612-2.64 1.29-4.98 3.115-7.3 4.925-21.61 16.898-43.7 33.065-62.76 52.925-1.19 1.239-3.25 3.188-2.7 5.068.52 1.811 2.75 2.24 4.39 2.338 20.92 1.261 41.87 1.823 62.77 3.426 5.36.412 10.53.388 15.89.231 4.76-.14 9.41.47 14.17-.682-1.07-4.504-3.54-8.528-5.98-12.464-1.85-2.995-3.81-8.162-6.45-10.444-2.57-2.216-5.28-.912-8.79-.415Z"/>
    <path fill="#171714" d="M1216.78 86.314c-6.03.434-12.01 1.227-17.94 2.378-1.25.243-1.05 2.234.22 1.988a151.25 151.25 0 0 1 17.93-2.378c1.29-.093 1.07-2.08-.21-1.988Zm-3.87 13.066-6.56-.345c-.54-.028-1.05.269-1.14.84-.07.494.3 1.11.84 1.138l6.56.345c.54.029 1.06-.268 1.14-.839.08-.495-.3-1.11-.84-1.139Zm3.2 4.48c-2.11.444-4.2.453-6.3.019-.53-.109-1.06.326-1.14.84-.09.558.31 1.029.84 1.138 2.24.462 4.58.462 6.82-.009.53-.111.95-.53.88-1.104-.05-.497-.57-.996-1.1-.884Zm-15.14-42.94c-.43-.32-1.07-.302-1.41.138l-3.8 4.834c-.32.41-.3 1.08.14 1.408.42.32 1.06.302 1.4-.138 1.27-1.611 2.54-3.223 3.8-4.834.33-.411.3-1.08-.13-1.408Z"/>
    <path fill="#FFCB0F" d="M1229.97 161.822c4.16-2.215 9.53-2.307 13.25.551-.69-5.707 3.64-11.567 9.29-12.594 5.66-1.027 11.77 2.937 13.13 8.521-.38-7.21 3.96-14.371 10.4-17.647 6.43-3.276 14.59-2.658 20.64 1.28 6.45 4.197 9.86 11.411 10.26 18.863 4.88.419 9.32 1.585 13.11 4.894 6.68 5.85 10.46 16.307 4.85 24.755-4.89 7.378-14.29 9.003-21.69 6.205-2.96 6.708-9.78 10.855-16.78 12.216-6.49 1.261-15.58.998-21.17-2.771-4.17-2.817-7.08-7.454-7.78-12.442-6.34 1.999-13.02 3.449-19.61 2.6-7.25-.933-15.73-5.434-17.17-13.2-1.29-6.943 1.75-15.607 7.34-19.977.6-.473 1.25-.892 1.93-1.254Z"/>
    <path stroke="#1B0512" stroke-linecap="round" stroke-miterlimit="10" stroke-width="2" d="M1306.96 175.019c-.77-2.093-2.23-3.984-4.23-4.988-1.99-1.004-4.52-1.011-6.37.238-1.85 1.249-2.79 3.813-1.93 5.871m-15.85 3.074c-2.97 2.517-7.8 2.467-10.73-.11m-17.38.165c.47-1.582-.07-3.357-1.15-4.605-1.08-1.249-2.63-2.015-4.24-2.4-1.42-.342-3.05-.365-4.21.526-1.83 1.397-1.6 4.162-1.2 6.425"/>
    <path fill="#fff" d="M1298.29 194.555c-1.5 3.531-4.52 6.276-8.18 7.459-.52.166-.77.807-.58 1.292.2.528.78.741 1.29.575 4.14-1.334 7.6-4.517 9.3-8.513.5-1.183-1.32-2-1.83-.813Zm-17.09 8.071-2.93.518c-.26.046-.5.152-.67.359-.15.192-.26.495-.22.745.08.507.56.982 1.11.884.98-.172 1.95-.345 2.93-.518.26-.045.5-.151.67-.359.15-.192.26-.495.22-.745-.08-.507-.56-.981-1.11-.884Zm-7.58-55.679c-.52-.23-1.08.024-1.32.507a21.755 21.755 0 0 0-2.34 8.535c-.04.539.27 1.052.84 1.138.49.076 1.1-.298 1.13-.839.18-2.808.92-5.515 2.19-8.021.25-.481-.03-1.108-.5-1.32Zm5.86.372c-.09-.229-.29-.464-.53-.555-.24-.094-.52-.126-.76-.02-.23.101-.47.279-.56.527-.28.806-.57 1.612-.86 2.417-.09.254-.12.508-.02.765.09.229.29.464.53.556.24.094.52.126.76.02.23-.101.47-.279.56-.527.28-.806.57-1.612.86-2.417.09-.254.12-.508.02-.766Zm-21.53 8.064c-1.37-1.967-3.91-3.055-6.27-2.632-.52.092-.97.545-.89 1.104.08.506.56.982 1.11.884.23-.042.46-.07.7-.08.06-.002.13-.001.19-.004l.02.001c.11.008.23.015.35.029.23.027.46.07.69.127.03.008.05.01.07.012l.09.034a5.881 5.881 0 0 1 1 .449c.03.017.05.024.05.026.03.023.07.049.08.062.1.066.2.136.29.208.1.081.2.165.3.253.04.035.07.07.11.107.01.008.04.039.07.066.02.021.04.049.05.056.04.05.09.099.13.15.08.102.16.208.23.315.3.431.98.559 1.4.229.43-.34.54-.936.23-1.396Zm-25.72 10.104c-4.79 1.741-8.02 6.583-7.93 11.651.01.54.6.94 1.1.884.58-.064.9-.562.89-1.103-.07-4.175 2.76-8.149 6.66-9.565 1.21-.441.49-2.307-.72-1.867Zm89.12 16.424c-.59-.062-1 .296-1.14.84-.36 1.378-.71 2.757-1.07 4.136-.13.507.34 1.085.84 1.138.58.062 1-.296 1.14-.84.35-1.378.71-2.757 1.07-4.135.13-.508-.35-1.086-.84-1.139Z"/>
    <path fill="#FFA649" d="M1306.41 181.387c-.64-.949-1.85-1.326-2.94-1.401-1.61-.11-3.26.088-4.84.387-.39.074-.72.335-.84.695-.31.21-.56.516-.74.851-.11.221-.17.461-.2.706-.34.399-.29 1.079.12 1.4.05.036.1.058.15.092.04.076.08.152.13.221.15.21.41.366.67.405.08.013.18-.001.28-.013 2.06.899 4.46.507 6.6-.177.63-.201 1.33-.376 1.73-.941.49-.681.32-1.57-.12-2.225Zm-53.12 4.494c-.69-1.776-2.54-2.378-4.29-2.553-1.26-.127-2.55-.22-3.76.089-.78.165-1.55.447-2.26.841-.63.348-.44 1.174-.05 1.585 2.55 2.691 6.57 2.305 9.79 1.33.51-.156.76-.817.57-1.292Z"/>
    <path stroke="#57B4F7" stroke-linecap="round" stroke-miterlimit="10" stroke-width="2" d="M1027.53 3.764c1.98 21.42 3.78 43.963-5.05 63.578-2.95 6.566-7.09 12.776-8.2 19.892-2.04 13.164 7.52 26.229 19.83 31.308 14.82 6.112 42.69 4.355 57.46-2.313 17.19-7.761 30.6-22.523 40.12-38.49 9.62-16.156 15.81-34.088 21.64-51.968"/>
  </g>
  <defs>
    <clipPath id="a">
      <path fill="#fff" d="M0 0h1440v1002H0z"/>
    </clipPath>
  </defs>
</svg>
