<svg xmlns="http://www.w3.org/2000/svg" width="896" height="501" fill="none" viewBox="0 0 896 501">
  <mask id="a" width="901" height="501" x="0" y="0" maskUnits="userSpaceOnUse" style="mask-type:luminance">
    <path fill="#fff" d="M900.379.31h-900v500.001h900v-500Z"/>
  </mask>
  <g mask="url(#a)">
    <path fill="#55B01C" d="M550.748 472.107c-.618-2.381-3.684-2.215-5.923-1.724-2.622.574-5.002 1.801-6.978 3.327-1.995 1.541-3.562 3.391-4.874 5.368-.006-7.365.041-14.73.184-22.094.199-10.325.554-20.648 1.048-30.966.099-2.059-3.748-2.574-3.848-.486-.551 11.517-.904 23.04-1.097 34.565a18.092 18.092 0 0 0-.608-.715 32.78 32.78 0 0 0-6.334-5.457c-1.155-.766-2.718-1.509-4.125-.681-.948.558-1.2 1.59-1.045 2.499.174 1.016.782 1.882 1.463 2.717a18.433 18.433 0 0 0 2.66 2.621c.276.224.581.421.873.632.16.363.35.721.609 1.062.963 1.271 2.579 2.108 4.325 2.408.545.46 1.103.911 1.688 1.34.117.087.248.14.383.177-.05 4.661-.072 9.323-.063 13.985.001.495.011.991.013 1.487a87.107 87.107 0 0 0-4.908-7.148c-2.444-3.19-5.571-6.88-9.846-8.5-1.531-.58-3.641-.823-4.98.206-1.841 1.416-.563 3.611.27 5.171 2.095 3.926 5.114 7.444 8.439 10.706 1.834 1.799 3.762 3.529 5.708 5.243 1.512 1.333 3.216 2.649 5.388 2.896.17 15.073.634 30.144 1.427 45.204.466 8.851 1.064 17.697 1.745 26.538-.185.086-.328.239-.322.461l.843 30.717c.017.646 1.197.527 1.193-.109l-.046-6.875c.078.772.136 1.545.224 2.317.074.644 1.232.53 1.193-.11l-.056-.929c.357.117.87-.072.861-.499-.015-.703-.054-1.404-.076-2.107l.01.132c.205 2.894.383 5.788.535 8.684.015.28.247.409.501.422.031 1.768.046 3.537.037 5.306-.003.642 1.19.529 1.193-.109a228.944 228.944 0 0 0-2.122-32.203c.169-.251.265-.553.236-.909a1098.3 1098.3 0 0 1-3.068-54.683c-.243-7.813-.383-15.627-.458-23.442.15-.002.299-.012.445-.031 1.269-.171 2.426-.857 3.489-1.422a38.645 38.645 0 0 0 6.419-4.299 33.395 33.395 0 0 0 5.112-5.218c1.231-1.577 2.779-3.485 2.263-5.475Zm-25.441 14.199a151.054 151.054 0 0 1-4.391-4.003c-2.724-2.601-5.288-5.34-7.351-8.341-1.006-1.462-2.269-3.22-2.671-4.89-.296-1.226.822-1.186 1.934-.855-.791.064-1.382.888-.892 1.591.266.381.545.756.817 1.135 2.643 5.931 7.206 11.125 13.096 15.05.861.824 1.733 1.64 2.625 2.442.1.091.218.16.344.213-1.395-.393-2.538-1.485-3.511-2.342Zm-5.8-31.195c.01-.09.019-.17.04-.197.008-.011.044-.022.058-.028.455-.015.959.43 1.285.648.216.144.422.299.634.447-.646.082-1.218.603-1.062 1.167-.084-.104-.177-.203-.258-.31-.387-.512-.763-1.102-.697-1.727Zm14.966 30.917c-.194.094-.994.454-1.477.52-.002-.246-.007-.491-.009-.737.171-.177.363-.347.51-.507.146-.159.297-.315.445-.473.219.157.511.266.882.295.171.014.34-.002.507-.028.207.063.428.099.655.118-.501.275-.996.559-1.513.812Zm10.123-7.395-.019.019c-.489.473-1.039.907-1.614 1.317.467-.468.907-.951 1.327-1.45a17.226 17.226 0 0 0 2.071-2.278 8.681 8.681 0 0 1-1.765 2.392Zm3.276-5.996a1.487 1.487 0 0 0-.237-.622c.29.027.543.11.688.301.145.192.186.419.181.659a2.597 2.597 0 0 0-.632-.338Z"/>
    <path fill="#FFCB0F" d="M584.889 406.794c-2.672-1.908-6.254-2.904-9.614-3.628-5.242-1.128-10.727-1.363-16.078-.749 2.207-1.507 4.211-3.219 5.941-5.112 3.093-3.384 6.226-7.755 5.218-12.189-.914-4.02-5.439-7.021-10.112-7.753-5.205-.815-10.51.784-14.781 3.207-4.093 2.322-7.54 5.392-10.096 8.916-.316-3.229-.965-6.428-2.661-9.378-1.954-3.397-5.686-6.416-10.182-7.274-4.56-.87-9.102.741-12.043 3.681-3.061 3.06-4.411 6.978-4.084 10.927.264 3.179 1.387 6.203 2.814 9.135-6.475-1.771-13.29-2.247-19.094 1.518-3.414 2.215-5.761 5.605-5.099 9.294.769 4.28 5.219 7.353 9.968 8.576 3.346.862 6.835.798 10.283.349a37.053 37.053 0 0 0-4.378 2.981c-2.155 1.273-4.072 2.787-5.522 4.677-3.003 3.915-3.664 9.087.092 12.835 1.034 1.031 2.26 1.871 3.603 2.531a10.384 10.384 0 0 0 4.048 1.691c1.289.24 2.557.259 3.789.112 2.423.102 4.746-.394 6.913-1.231 4.593-1.524 8.48-4.296 11.744-7.393a65.78 65.78 0 0 0 2.384-2.401c.513 4.15 1.502 8.267 3.055 12.211 2.238 5.68 6.223 11.213 13.145 13.55 5.868 1.982 12.348.779 16.44-3.295 3.944-3.926 5.336-9.327 3.988-14.288-.704-2.592-2.01-4.986-3.692-7.205.873.232 1.762.425 2.664.565 6.131.946 12.238-.388 17.041-3.693 4.659-3.207 7.691-8.101 7.909-13.15.129-2.98-.798-6.014-3.603-8.017Zm-27.361 25.947c.565.729 1.01 1.52 1.357 2.351a1.844 1.844 0 0 0-1.019.181 27.964 27.964 0 0 0-.475-1.864.98.98 0 0 0-.308-.466c.164-.045.311-.115.445-.202Zm-2.049-.255c.049.072.117.121.179.178a1.376 1.376 0 0 0-.715.404l-.279-1.735c.28.38.553.764.815 1.153Zm-1.348 3.359a1.176 1.176 0 0 0-.113.397c-.059.619-.141 1.235-.221 1.852a13.79 13.79 0 0 0-.324-2.321c.215.059.441.084.658.072Zm-2.848-9.877c.109.099.227.191.338.289-.256.2-.422.466-.372.778l.057.356a1.278 1.278 0 0 0-.095.193 54.266 54.266 0 0 0-1.334-1.914c.465.107.934.207 1.406.298Zm.326 7.303c-.202-.004-.4.03-.587.092l-.541-2.096a49.49 49.49 0 0 1 1.128 2.004Zm-2.063 3.438c.034.354.267.631.591.803-.101.328-.196.658-.292.988l-.659 1.731-.222-4.123c.123.288.332.485.582.601Zm-1.999-4.497.518 1.431a1.75 1.75 0 0 0-.583-.107l.065-1.324Zm-45.404-4.521c.32.004.658-.093.967-.337.044-.034.091-.066.135-.101a.931.931 0 0 0-.123.284l-.929 1.22c-.011-.355-.023-.71-.05-1.066Zm-2.685-1.937a9.01 9.01 0 0 0-1.264 2.456c-.277.438-.462.9-.587 1.37.254-1.782 1.161-3.53 2.474-5.093.076-.09.164-.173.242-.261-.025.399.233.778.621 1.003-.522-.122-1.116.016-1.486.525Zm-.885 8.186c1.025 1.325 2.61 2.194 4.372 2.636-.023.084-.054.166-.076.25-.211.808.667 1.65 1.689 1.377a21.49 21.49 0 0 0 2.489-.831c.212.679 1.249 1.14 2.027.715a30.861 30.861 0 0 0 1.988-1.196c.366-.019.73-.06 1.09-.127-1.569 1.023-3.319 1.813-5.245 2.099-3.291-.196-6.281-1.792-8.024-4.225a7.433 7.433 0 0 1-.848-1.537c.152.287.328.568.538.839Zm27.548-23.354c.844-.451 1.684-.906 2.536-1.346l-2.294 2.064c-.375.233-.755.461-1.134.69.395-.456.704-.925.892-1.408Zm4.828 21.418a53.067 53.067 0 0 1-.533-4.57l.285-.315c.086 1.068.187 2.136.332 3.202a20.883 20.883 0 0 0-.084 1.683Zm28.878 17.59c-2.875 3.919-8.044 5.888-13.424 4.555-4.247-1.053-7.378-3.593-9.63-6.636a22.872 22.872 0 0 0 4.998 4.285c1.826 1.153 3.902 2.023 6.2 2.247 1.366.134 2.715-.004 4.005-.329 2.487-.285 4.718-1.438 6.162-3.111a26.742 26.742 0 0 0 2.194-1.792c.024-.021.044-.044.067-.066-.178.286-.367.569-.572.847Zm4.3-40.583a31.167 31.167 0 0 0-.723-.732l1.443.197c-.326.092-.57.29-.72.535Zm16.591 2.584a4.57 4.57 0 0 1-.596-.973 10.708 10.708 0 0 1 1.701 1.949.959.959 0 0 0-.199.401c-.015.067-.036.132-.052.198a1.602 1.602 0 0 0-1.011-.27c.398-.308.567-.781.157-1.305Zm-.94-4.768a16.03 16.03 0 0 1 1.622.704c-.327.096-.638.195-.944.289-1.293-.856-2.74-1.544-4.271-2.088 1.226.308 2.435.661 3.593 1.095Zm-3.993 10.721c-.119.155-.227.316-.343.473-.037-.008-.072-.02-.111-.025l-1.19-.155 1.644-.293Zm-8.076-3.964c-.589-.992-1.298-1.937-2.024-2.818l1.723.267c-.779.532-.77 1.685.456 1.967l1.948.449c-.701.047-1.401.098-2.103.135Zm7.136 8.278c-.412.191-.83.37-1.259.525-.666.241-1.346.437-2.035.598a1.003 1.003 0 0 0-.294-.538l2.604-.422c1.006-.163 1.176-1.129.726-1.735l.103-.013c.363.416 1.085.619 1.718.395-.5.415-1.022.81-1.563 1.19Zm2.193-9.103-1.242-.286.679-.051c.235-.017.442-.085.622-.183-.022.173-.029.348-.059.52Zm2.337 10.088c.095-.163.143-.333.145-.502a21.025 21.025 0 0 0 2.382-2.126c-.68.961-1.575 1.835-2.527 2.628Zm6.37-7.441a8.565 8.565 0 0 0-.23-1.127c.09-.288.169-.583.237-.883.06.671.057 1.342-.007 2.01Z"/>
    <path fill="#F64E33" d="M558.531 404.869a.737.737 0 0 0-.085-.699c-2.252-3.403-4.924-6.753-8.861-8.952-3.516-1.965-7.673-3.023-11.904-3.056-8.328-.064-16.009 4.263-19.341 10.592-3.628 6.892-1.25 15.536 4.794 20.981 3.233 2.913 7.401 3.962 12.052 4.19 4.668.228 9.192-.357 13.286-2.302 6.234-2.961 9.944-8.348 10.394-14.042.01-.052.024-.104.033-.156.391-2.198.236-4.404-.368-6.556Zm-23.183-2.307c.198-.146.405-.283.607-.426.036.13.07.262.115.388-.209.112-.414.231-.615.356a.76.76 0 0 0-.107-.318Zm13.231 6.091c.011-.016.023-.03.033-.046l-.001.327c-.028.256-.041.515-.088.768-.072.007-.144.013-.219.033-.051.014-.097.035-.147.049l.422-1.131Zm4.048.105c.149.226.292.454.444.678a21.205 21.205 0 0 1-.781 3.207c.026-.748.011-1.495-.041-2.241.15-.543.282-1.09.378-1.644Zm-13.911 9.425c.297-.054.59-.123.879-.202l-.041.519c-.489.243-.988.475-1.504.684.228-.331.452-.664.666-1.001Zm9.856-.787c.025.335.062.669.109 1.001a11.639 11.639 0 0 1-3.182 2.057 22.101 22.101 0 0 0 3.073-3.058Zm-10.408-20.849c.051.028.09.064.152.085l.1.034c-.141.077-.28.155-.42.233h-.074c-.607-.19-1.248-.071-1.878.21a15.09 15.09 0 0 0-.777.161 1.104 1.104 0 0 0-.719-.477 20.675 20.675 0 0 1 1.919-.382l1.697.136ZM532 416.762c.023.347.069.692.144 1.03-.088.11-.175.195-.255.218-.115.032-.204-.053-.275-.214.131-.344.26-.689.386-1.034Zm1.015 6.951c.466.171.939.328 1.421.457-.713-.081-1.411-.2-2.1-.337.227-.034.454-.074.679-.12Zm-.032-2.882c.475.059.978-.137 1.101-.631.366.073.771.004 1.012-.267.222-.248.423-.506.629-.762.07.064.15.119.239.161.079.587.36 1.102.981 1.457.164.094.336.148.511.182a8.617 8.617 0 0 1-1.574.301c-1.091.098-2.07-.07-2.899-.441Zm22.941-16.961c-.272.2-.418.509-.259.874a.915.915 0 0 0-.252.138c-1.137-2.635-2.7-5.073-5.095-7.027l-.117-.113c2.334 1.712 4.146 3.879 5.723 6.128Zm-30.916-.852c.036.586.763 1.11 1.433.749a15.76 15.76 0 0 0-.782 1.421c-.355-.723-1.798-.812-1.922.136a53.718 53.718 0 0 0-.276 2.734c-.164-.264-.476-.377-.81-.364a15.123 15.123 0 0 1 2.357-4.676Zm-6.352 6.243c.002.016.001.032.002.047.046.49.658.782 1.191.74l.001.01c-.155 2.38.028 4.738.547 7.061-1.222-2.489-1.84-5.216-1.741-7.858Zm19.966 17.01c-4.302.182-9.167-.178-12.596-2.558a16.94 16.94 0 0 1-3.353-3.086c.073-.012.134-.038.202-.055.467.602.991 1.174 1.594 1.696 2 1.732 4.677 2.669 7.455 3.175 4.671.851 9.641.731 14.091-.672-2.305.888-4.801 1.39-7.393 1.5Zm9.139-4.047a13.6 13.6 0 0 0 1.446-1.125c.059.081.131.156.216.22a19.02 19.02 0 0 1-1.662.905Zm8.17-8.116c.365-1.218.543-2.475.544-3.745a.7.7 0 0 0 .415-.282c.006.256.028.512.02.767a13.419 13.419 0 0 1-.979 3.26Zm-34.017-18.52a158.326 158.326 0 0 1 4.578 5.954c.161.22.329.456.492.686a.898.898 0 0 1 .268.147c1.441 1.194 3.137 2.124 4.757 3.135a.364.364 0 0 0 .029-.249c-2.297-9.581-7.372-18.434-12.436-27.175-.36-.623-1.574-.241-1.211.387 4.811 8.304 9.654 16.733 12.046 25.785-1.509-.972-2.425-2.72-3.366-3.992a157.278 157.278 0 0 0-4.442-5.726 164.838 164.838 0 0 0-9.948-11.141c-.526-.538-1.582.09-1.054.63a164.81 164.81 0 0 1 10.287 11.559Zm2.143 8.32a51.412 51.412 0 0 0-3.756-.746c-3.06-.475-6.12-.547-9.215-.722-6.163-.348-12.077-2.153-18.273-2.258-.821-.014-1.029 1.055-.194 1.069 6.094.103 11.91 1.862 17.966 2.24 2.991.186 5.964.226 8.929.651a51.34 51.34 0 0 1 6.872 1.478 197.315 197.315 0 0 1-26.707 3.95c-.831.065-.691 1.14.141 1.074a199.146 199.146 0 0 0 28.065-4.228c-1.309-.801-2.631-1.59-3.828-2.508Zm3.133 8.129-27.191 15.135c-.696.387.063 1.264.756.878l27.191-15.135c.696-.387-.063-1.264-.756-.878Zm4.515 3.539c-8.21 5.276-15.818 11.189-22.704 17.647-.556.521.448 1.206 1.001.687 6.815-6.391 14.335-12.235 22.459-17.456.661-.425-.094-1.304-.756-.878Zm13.971 31.016c-2.915-8.37-3.986-17.068-5.042-25.708-.084-.692-1.374-.576-1.289.118 1.067 8.736 2.173 17.515 5.12 25.977.233.669 1.442.277 1.211-.387Zm5.867-.921a266.935 266.935 0 0 1-7.86-23.334c-.191-.667-1.483-.559-1.29.118a270.101 270.101 0 0 0 7.939 23.603c.257.663 1.467.273 1.211-.387Zm4.937-8.089-8.115-14.254c-.356-.625-1.57-.243-1.211.387l8.115 14.254c.356.625 1.569.243 1.211-.387Zm15.214-16.038c-3.889.073-7.783.233-11.656-.155a51.03 51.03 0 0 1-11.242-2.426c-.772-.26-1.303.725-.528.987a52.596 52.596 0 0 0 11.576 2.508c3.983.399 7.991.236 11.991.16.834-.016.69-1.09-.141-1.074Zm5.25-7.073a193.91 193.91 0 0 1-25.363-.334c-.827-.065-1.029 1.004-.195 1.069 8.541.673 17.138.787 25.7.34.833-.044.691-1.118-.142-1.075Zm-12.142-27.625-9.946 9.23c-2.866 2.659-5.737 5.377-7.51 8.669-.342.635.842 1.076 1.184.44 1.77-3.286 4.685-5.97 7.544-8.623l9.73-9.029c.559-.519-.445-1.203-1.002-.687Zm-5.571-3.493c-6.833 5.012-13.044 10.587-18.516 16.65-.501.555.499 1.243 1.002.687 5.403-5.987 11.522-11.51 18.27-16.459.622-.456-.13-1.338-.756-.878Zm14.362 24.755a321.692 321.692 0 0 1-22.841 1.907c-.833.039-.691 1.114.142 1.074a322.251 322.251 0 0 0 22.84-1.906c.824-.099.688-1.174-.141-1.075Z"/>
    <path stroke="#171714" stroke-miterlimit="10" stroke-width="2" d="m812.508 101.831 6.35 27.704h8.466l9.172-28.791"/>
    <path stroke="#171714" stroke-miterlimit="10" stroke-width="2" d="M835.613 123.831 846.03 98.3l-44.448 1.086 1.728 4.742 10.773 27.308"/>
    <path fill="#1D6FAB" d="M834.982 136.395c.324-.807.642-1.615.968-2.42.435-1.077 1.831-7.918 2.081-10.269-.524-.014-1.048-.03-1.571-.045-.636.057-1.312.017-1.98-.057-8.52-.251-17.04-.53-25.566-.51.603 4.171.693 8.493 2.24 12.74.108.296 17.642.258 23.828.561Z"/>
    <path fill="#FFCB0F" d="M823.302 23.479c-50.377 0-54.531 28.74-48.039 48.022 4.181 12.418 16.895 26.252 28.463 34.947h39.672c11.374-8.695 23.501-22.529 27.971-34.947 6.922-19.235 3.463-48.023-48.067-48.023Z"/>
    <path fill="#F64E33" d="M823.357 23.479c-28.817 0-31.193 28.74-27.48 48.022 2.392 12.418 9.665 26.252 16.282 34.947h22.694c6.506-8.695 13.443-22.529 16-34.947 3.959-19.235 1.981-48.023-27.496-48.023Z"/>
    <path fill="#00C2CD" d="M823.419 23.479c-11.246 0-12.173 28.74-10.724 48.022.933 12.418 3.772 26.252 6.354 34.947h8.856c2.539-8.695 5.246-22.529 6.244-34.947 1.545-19.235.773-48.023-10.73-48.023Z"/>
    <path fill="#171714" d="m843.16 106.039-40.198-.357c-1.54-.014-1.266 1.974.264 1.988l40.197.357c1.541.014 1.267-1.974-.263-1.988Z"/>
    <path fill="#FFCB0F" d="M834.308 127.248a1.127 1.127 0 0 0-.632-.556c-.576-.188-1.348-.017-1.585.507-.411.914-.665 1.875-.691 2.852-.008.272.013.501.212.733.174.201.494.378.795.405.304.027.633-.015.88-.177.235-.154.479-.401.486-.663.018-.66.142-1.312.354-1.948.05-.13.099-.26.157-.388.112-.25.141-.512.024-.765Zm-6.976-.784c-.069-.263-.173-.486-.431-.663a1.404 1.404 0 0 0-.894-.222c-.301.039-.607.15-.795.36-.182.202-.333.486-.266.744.12.458.172.923.173 1.391a5.622 5.622 0 0 1-.17 1.113c-.063.235.047.542.212.733.173.202.494.379.795.405.682.061 1.222-.291 1.366-.839.26-.985.267-2.037.01-3.022Zm-7.26.52a1.028 1.028 0 0 0-.431-.663 1.404 1.404 0 0 0-.894-.221c-.613.079-1.172.552-1.061 1.104l.589 2.94c.052.257.185.494.431.663.23.157.594.26.894.221.613-.079 1.172-.552 1.061-1.104l-.589-2.94Zm-5.257 2.685-1.243-2.763c-.221-.49-.959-.789-1.551-.575-.6.217-.926.768-.69 1.292l1.243 2.762c.221.491.959.79 1.551.576.6-.217.925-.769.69-1.292Z"/>
    <path stroke="#171714" stroke-miterlimit="10" stroke-width="2" d="m224.625 67.157 5.537 30.104h7.382l7.997-31.284"/>
    <path stroke="#171714" stroke-miterlimit="10" stroke-width="2" d="m244.736 91.063 9.083-27.743-38.757 1.18v4.133l10.901 30.694"/>
    <path fill="#F64E33" d="M246.411 103.632h-24.793l-3.7-14.007h32.193l-3.7 14.007Z"/>
    <path fill="#57B4F7" d="M233.898-17.981c-54.74 0-59.255 31.23-52.2 52.182 4.543 13.494 20.416 29.055 32.985 38.503l37.917-.518c12.359-9.448 28.672-24.491 33.528-37.985 7.522-20.902 3.763-52.182-52.23-52.182Z"/>
    <path fill="#F64E33" d="M234.007-17.981c-31.313 0-33.895 31.23-29.86 52.182 2.599 13.494 10.502 28.525 17.692 37.974h24.659c7.07-9.449 14.608-24.48 17.386-37.974 4.302-20.902 2.152-52.182-29.877-52.182Z"/>
    <path fill="#FFCB0F" d="M234.03-17.981c-12.22 0-13.228 31.23-11.653 52.182 1.014 13.494 4.099 28.525 6.904 37.974h9.623c2.759-9.449 5.701-24.48 6.785-37.974 1.679-20.902.84-52.182-11.659-52.182Z"/>
    <path fill="#1D6FAB" d="M254.381 71.652c-13.466.315-26.939.38-40.408.196-1.54-.02-1.265 1.968.263 1.989 13.47.183 26.943.118 40.409-.197 1.543-.036 1.274-2.024-.264-1.988Zm-7.515 20.517a684.84 684.84 0 0 0-24.239.476c-1.544.057-1.277 2.045.263 1.988 8.075-.301 16.157-.46 24.239-.476 1.542-.003 1.27-1.991-.263-1.988Zm-1.509 4.415c-3.345-.422-6.672-.391-10.029-.089-3.502.315-6.947.352-10.466.253-1.523-.043-1.904 1.934-.358 1.978 3.445.097 6.86.137 10.292-.17 3.438-.308 6.77-.427 10.203.006 1.525.192 1.89-1.785.358-1.978Z"/>
    <path stroke="#171714" stroke-miterlimit="10" stroke-width="2" d="m70.523 272.648 6.662 29.066h8.883l8.422-30.206"/>
    <path stroke="#171714" stroke-miterlimit="10" stroke-width="2" d="m94.778 295.729 9.729-26.787-45.433 1.14v3.99l13.116 29.635"/>
    <path fill="#1D6FAB" d="M93.209 307.179H70.424c-.796 0-1.485-.414-1.659-.996l-3.048-10.229c-.237-.796.57-1.552 1.659-1.552h28.88c1.088 0 1.896.756 1.659 1.552l-3.048 10.229c-.174.582-.863.996-1.659.996Z"/>
    <path fill="#57B4F7" d="M81.799 190.444c-52.853 0-57.212 30.154-50.4 50.383 4.386 13.029 15.325 27.542 27.461 36.665h44.022c11.933-9.123 24.657-23.636 29.345-36.665 7.263-20.181 3.634-50.383-50.428-50.383Z"/>
    <path fill="#FFCB0F" d="M81.829 190.444c-30.233 0-32.726 30.154-28.83 50.383 2.509 13.029 10.14 27.542 17.081 36.665h23.81c6.825-9.123 14.103-23.636 16.786-36.665 4.154-20.181 2.078-50.383-28.847-50.383Z"/>
    <path fill="#F64E33" d="M81.968 190.444c-11.799 0-12.772 30.154-11.251 50.383.98 13.029 3.957 27.542 6.666 36.665h9.291c2.664-9.123 5.504-23.636 6.551-36.665 1.621-20.181.811-50.383-11.257-50.383Z"/>
    <path fill="#FFCB0F" d="M91.728 299.86c-.014 1.247-1.723 1.897-2.892 1.168-.865-.54-1.315-1.453-2.156-2.032-2.292-1.575-4.634-.123-6.413 1.233-.822.627-2.076 1.521-2.994.577-.632-.648-.998-1.43-1.806-1.962-2.415-1.589-4.942.328-6.195 2.017-.802 1.08 1.045 2.362 1.854 1.27.534-.719 1.785-2.524 3.01-1.603.789.593 1.083 1.532 1.933 2.111 1.01.686 2.36.758 3.54.36 1.355-.457 2.23-1.389 3.35-2.115.512-.333 1.2-.751 1.88-.519.503.17.85.659 1.166 1.001.78.845 1.613 1.598 2.902 1.867 2.854.596 5.18-1.275 5.207-3.593.014-1.283-2.372-1.055-2.386.22Zm-13.316-4.381c-1.541 0-1.268 1.989.264 1.989 1.542 0 1.27-1.989-.264-1.989Z"/>
    <path fill="#FFCB0F" d="M89.186 296.344c-1.542 0-1.269 1.988.264 1.988 1.541 0 1.269-1.988-.264-1.988ZM72.78 303.25c-1.542 0-1.27 1.988.263 1.988 1.542 0 1.27-1.988-.263-1.988Zm10.765 0c-1.541 0-1.269 1.988.264 1.988 1.542 0 1.269-1.988-.264-1.988Zm-14.691-7.079c-1.542 0-1.269 1.988.264 1.988 1.541 0 1.269-1.988-.264-1.988Z"/>
    <path fill="#57B4F7" d="M721.557 494.737c-.027-.853.003-1.707.055-2.55 1.112-18.191 8.817-39.837 35.221-43.618 12.497-1.789 26.851 2.472 33.328 11.164 5.915 7.937 4.617 17.73 1.637 26.387-1.374 3.994-3.084 7.946-5.761 11.494-5.212 6.908-12.441 13.102-22.965 14.145-11.018 1.092-22.676-.784-32.301-5.432-3.017-1.457-5.932-3.251-7.552-5.696-1.208-1.823-1.598-3.853-1.662-5.894Z"/>
    <path fill="#57B4F7" d="M800.018 534.466c4.51-2.208 8.354-5.203 11.037-8.783 1.24-1.654 2.256-3.446 2.566-5.362.859-5.324-3.73-10.298-8.069-14.623-4.8-4.785-10.358-8.958-15.246-13.552-.323-.303-.691-.628-1.185-.697-.359-.05-.715.046-1.051.144-11.366 3.309-22.417 10.586-25.59 19.924-1.538 4.526 2.939 12.78 6.301 17.337 2.499 3.388 6.141 6.253 10.292 8.462 3.697 1.968 7.814 1.209 11.86.308a40.977 40.977 0 0 0 9.085-3.158Zm7.387-67.117a83.053 83.053 0 0 0 9.225 2.361c10.672 2.095 18.624 11.875 10.939 19.589-4.696 4.714-13.715 5.879-21.249 4.076-12.393-2.965-22.011-14.201-28.799-22.327-4.472-5.353-7.444-11.85-5.697-17.936.517-1.8 1.878-3.785 4.266-3.91 2.35-.122 4.151 1.597 5.608 3.072 6.724 6.805 15.677 11.874 25.707 15.075Z"/>
    <path fill="#77E6AC" d="M810.252 471.92a31.214 31.214 0 0 1 3.161-.661c6.382-1.005 11.894.92 14.904 5.516 2.589 3.955 2.752 9.016-.744 12.525-5.346 5.365-21.979 7.939-26.568.044-2.167-3.729-2.715-8.189-.281-11.7 1.954-2.818 5.555-4.673 9.528-5.724Z"/>
    <path fill="#57B4F7" d="m734.075 454.764-.191.016c-6.267.497-12.523-1.171-18.757-2.148-6.18-.968-13.487-1.566-17.454 2.739-3.002 3.257-3.889 7.654-2.333 11.574 1.68 4.23 6.489 8.321 12.233 9.187 6.783 1.023 13.879.355 20.125-1.668 10.971-3.553 19.315-10.587 26.245-18.023 1.386-1.487 6.585-7.939.696-7.527-3.124.219-6.47 1.75-9.165 2.828-3.565 1.428-7.338 2.671-11.399 3.022Z"/>
    <path fill="#77E6AC" d="M694.431 458.422c-1.763 3.804-1.211 8.595 1.345 12.003 2.643 3.524 7.897 5.784 12.937 5.282 4.62-.46 8.638-3.162 10.389-6.607 1.751-3.445 1.338-7.505-.71-10.895-2.441-4.04-6.46-6.917-12.381-6.675-3.923.16-7.648 1.844-9.929 4.381a10.09 10.09 0 0 0-1.651 2.511Z"/>
    <path fill="#FF7C69" d="M807.089 487.236c1.424 2.394 4.961 4.085 8.737 3.921 7.134-.309 11.984-4.664 11.107-10.128-.438-2.722-3.818-4.427-7.171-4.468-2.603-.033-5.075.774-7.268 1.803-2.112.992-4.097 2.251-5.219 3.956-1.136 1.727-1.055 3.453-.186 4.916Zm-105.972-31.253c-1.368.783-2.395 1.971-2.92 3.245-1.374 3.337-.82 7.904 3.057 10.291 4.101 2.525 10.999 1.073 12.75-2.675.937-2.006.296-4.297-.823-6.3-.821-1.471-1.921-2.888-3.491-3.944s-3.66-1.717-5.684-1.529a7.132 7.132 0 0 0-2.889.912Z"/>
    <path fill="#57B4F7" d="M804.806 410.035c2.314-2.73 6.243-4.703 11.01-4.97 5.154-.288 10.588 1.581 13.767 4.736 5.37 5.328 3.443 13.51-3.232 17.231-2.633 1.468-6.107 2.198-9.466 1.732-3.557-.492-6.675-2.242-9.116-4.277-2.127-1.773-3.876-3.833-4.719-6.084-1.097-2.93-.329-5.909 1.756-8.368Zm-70.974-10.278c2.133-2.595 5.729-4.486 10.073-4.768 4.696-.305 9.627 1.427 12.493 4.389 4.842 5.003 3.012 12.75-3.101 16.311-2.411 1.404-5.582 2.116-8.636 1.698-3.235-.444-6.058-2.078-8.263-3.986-1.92-1.663-3.494-3.599-4.242-5.722-.972-2.763-.245-5.584 1.676-7.922Z"/>
    <path fill="#57B4F7" d="M754.385 401.071c-5.855 2.48-11.006 5.962-14.864 10.341-7.545 8.565-8.944 20.63-1.942 29.829 8.87 11.656 28.007 19.105 45.028 18.418 15.296-.617 29.398-8.546 34.746-19.538 5.348-10.991 1.668-24.481-9.067-33.238-14.474-11.806-37.09-12.934-53.901-5.812Z"/>
    <path fill="#E6F5F9" d="M766.053 426.128c-3.399.065-6.854.496-9.757 1.798-2.903 1.301-5.185 3.586-5.41 6.207-.217 2.522 1.487 5.028 3.921 6.784 2.434 1.756 5.529 2.854 8.655 3.689 2.987.798 6.055 1.384 9.148 1.83 4.484.646 9.159.992 13.479.031 4.321-.96 8.239-3.459 9.193-6.865.295-1.053.296-2.182-.185-3.214-.705-1.513-2.34-2.651-3.91-3.719-6.773-4.604-16.31-6.703-25.134-6.541Z"/>
    <path stroke="#000" stroke-linecap="round" stroke-miterlimit="10" stroke-width="2" d="M774.905 433.86c-.051-.099-.229.017-.257.119-.323 1.167-.557 2.379-1.315 3.408-.759 1.029-2.202 1.853-3.747 1.687-.665-.071-1.288-.317-1.839-.624-.749-.419-1.398-.969-1.749-1.627-.351-.658-.377-1.429.043-2.042m38.676-1.376c1.317-2.107 2.357-5.87.334-8.028-.83-.886-2.2-1.376-3.559-1.646-2.965-.591-5.678.076-7.438 1.975-1.041 1.122-1.608 2.475-1.956 3.843m-43.305-5.914a12.59 12.59 0 0 1 1.232-4.292c1.343-2.746 5.637-3.916 9.229-3.599 1.322.116 2.659.395 3.757.997 3.064 1.683 2.734 5.573.69 7.571m11.537 10.031a7.878 7.878 0 0 0-.807 2.923c-.042.578-.004 1.198.418 1.688.61.71 1.82.932 2.905.982.635.03 1.283.021 1.881-.13.598-.151 1.146-.461 1.398-.905"/>
    <path fill="#FF7C69" d="M779.486 429.226c-2.327-1.352-5.345-1.269-7.834-.364-1.966.714-2.389 2.916-1.4 4.338 1.391 2 4.873 2.526 7.701 2.115.965-.141 1.942-.376 2.656-.886 1.866-1.334.974-3.985-1.123-5.203Zm44.518-11.541c-.085-1.186-1.022-2.293-2.263-3.021-1.241-.729-2.758-1.116-4.275-1.329-1.182-.165-2.433-.21-3.599-.05 1.033 1.857 1.87 3.78 2.995 5.609l.004.007c.262.395.517.793.772 1.191.543.775 1.025 1.57 1.436 2.388 1.255-.366 2.399-.944 3.3-1.705.992-.838 1.713-1.935 1.63-3.09Zm-83.504-8.187c.022.185-.38.048-.471-.125-.678-1.284-1.031-2.698-.69-4.035.366-1.436 1.555-2.714 3.189-3.429 1.634-.715 3.687-.856 5.508-.376 1.097.289 2.129.812 2.772 1.563"/>
    <path fill="#57B4F7" d="M689.905 517.959c-2.952-3.769-4.836-8.005-5.309-12.328-.219-1.998-.151-4.036.646-5.915 1.786-4.212 8.108-8.401 13.622-9.446 3.932-.746 8.056-.569 11.913-1.571 4.297-1.116 8.295-2.975 11.644-5.298 3.351.129 6.382 1.753 8.74 3.655 9.197 7.421 8.755 17.478 3.728 25.994-4.306 7.293-15.132 17.262-27.087 15.616-4.555-.627-7.963-1.908-11.223-4.298-2.583-1.895-4.836-4.062-6.674-6.409Z"/>
    <path fill="#77E6AC" d="M726.61 502.706c1.26 2.092 1.827 4.376 2.061 6.645.485 4.705-.513 9.609-4 13.382-6.038 6.534-19.109 8.097-28.525 3.997-13.637-5.938-19.253-23.731-6.468-31.667 10.061-6.244 31.532-1.32 36.932 7.643Z"/>
    <path fill="#FF7C69" d="M713.135 503.428c3.093 2.473 5.412 5.71 6.475 8.629 1.11 3.049.58 6.492-1.904 8.914-1.083 1.055-2.49 1.889-4.011 2.549-6.686 2.899-16.315 1.943-21.158-2.882-7.999-7.971-3.789-22.873 11.514-21.181 3.381.374 6.502 1.907 9.084 3.971Z"/>
    <path fill="#E6F5F9" d="M743.95 473.729c-1.778 1.311-3.269 2.457-4.557 4.39-2.516 3.774-3.603 8.164-2.857 12.446 1.107 6.358 6.364 12.944 15.105 14.1 5.861.775 12.684.274 16.942-3.456 2.21-1.936 3.744-4.338 5.008-6.793a43.145 43.145 0 0 0 3.715-10.112c.478-2.083.79-4.251.171-6.307-.813-2.703-3.149-4.919-5.751-6.67-2.711-1.824-5.828-3.279-9.217-3.956-3.389-.676-7.062-.538-10.231.669-3.045 1.16-4.929 3.167-7.352 4.969-.335.249-.66.487-.976.72Z" opacity=".47"/>
    <path fill="#E6F5F9" d="M773.018 465.865c-2.42-.817-4.942-1.288-7.487-1.685.92-2.178 1.916-4.332 2.951-6.473a29.4 29.4 0 0 1-2.274-.68 142.058 142.058 0 0 0-3.054 6.793c-2.168-.317-4.337-.638-6.461-1.122-.623-.142-1.279.35-1.366.84-.103.586.378.995 1.008 1.138 1.982.452 4.011.752 6.041 1.044a180.751 180.751 0 0 0-3.694 10.099 90.741 90.741 0 0 0-5.061-.903c-1.52-.222-1.882 1.756-.358 1.979a88.71 88.71 0 0 1 4.793.848 286.51 286.51 0 0 0-2.784 9.18c-2.376-.227-4.786-.34-7.095-.857-.627-.14-1.277.349-1.366.84-.106.583.379.997 1.007 1.138 2.237.5 4.593.593 6.91.808-.645 2.283-1.258 4.571-1.875 6.859-2.061-.42-4.136-.793-6.227-1.096-1.521-.221-1.883 1.756-.359 1.978 2.033.295 4.051.653 6.055 1.059-.953 3.559-1.894 7.118-2.841 10.67-1.419 5.322-2.892 10.635-4.532 15.913-.387 1.243 1.989 1.536 2.373.298 2.716-8.733 4.95-17.571 7.287-26.387 1.635.369 3.262.763 4.872 1.209.615.17 1.302.021 1.584-.507.244-.457.011-1.149-.608-1.32a112.29 112.29 0 0 0-5.328-1.324 526.467 526.467 0 0 1 1.929-7.063c1.248.199 2.471.48 3.636.954 1.389.566 2.363-1.262.976-1.827-1.304-.531-2.668-.837-4.056-1.053a277.066 277.066 0 0 1 2.721-8.979c1.698.392 3.384.823 5.046 1.317.611.182 1.306.014 1.584-.507.249-.465.006-1.138-.608-1.32a91.864 91.864 0 0 0-5.39-1.412c.831-2.48 1.706-4.95 2.648-7.406.364-.95.748-1.894 1.131-2.837 2.483.378 4.944.827 7.296 1.621 1.429.482 2.411-1.343.976-1.827Z"/>
    <path fill="#171714" d="M857.213 249.605c.76 1.878 3.345 3.618 4.738 4.942l7.109 6.76c4.65 4.422 9.366 8.802 13.954 13.27 4.53 4.411 8.99 9.201 13.95 13.269.709-.478 1.396-.979 2.092-1.468l-31.365-29.834c-1.904-1.812-3.814-3.628-5.939-5.261-1.403-1.078-2.94-2.094-4.752-2.594.015.309.09.614.213.916Z"/>
    <path fill="#77E6AC" d="M808.804 257.229a65.004 65.004 0 0 1 1.665-3.942c9.51-20.604 34.334-44.179 60.676-49.659 24.153-5.025 44.062 5.501 55.447 18.769-3.846-1.693-12.999-.079-18.375 5.207-5.376 5.286-6.919 9.067-7.968 15.16-7.028-.556-15.501 2.633-21.044 7.922-5.544 5.29-7.899 12.43-5.849 17.736-8.527-1.868-20.439.388-25.817 9.221-3.412 5.606-2.839 11.639.087 16.023-2.859-4.284-14.864-1.701-19.604 1.687-2.449 1.75-4.452 3.45-5.498 5.823-1.081 2.452-1.883 5.051-1.171 7.258a109.277 109.277 0 0 1-10.664-13.609c-3.471-5.243-5.708-10.759-5.747-17.407-.038-6.542 1.251-13.39 3.862-20.189Z"/>
    <mask id="b" width="123" height="107" x="804" y="202" maskUnits="userSpaceOnUse" style="mask-type:luminance">
      <path fill="#fff" d="M808.804 257.229a65.004 65.004 0 0 1 1.665-3.942c9.51-20.604 34.334-44.179 60.676-49.659 24.153-5.025 44.062 5.501 55.447 18.769-3.846-1.693-12.999-.079-18.375 5.207-5.376 5.286-6.919 9.067-7.968 15.16-7.028-.556-15.501 2.633-21.044 7.922-5.544 5.29-7.899 12.43-5.849 17.736-8.527-1.868-20.439.388-25.817 9.221-3.412 5.606-2.839 11.639.087 16.023-2.859-4.284-14.864-1.701-19.604 1.687-2.449 1.75-4.452 3.45-5.498 5.823-1.081 2.452-1.883 5.051-1.171 7.258a109.277 109.277 0 0 1-10.664-13.609c-3.471-5.243-5.708-10.759-5.747-17.407-.038-6.542 1.251-13.39 3.862-20.189Z"/>
    </mask>
    <g mask="url(#b)">
      <path fill="#FFCB0F" d="M888.928 229.395c-6.162-4.464-13.93-7.875-22.557-9.563-5.462-1.068-11.217-1.907-17.279-1.595-2.857.147-5.927.5-8.839 1.541-3.813 1.362-4.444 3.176-6.161 6.097-6.885 11.715-9.44 23.721-7.888 34.858 1.693 12.14 7.851 22.695 16.001 31.659 1.875 2.063 4.55 4.037 8.41 3.466 2.76-.407 5.495-1.681 8.144-2.927 5.634-2.651 11.312-5.327 16.485-8.741 9.252-6.106 16.367-14.221 22.751-22.341 1.238-1.575 2.507-3.205 4.278-4.418 1.771-1.214 4.201-1.907 5.752-1.191l1.294-.307c-5.255-9.779-10.818-19.602-20.391-26.538Z"/>
      <path fill="#F64E33" d="M887.226 225.682c-6.641-4.014-11.6-6.098-20.512-7.251-7.785-1.008-23.289.036-31.653 4.992-.679.403-1.292.897-1.862 1.444 1.264 1.032 2.44 2.141 3.603 3.25 6.921 6.601 13.212 13.673 19.992 20.373 1.116 1.103 2.304 2.136 3.487 3.185 3.358 2.98 10.132 12.644 13.27 15.791 3.946 3.958 4.292 1.484 8.879 4.97l28.842-19.044c-6.167-9.269-13.73-21.473-24.046-27.71Z"/>
    </g>
    <path fill="#171714" d="M833.1 219.801a3.212 3.212 0 0 0-.879-.379c-1.813-.46-2.661.995-2.318 2.224.103.368.291.715.485 1.056.577 1.015 1.233 2.025 2.212 2.797 2.336 1.846 4.08-1.087 3.358-2.845-.16-.391-.448-.736-.753-1.062-.449-.48-.942-.931-1.475-1.348a6.633 6.633 0 0 0-.63-.443Zm1.077 9.132c.514-1.205-1.674-2.029-2.192-.814-2.502 5.867-4.357 11.919-5.461 18.078-1.062 5.92-1.868 12.193.386 17.99.477 1.227 2.716.505 2.241-.717-2.175-5.592-1.225-11.745-.168-17.441 1.08-5.824 2.827-11.544 5.194-17.096Z"/>
    <path fill="#171714" d="M896.387 233.416c-9.611-12.22-27.517-17.788-44.573-16.092-5.385.536-10.656 1.742-15.657 3.483-1.424.497-.568 2.365.86 1.868 10.582-3.686 22.511-4.85 33.659-2.29 9.624 2.209 18.275 7.222 23.761 14.198.849 1.079 2.794-.093 1.95-1.167Zm-22.733 32.775c-1.978-3.222-4.516-6.129-7.158-8.991-2.948-3.191-5.907-6.373-8.861-9.56a158971.38 158971.38 0 0 1-17.648-19.04c-.944-1.018-2.895.147-1.95 1.167l17.285 18.648 8.551 9.225c2.739 2.956 5.492 5.932 7.54 9.268.698 1.136 2.945.43 2.241-.717Zm-49.133 11.805c-3.54-7.77-4.481-16.174-2.745-24.357.268-1.267-2.105-1.568-2.374-.299-1.805 8.51-.802 17.295 2.878 25.373.549 1.205 2.79.488 2.241-.717Zm-5.136-.182-2.693-7.77c-.18-.519-.982-.757-1.551-.575-.648.207-.87.771-.69 1.292l2.693 7.77c.18.519.982.757 1.551.575.648-.208.87-.772.69-1.292Zm24.92-7.478-2.901-4.144c-.317-.454-1.198-.541-1.675-.229-.552.361-.613.912-.274 1.396l2.901 4.144c.317.453 1.198.541 1.674.229.553-.362.614-.912.275-1.396Zm2.86-3.23-2.694-4.662c-.272-.47-.922-.802-1.55-.575-.556.201-.981.789-.69 1.292l2.694 4.662c.272.471.922.802 1.55.575.556-.201.981-.789.69-1.292Z"/>
    <path fill="#F64E33" d="M904.396 241.152c-8.553-.469-17.108 2.012-23.328 6.957-6.259 4.974-9.582 12.124-9.324 19.294.047 1.286 2.432 1.063 2.386-.219-.234-6.501 2.858-12.975 8.446-17.527 5.625-4.581 13.639-6.956 21.462-6.527 1.528.084 1.904-1.893.358-1.978Z"/>
    <path fill="#FFCB0F" d="M872.995 266.477c-4.823-.121-9.797-.72-14.221 1.235-3.548 1.568-6.589 3.947-8.832 6.715-4.438 5.478-5.972 12.34-3.874 18.735.407 1.242 2.644.516 2.24-.717-1.851-5.645-.426-11.916 3.489-16.748a22.107 22.107 0 0 1 7.46-5.932c4.117-2.015 8.808-1.425 13.379-1.31 1.523.038 1.904-1.94.359-1.978Z"/>
    <path fill="#77E6AC" d="M847.306 292.3c-5.096-4.221-13.639-1.697-18.623 1.329-5.536 3.361-9.288 8.585-9.328 14.36-.008 1.284 2.378 1.056 2.386-.22.034-4.917 3.42-9.424 8.038-12.328 4.158-2.614 11.607-5.237 16.003-1.595 1.096.908 2.611-.646 1.524-1.546Z"/>
    <path fill="#FFCB0F" d="m873.046 161.608-7.111-.582 1.71-6.236c.082-.296-.23-.506-.473-.379a20.047 20.047 0 0 0-6.415 5.292c-.155.194-.307.442-.516.578-.34.221-.662.018-.968-.162-.325-.191-.646-.39-.969-.585l-3.738-2.256c-.245-.147-.545.097-.474.379a56.32 56.32 0 0 0 1.425 4.729 36.878 36.878 0 0 0-5.316 4.089c-.263.244.026.611.314.561a54.389 54.389 0 0 0 6.212-1.478c.072.173.137.348.21.521a.27.27 0 0 0 .152.153c-.943 2.319-1.778 4.685-2.054 7.207-.03.277.383.46.551.237l2.159-2.874c.718-.955 1.397-1.97 2.168-2.879.231-.273.429-.211.699-.034.238.156.464.34.694.509l1.443 1.063 2.952 2.175c.257.19.511-.123.474-.379a24.638 24.638 0 0 0-1.405-5.319 23.116 23.116 0 0 0 8.439-3.704.342.342 0 0 0-.163-.626Z"/>
    <path fill="#FF9786" d="m43.987 116.018.602-.461 1.203-.921 2.5-1.913c.203-.155-.019-.38-.245-.35l-5.504.727c-.397.052-.954.216-1.267-.071-.283-.259-.476-.624-.694-.922l-1.456-1.994c-.108-.149-.408-.13-.46.05l-1.484 5.182a.178.178 0 0 0-.003.078c-1.91.275-3.76.782-5.494 1.518-.204.087-.132.329.06.383l2.922.817 1.46.409c.171.048.566.101.684.228.125.134.04.42.02.574-.197 1.488-.823 3.004-.08 4.457.079.157.34.116.434 0a47.937 47.937 0 0 0 3.769-5.419l6.892 2.553c.254.094.507-.144.305-.329l-2.256-2.074-1.086-.998c-.353-.324-.741-.637-1.066-.981-.226-.239.033-.382.244-.543Z"/>
    <path fill="#6EDEEB" d="m670.867 421.52-3.633-1.877-1.879-.971-.877-.453-.375-.194c-.12-.062-.38-.148-.457-.255-.155-.215.147-.738.227-.955l.312-.844.667-1.808 1.29-3.497c.077-.21-.218-.407-.431-.289a35.222 35.222 0 0 0-6.996 5.086c-1.862-.995-4.71-2.663-6.822-3.152-.234-.055-.394.127-.36.314.306 1.696 1.607 4.273 2.225 5.902a27.73 27.73 0 0 0-4.846 4.003c-.183.191-.014.491.285.427l3.687-.789 1.844-.394c.282-.06.608-.176.897-.183.378-.01.382.321.453.572l1.781 6.379c.068.245.493.241.565 0l1.902-6.407.237-.801c.062-.207.104-.501.279-.663.226-.209.628-.099.909-.056l.925.143 3.769.582 4.196.647c.314.049.528-.311.226-.467ZM211.531 213.811l-3.633-1.877-1.879-.971-.876-.453-.376-.194c-.12-.062-.38-.148-.457-.255-.154-.215.147-.738.227-.955l.312-.844.667-1.808 1.29-3.497c.077-.21-.218-.407-.431-.289a35.25 35.25 0 0 0-6.996 5.086c-1.862-.995-4.71-2.663-6.822-3.152-.234-.055-.394.127-.36.314.306 1.696 1.607 4.273 2.225 5.902a27.767 27.767 0 0 0-4.846 4.003c-.183.191-.014.491.285.427l3.687-.789 1.844-.394c.282-.06.608-.176.897-.183.378-.01.382.321.453.572l1.781 6.379c.068.245.494.241.565 0l1.902-6.407.237-.801c.062-.207.104-.501.279-.663.226-.209.628-.099.91-.056l.924.143 3.769.582 4.196.647c.314.049.528-.311.226-.467Z"/>
    <path fill="#99EBDA" d="M46.712 356.906a24525.851 24525.851 0 0 1-1.728-6.097l-.102-.358c-.033-.115-.144-.328-.107-.45.072-.243.73-.435.969-.542l.936-.414 2.004-.889 3.876-1.717c.233-.103.19-.416-.06-.458a43.409 43.409 0 0 0-9.264-.514 16.643 16.643 0 0 0-2.341-5.113c-.12-.176-.388-.142-.522.01a32.492 32.492 0 0 0-3.242 4.356 35.51 35.51 0 0 0-6.824-.016c-.291.028-.426.34-.16.471l3.28 1.61 1.64.806c.25.123.579.233.79.398.275.216-.001.452-.164.671l-4.143 5.566c-.16.214.145.461.4.332l6.775-3.418.847-.428c.218-.11.498-.294.759-.305.337-.015.528.299.691.495l.534.645 2.177 2.63 2.423 2.927c.181.219.637.09.556-.198Z"/>
    <path fill="#77E6AC" d="M73.428 42.19a27.813 27.813 0 0 1 8.758-6.17c8.664-3.889 24.286-4.432 31.635 2.126 5.474 4.884 5.695 16.554 5.1 22.654 4.247-4.07 10.009-7.214 16.413-7.99 6.404-.777 13.41 1.09 17.377 5.351 5.586 6.001 3.521 12.153-3.949 16.241 5.333-.752 10.602 3.139 11.302 7.608.7 4.47-2.467 8.95-6.982 11.43-4.515 2.482-10.14 3.21-15.543 3.014-6.83-.247-14.139-2.225-17.838-7.015-2.206 9.47-14.006 16.651-25.503 15.52-11.497-1.131-20.965-10.405-20.464-20.044-7.912 7.485-24.486 6.382-30.872-2.056-6.386-8.437-.44-21.376 11.075-24.102 5.018-1.188 11.546.006 13.34 4.088-1.833-7.185.691-14.923 6.151-20.655Z"/>
    <path stroke="#1B0512" stroke-linecap="round" stroke-miterlimit="10" stroke-width="2" d="M74.593 68.585c-.245-2.917 2.641-5.164 5.805-5.956 4.315-1.08 8.37 2.924 5.108 6.057m41.179 8.063c-.52-1.748 1.088-3.477 2.944-4.399 2.026-1.007 4.864-1.34 6.594-.004 1.692 1.308 1.575 3.527 1.329 5.44m-35.068-4.189c2.06.78 4.351 1.128 6.608 1.006"/>
    <path fill="#fff" d="M154.547 82.055c-.597-.076-1.326.297-1.366.84-.13 1.787-1.199 3.44-2.843 4.589-1.821 1.272-4.099 1.934-6.43 2.2-1.527.174-1.272 2.163.264 1.988 2.763-.315 5.554-1.114 7.691-2.652 2.045-1.472 3.525-3.546 3.692-5.827.039-.539-.326-1.052-1.008-1.138ZM91.736 96.838c-2.053-1.717-3.19-4.147-3.194-6.632-.001-.54-.73-.94-1.325-.885-.701.065-1.062.562-1.06 1.105.005 2.99 1.537 5.852 4.055 7.957.457.383 1.307.25 1.69-.137.445-.453.293-1.024-.166-1.408Zm4.824-1.798-.415-1.554a.675.675 0 0 0-.146-.36.793.793 0 0 0-.285-.303 1.402 1.402 0 0 0-.894-.221c-.301.039-.607.15-.795.359-.182.202-.335.487-.266.745l.414 1.554c.012.132.06.252.146.361.062.12.158.22.285.302.23.157.594.26.894.221.301-.039.608-.15.796-.359.181-.202.334-.487.265-.745Zm8.689 1.65a.749.749 0 0 0-.251-.32.916.916 0 0 0-.381-.235c-.289-.094-.625-.126-.918-.02l-.27.122c-.175.105-.307.24-.396.405l-.829 1.209a.643.643 0 0 0-.093.387.63.63 0 0 0 .069.378.759.759 0 0 0 .252.32c.1.105.227.184.38.235.289.095.625.126.918.02l.271-.121c.175-.106.307-.241.396-.406l.828-1.208a.644.644 0 0 0 .094-.387.639.639 0 0 0-.07-.379Zm6.912-50.357c-.651-.057-1.26.287-1.366.84l-.829 4.317c-.099.516.367 1.081 1.008 1.138.651.058 1.26-.286 1.366-.84l.829-4.316c.099-.517-.367-1.082-1.008-1.139Zm-28.247-4.481c-5.477 3.108-9.727 7.645-11.99 12.837-.524 1.203 1.664 2.026 2.193.813 2.129-4.885 6.04-9.1 11.198-12.026 1.28-.726-.125-2.348-1.4-1.624Zm4.95 2.626c-.508-.317-1.28-.306-1.69.137a38.637 38.637 0 0 0-3.484 4.372c-.313.456.047 1.137.608 1.32.656.215 1.25-.018 1.585-.506a36.64 36.64 0 0 1 .568-.806c.033-.044.245-.346.075-.103.242-.347.517-.682.785-1.015a37.339 37.339 0 0 1 1.718-1.992c.382-.413.364-1.077-.165-1.407ZM51.044 81.96c-1.665-1.798-3.318-3.72-3.019-6.108.296-2.356 1.699-4.518 2.389-6.798.377-1.246-1.998-1.54-2.374-.299-.758 2.506-2.35 4.855-2.439 7.485-.09 2.672 1.606 4.85 3.494 6.886.944 1.02 2.894-.147 1.95-1.167Z"/>
    <path fill="#FFBB97" d="M137.515 81.957c-1.23-.683-2.811-.748-4.245-.766a23.56 23.56 0 0 0-2.45.105c-.759.07-1.539.138-2.212.462-.694.336-1.133.975-1.056 1.65.019.175.07.334.141.48a1.25 1.25 0 0 0 .349 1.218c.821.822 2.267 1.26 3.493 1.446 1.171.178 2.412.139 3.572-.075 1.207-.223 2.642-.541 3.339-1.472.777-1.038.251-2.392-.931-3.048Zm-55.57-6.764c-.294-.607-.886-1.018-1.54-1.347-1.066-.536-2.343-.664-3.566-.619a14.6 14.6 0 0 0-1.902.213c-.646.11-1.37.191-1.966.431-.904.365-1.381 1.182-1.048 1.992.115.28.311.537.552.763.07.147.157.289.277.41.462.464 1.104.634 1.77.798 2.255.554 5.298.988 7.016-.754.516-.523.718-1.245.407-1.887Z"/>
    <path stroke="#57B4F7" stroke-linecap="round" stroke-miterlimit="10" stroke-width="2" d="M638.586 46.816c1.552-.335 3.111-.635 4.676-.902m9.449-1.197c41.302-3.469 84.522 15.5 105.103 47.731 5.036 7.887 8.165 16.51 11.482 25.006 5.56 14.24 11.187 29.235 7.796 43.94-6.923 30.026-40.291 42.585-67.922 57.043-22.597 11.825-49.974 30.833-29.341 54.147 4.955 5.598 12.492 9.252 20.284 11.747 28.695 9.189 67.214.646 78.032-23.332 1.386-3.071 2.295-6.412 1.529-9.63-1.588-6.674-9.965-10.881-18.06-11.773-17.568-1.936-34.719 8.281-42.572 21.52-19.075 32.156-.312 58.264 41.093 62.114 27.107 2.52 53.085-6.541 79.628-9.256 14.831-1.517 26.892.281 41.135 3.2 12.523 2.567 24.456 3.363 33.354 12.494 6.906 7.088 9.238 17.415 4.639 25.702-6.122 11.029-21.634 15.706-32.336 23.96-19.071 14.707-20.353 41.92-4.474 59.06 13.924 15.03 38.65 21.619 61.081 18.23M84.324-31c-7.797 17.357-1.286 39.42-16.377 53.032-5.813 5.244-13.958 8.206-22.006 10.653-16.377 4.98-33.439 8.443-49.325 14.427-15.886 5.984-30.937 14.95-38.926 27.863-7.757 12.54-8.029 27.411-5.61 41.374 1.955 11.284 5.783 22.752 14.533 31.516 13.046 13.067 35.08 17.876 55.421 16.601 20.341-1.275 39.61-7.75 58.65-13.851 19.038-6.102 38.712-11.981 59.111-11.971 74.52.036 106.56 71.323 85.503 122.588-26.64 64.856-105.989 95.592-176.414 121.071-18.503 6.694-37.513 12.852-54.004 22.532-16.49 9.679-30.52 23.534-34.216 40.059-2.767 12.369.423 25.109 4.603 37.199 6.436 18.613 15.258 36.652 26.267 53.711 8.203 12.711 19.032 25.806 35.65 29.87 13.179 3.224 27.2.064 40.727-1.916 35.857-5.248 72.618-2.038 109.013-2.785 36.645-.751 74.727-7.07 105.195-25.109 13.573-8.035 20.624-22.074 30.153-33.24 12.271-14.379 26.085-27.98 42.844-38.877 22.864-14.865 54.463-24.286 80.913-14.378 26.309 9.856 39.011 36.219 37.392 60.219-1.618 24-14.606 46.309-27.35 67.874"/>
    <path fill="#6EDEEB" d="M851.971 358.863a1.76 1.76 0 0 0-.665-.908c-1.396-1.008-2.948.367-3.632 1.326l-4.352 6.101c-.308.324-.632.638-.976.928-.741.625-2.002.563-2.587-.128 1.14-4.757 1.985-9.56 2.512-14.394.146-1.344-.849-2.634-2.52-2.846-1.531-.193-3.268.749-3.415 2.1-.028.255-.069.509-.099.765-.329 1.336-.534 2.705-.849 4.04-.536 2.268-.968 4.629-1.703 6.856-.14.424-.544.854-1.035.936l-.5-3.044-1.836-11.182c-.298-1.817-2.371-2.419-3.997-2.008-.826-.032-1.597.556-1.891 1.357-.224.607-.185 1.252-.12 1.88.144 1.38.408 2.748.671 4.114l.894 4.63c.248 1.532.516 3.063.774 4.594-.01.35-.08.635-.277.713-.519.205-1.138-.684-1.362-.957-.109-.134-.206-.275-.308-.413a159.88 159.88 0 0 0-5.25-10.806c-1.565-2.934-7.174-1.156-5.601 1.792a159.216 159.216 0 0 1 7.696 16.661c.156.7.247 1.407.22 2.122-.02.53-.115 1.084-.493 1.52-.528.609-1.228.891-2.016.973-.401-.215-.792-.439-1.2-.645-3.567-1.803-7.572-3.365-11.852-2.96-1.559.148-2.901 1.423-2.653 2.76.238 1.28 1.534 2.271 3.11 2.213.086.028.169.065.254.092 2.885.899 5.194 2.418 7.382 4.145 4.342 3.427 5.624 6.379 11.778 6.773 4.64.297 12.969 1.093 17.097-1.019 7.504-3.84 1.784-11.984 4.173-17.7 1.202-2.877 3.55-5.368 4.458-8.336.205-.669.382-1.357.17-2.045ZM363.576 29.324a1.77 1.77 0 0 0-.664-.909c-1.396-1.007-2.948.368-3.632 1.327l-4.352 6.101c-.308.324-.632.638-.976.928-.741.625-2.003.563-2.588-.129a115.06 115.06 0 0 0 2.512-14.393c.146-1.344-.849-2.634-2.519-2.846-1.531-.194-3.268.749-3.415 2.1-.028.255-.07.51-.099.764-.329 1.337-.535 2.706-.85 4.04-.535 2.269-.967 4.63-1.702 6.857-.14.424-.545.853-1.035.935l-.501-3.044-1.835-11.181c-.298-1.818-2.371-2.42-3.998-2.008-.826-.032-1.597.556-1.891 1.357-.223.607-.185 1.252-.119 1.88.143 1.38.407 2.748.671 4.114l.894 4.63c.248 1.532.515 3.062.774 4.594-.011.35-.08.635-.278.713-.518.205-1.137-.684-1.361-.958-.11-.133-.206-.274-.308-.412a160.506 160.506 0 0 0-5.25-10.806c-1.566-2.934-7.175-1.156-5.601 1.791a159.294 159.294 0 0 1 7.695 16.662c.157.7.247 1.407.22 2.122-.02.53-.115 1.084-.493 1.52-.527.61-1.227.89-2.016.973-.4-.215-.791-.44-1.2-.645-3.567-1.803-7.571-3.365-11.852-2.96-1.559.148-2.901 1.423-2.652 2.76.238 1.28 1.533 2.271 3.11 2.212.085.03.168.066.254.093 2.885.898 5.194 2.418 7.381 4.145 4.343 3.427 5.625 6.379 11.778 6.772 4.64.297 12.969 1.094 17.097-1.018 7.505-3.84 1.785-11.985 4.173-17.7 1.202-2.877 3.55-5.368 4.459-8.336.205-.67.381-1.357.169-2.045Z"/>
    <path fill="#57B4F7" d="M76.635 445.796a1.771 1.771 0 0 0-.665-.909c-1.396-1.007-2.948.368-3.632 1.327l-4.352 6.101c-.308.324-.632.638-.976.928-.74.625-2.002.562-2.587-.129a115.236 115.236 0 0 0 2.512-14.393c.146-1.344-.85-2.635-2.52-2.846-1.53-.194-3.268.749-3.415 2.099-.028.256-.07.51-.099.765-.329 1.337-.534 2.705-.85 4.04-.535 2.268-.967 4.63-1.702 6.857-.14.424-.544.853-1.034.935-.167-1.015-.335-2.029-.501-3.044l-1.836-11.181c-.298-1.818-2.37-2.42-3.997-2.009-.826-.031-1.597.556-1.891 1.357-.224.607-.185 1.253-.12 1.881.144 1.38.408 2.747.672 4.114l.893 4.629c.248 1.533.516 3.063.775 4.595-.011.35-.08.635-.278.713-.519.205-1.138-.684-1.362-.958-.11-.133-.206-.274-.307-.412a160.567 160.567 0 0 0-5.25-10.807c-1.566-2.933-7.175-1.155-5.602 1.792a159.33 159.33 0 0 1 7.696 16.661c.157.701.247 1.407.22 2.122-.02.53-.115 1.084-.493 1.521-.528.609-1.228.89-2.016.972-.4-.214-.792-.438-1.2-.645-3.567-1.802-7.572-3.365-11.852-2.959-1.56.148-2.901 1.423-2.653 2.76.238 1.279 1.534 2.271 3.11 2.212.086.029.169.066.255.092 2.884.899 5.193 2.418 7.38 4.145 4.343 3.428 5.625 6.38 11.779 6.773 4.64.297 12.969 1.094 17.097-1.018 7.504-3.84 1.785-11.985 4.173-17.701 1.202-2.876 3.55-5.368 4.458-8.335.205-.67.382-1.358.17-2.045Z"/>
    <path fill="#FC0" d="M656.027 464.932c-.168-1.265-1.712-2.462-3.312-2.211-4.237.665-8.52 1.182-12.743 1.9-1.225.208-5.773 1.216-5.235-.774.225-.834 5.183-2.084 6.25-2.454 2.365-.82 4.805-1.463 7.245-2.105 1.388-.365 3.329-1.495 3.771-2.713.644-1.779-1.725-2.78-3.59-2.317l-23.768 5.905c-.39-.057-.774-.141-1.11-.31-.412-.98-.534-1.954-.094-3.005 1.456-3.478 3.888-6.552 4.496-10.275.461-2.827-4.216-3.918-5.708-1.39-2.068 3.504-4.833 6.768-8.216 9.535-3.59 2.443-6.402 3.709-7.165 8.126-.668 3.867-2.185 10.791.087 14.39 3.819 6.049 12.827 2.881 19.488 4.248 1.333.55 2.722 1.02 4.014 1.515l.518.198c2.218 1.098 4.352 2.338 6.811 3.009 1.287.351 3.772.665 4.92-.212 2.254-1.723-1.05-3.389-2.608-4.177-2.29-1.158-4.469-2.339-6.906-3.273-.339-.13-.677-.262-1.017-.391-.089-.078-.189-.149-.274-.228-.676-.637-.553-1.632.231-2.103 6.131.645 12.014 2.486 18.203 2.853 2.4.142 4.522-2.032 2.826-3.783-1.106-1.142-3.434-1.161-5.004-1.467-1.059-.207-2.124-.399-3.168-.631-2.7-.6-5.52-1.12-8.157-1.884-.394-.114-.777-.366-.96-.669a884.97 884.97 0 0 0 17.523-2.547c1.59-.25 2.84-1.346 2.652-2.76Z"/>
    <path fill="#FF7C69" d="M715.959 38.108c1.486.294 3.359-.514 3.614-1.854.676-3.549 1.536-7.083 2.148-10.639.177-1.031.57-4.939 2.638-3.846.866.458.608 4.768.666 5.73.13 2.132.034 4.263-.063 6.394-.055 1.212.568 3.116 1.796 3.873 1.792 1.105 3.722-.417 3.827-2.036l1.336-20.638c.197-.287.421-.56.725-.766 1.246.007 2.387.24 3.426.938 3.439 2.315 6.093 5.258 10.095 6.99 3.039 1.314 5.848-1.988 3.494-4.01-3.262-2.803-6.019-6.072-8.006-9.659-1.549-3.64-2.033-6.273-6.765-8.36-4.144-1.827-11.456-5.35-16.288-4.78-8.121.957-7.577 9.093-11.366 13.859-1.07.86-2.069 1.791-3.064 2.638l-.399.34c-1.987 1.37-4.108 2.626-5.694 4.33-.831.892-2.022 2.735-1.418 3.931 1.186 2.35 4.183.319 5.597-.638 2.081-1.407 4.149-2.719 6.025-4.316.262-.222.525-.443.785-.666.118-.043.231-.098.35-.138.947-.316 2.03.116 2.298.89-2.795 4.592-6.856 8.588-9.357 13.32-.969 1.836.771 4.233 3.322 3.492 1.662-.482 2.469-2.303 3.344-3.432.59-.76 1.166-1.531 1.78-2.272 1.588-1.917 3.125-3.954 4.877-5.766a1.84 1.84 0 0 1 1.079-.527 525.378 525.378 0 0 0-3.026 14.606c-.254 1.332.563 2.683 2.224 3.012Z"/>
    <path fill="#FC0" d="M510.613 43.81c-.168-1.264-1.712-2.461-3.312-2.21-4.237.665-8.52 1.182-12.744 1.9-1.224.208-5.772 1.216-5.234-.774.225-.834 5.183-2.084 6.25-2.454 2.365-.82 4.805-1.463 7.245-2.105 1.388-.365 3.329-1.495 3.771-2.713.644-1.779-1.725-2.78-3.59-2.317l-23.768 5.905c-.39-.057-.774-.141-1.11-.31-.412-.98-.534-1.954-.094-3.005 1.456-3.478 3.888-6.552 4.495-10.275.462-2.827-4.216-3.918-5.707-1.39-2.068 3.504-4.833 6.768-8.216 9.535-3.59 2.443-6.402 3.71-7.165 8.125-.668 3.867-2.185 10.792.087 14.391 3.819 6.049 12.827 2.88 19.488 4.248 1.333.55 2.722 1.02 4.013 1.515l.519.198c2.218 1.098 4.351 2.338 6.811 3.009 1.287.351 3.771.665 4.92-.212 2.254-1.723-1.05-3.39-2.608-4.177-2.29-1.158-4.47-2.34-6.906-3.273-.339-.13-.677-.262-1.017-.391-.089-.078-.189-.149-.274-.229-.676-.636-.553-1.631.23-2.102 6.132.645 12.015 2.486 18.204 2.852 2.4.143 4.522-2.03 2.826-3.782-1.106-1.142-3.434-1.16-5.005-1.467-1.059-.207-2.123-.4-3.167-.631-2.7-.6-5.52-1.12-8.157-1.884-.394-.114-.777-.366-.96-.669a884.98 884.98 0 0 0 17.523-2.547c1.59-.25 2.84-1.346 2.652-2.76Z"/>
    <path fill="#FFCB0F" d="M171.602 384.018a26.042 26.042 0 0 1-.697-.979l-.115-.174c-.111-.179-.225-.357-.335-.537-.496-.81-.969-1.63-1.454-2.444-1.035-1.738-2.118-3.477-3.531-5.026-.949-1.041-2.89-1.421-4.187-.572-1.25.819-1.7 2.378-.686 3.49.281.309.546.627.803.95l3.547 5.635c.171.392.323.789.441 1.188.261.893-.533 1.805-1.637 1.793-.199-.004-.394-.037-.59-.064a318.38 318.38 0 0 0-5.881-4.536c-2.339-1.751-4.718-3.862-7.681-4.866-1.453-.492-3.355-.019-3.961 1.267-.579 1.228-.037 2.773 1.52 3.301.211.071.411.158.614.242 1.044.782 2.141 1.526 3.167 2.316 2.053 1.58 4.256 3.135 6.162 4.837.142.127.261.285.347.453-5.374-1.71-10.908-3.09-16.374-4.563-1.542-.415-3.252-.06-3.961 1.267-.219.409-.331 2.153.167 2.471 2.317 1.481 6.128 1.882 8.947 2.423 2.433.467 5.092 1.451 7.34 2.39 1.427.596 2.131.877 1.603 2.233-1.784-.018-3.664-.657-5.453-.837-2.433-.244-4.944-.177-7.345-.459-1.609-.188-3.697-.513-5.102.434-.98.659-1.542 2.608-.456 3.428 1.11.838 4.142.668 5.557.845 2.553.319 5.131.63 7.695.893 3.788.39 8.218 1.261 11.439 3.032.535.294 1.055.654 1.305 1.155.216.432.264.844.199 1.241-3.834 2.29-7.289 5.063-10.663 7.801-1.127.914-.785 2.772.413 3.519 1.422.888 3.016.635 4.224-.344.345-.28.692-.558 1.038-.838 2.38-1.474 5.059-2.291 7.881-2.919 5.822-1.296 9.538-.654 13.192-4.847 2.755-3.161 7.972-8.697 7.976-12.764.007-7.121-10.555-7.59-15.468-11.835Z"/>
    <path fill="#E6E89F" d="m694.585 91.6-7.467 1.134c-.3.045-.601.09-.902.137-.309.046-.673.163-.926-.047-.182-.152-.302-.396-.432-.58l-.513-.727-1.969-2.787c-.123-.175-.467-.193-.584 0a15.519 15.519 0 0 0-1.905 4.677l-7.923 2.635c-.281.094-.36.479 0 .544 2.376.434 4.8.643 7.231.637a54.042 54.042 0 0 0-3.187 7.171c-.072.201.171.413.416.347 1.956-.524 3.196-1.908 4.457-3.171.327-.328.66-.652 1.017-.958.223-.19.484-.441.823-.471.3-.027.631.096.904.187 1.031.341 1.955.871 2.931 1.303 1.033.456 2.148.807 3.335.696.201-.018.407-.167.327-.357a27.82 27.82 0 0 0-2.745-4.965c2.892-1.15 5.451-2.84 7.442-4.933.211-.223.018-.525-.33-.472Zm104.368 110.481-7.467 1.134-.903.137c-.309.047-.672.164-.925-.047-.183-.152-.303-.395-.433-.579l-.513-.728-1.968-2.787c-.123-.175-.467-.192-.585 0a15.532 15.532 0 0 0-1.905 4.678l-7.923 2.635c-.281.093-.36.478 0 .544 2.376.434 4.8.642 7.231.636a54.18 54.18 0 0 0-3.187 7.172c-.072.201.171.413.416.347 1.956-.524 3.197-1.908 4.457-3.172.327-.328.66-.652 1.017-.957.223-.191.484-.441.823-.472.3-.027.631.097.905.187 1.031.341 1.954.872 2.931 1.303 1.032.456 2.147.808 3.334.697.201-.019.407-.167.327-.357a27.853 27.853 0 0 0-2.745-4.966c2.892-1.149 5.451-2.839 7.442-4.933.212-.223.018-.524-.329-.472ZM153.187 20.48l-7.467 1.133-.903.137c-.308.047-.672.164-.925-.047-.183-.152-.302-.395-.432-.579l-.514-.727-1.968-2.788c-.123-.174-.467-.192-.585 0a15.57 15.57 0 0 0-1.905 4.678l-7.922 2.635c-.282.094-.36.479 0 .544 2.375.434 4.8.643 7.231.637a54.184 54.184 0 0 0-3.188 7.171c-.072.201.172.413.417.347 1.955-.524 3.196-1.908 4.456-3.171.327-.328.66-.652 1.017-.958.223-.19.485-.441.824-.471.3-.027.631.096.904.187 1.031.34 1.954.871 2.931 1.302 1.033.456 2.148.808 3.335.697.201-.019.407-.167.326-.357a27.703 27.703 0 0 0-2.745-4.965c2.892-1.15 5.452-2.84 7.442-4.934.212-.222.018-.524-.329-.471Z"/>
    <path fill="#FFCB0F" d="m108.406 402.753-7.467 1.134-.903.137c-.309.047-.672.164-.925-.047-.183-.152-.303-.395-.433-.58l-.513-.727-1.968-2.787c-.123-.175-.467-.193-.585 0a15.535 15.535 0 0 0-1.905 4.677l-7.923 2.636c-.281.093-.36.478 0 .544 2.376.434 4.8.642 7.232.636a54.132 54.132 0 0 0-3.188 7.172c-.072.201.171.413.416.347 1.956-.524 3.197-1.909 4.457-3.172.327-.328.66-.652 1.017-.957.223-.191.484-.442.823-.472.3-.027.631.097.905.187 1.03.341 1.954.872 2.931 1.303 1.032.456 2.147.808 3.335.697.2-.019.407-.167.326-.357a27.853 27.853 0 0 0-2.745-4.966c2.892-1.149 5.451-2.839 7.442-4.933.212-.223.018-.524-.329-.472Zm758.607 49.283-4.266-3.651a37.275 37.275 0 0 0 4.1-4.48c.132-.17-.039-.465-.289-.439a25.226 25.226 0 0 0-6.397 1.532c-.492.19-1.082.485-1.638.347-.53-.132-.949-.618-1.327-.943l-2.587-2.222c-.203-.175-.576-.05-.571.206l.084 4.073-3.413-.118c-.298-.011-.429.322-.236.497l2.294 2.094a58.753 58.753 0 0 1-4.883 2.054c-.31.114-.325.608.089.573l7.385-.632c-.034 2.138-.023 4.291.593 6.374.09.305.529.247.645 0a39.983 39.983 0 0 0 2.574-7.144c2.53.731 5.038 1.517 7.518 2.366.322.11.55-.295.325-.487Z"/>
    <path fill="#F64E33" d="m428.991 55.224.639-.511 1.275-1.022 2.651-2.122c.215-.172-.02-.422-.26-.389l-5.836.807c-.421.058-1.012.24-1.344-.079-.3-.288-.504-.692-.735-1.023l-1.544-2.212c-.115-.165-.433-.144-.488.056l-1.574 5.749a.21.21 0 0 0-.003.086 22.707 22.707 0 0 0-5.825 1.684c-.217.097-.14.366.063.425l3.098.907 1.549.453c.181.053.599.113.725.253.133.15.042.466.021.637-.209 1.651-.873 3.333-.086 4.945.085.174.363.129.461 0a53.51 53.51 0 0 0 3.997-6.012l7.308 2.833c.27.104.537-.16.323-.366l-2.392-2.3-1.152-1.108c-.374-.36-.786-.707-1.13-1.089-.239-.264.035-.423.259-.602ZM253.393 488.418a146.388 146.388 0 0 0-2.817-24.35c-1.198-5.943-4.231-11.208-9.167-15.693-6.179-5.614-14.096-8.709-21.962-11.236-6.301-2.023-12.729-3.763-19.316-4.357-6.143-.554-12.337-.104-18.501.345-10.174.742-20.515 1.521-30.098 5.246-9.934 3.861-17.746 10.594-23.596 18.208-6.52 8.486-12.425 18.334-15.642 28.034-1.896 5.716-3.55 11.593-3.147 17.514.402 5.921 3.115 11.967 8.633 15.713.649.441 1.366.86 2.193.973 1.93.264 5.441-1.859 6.994-2.775 2.574-1.519 3.307-3.214 2.427-6.021-10.023-31.98 24.329-57.348 59.678-58.692 16.435-.624 35.445 2.996 43.355 16.453 3.829 6.515 5.037 13.867 5.931 21.023.456 3.65 1.362 7.62 1.053 11.325-.427 5.102-2.407 11.931-.763 16.9.779 2.355 3.199 4.522 6.131 4.511 2.389-.009 4.504-1.458 5.635-3.212 1.131-1.754 1.459-3.78 1.728-5.759a145.754 145.754 0 0 0 1.251-24.15Z"/>
    <path fill="#FFCB0F" d="M243.383 511.281c-3.416-20.397 2.401-46.923-16.004-60.932-7.386-5.622-16.636-8.124-25.815-8.861-9.178-.737-18.414.174-27.619.76-15.442.983-32.42 8.166-41.825 21.735-5.279 7.616-8.402 16.596-10.692 25.643-1.127 4.451-2.071 9.12-1.15 13.595 1.13 5.495 6.67 10.823 12.065 11.61 4.516.659 10.611-2.01 10.277-7.542-.741-12.266-1.28-25.512 11.044-34.015 9.905-6.835 24.697-11.188 36.978-13.612 40.262-7.949 32.158 32.116 35.623 52.803 1.541 9.198 18.672 8.093 17.118-1.184Z"/>
    <path fill="#57B4F7" d="M191.996 450.102c-4.071.113-8.192.513-12.444.946-9.448.961-17.824 1.542-26.165 6.153-19.977 11.043-23.477 34.163-23.531 51.672-.032 10.24 20.33 8.941 20.362-1.261.023-7.452-.475-19.044 5.176-25.517 6.109-6.997 23.031-11.002 32.866-13.857 5.354-1.554 10.204-.439 15.19 2.657 3.673 2.281 6.97 3.394 8.158 6.808 3.461 9.948 3.875 20.98 3.174 31.202-.222 3.248 1.886 6.08 5.18 7.719 1.629.81 3.509.781 5.107 1.423 1.903.764 2.487 2.072 4.78 1.333 1.328-.428 3.148-2.606 3.812-3.681 2.574-4.168 1.816-10.123 1.604-14.631-.373-7.944-.186-16.102-1.64-23.955-2.083-11.248-10.138-20.357-23.023-24.612-6.282-2.075-12.386-2.572-18.606-2.399Z"/>
    <path fill="#FF7C69" d="M191.908 460.096c-1.12-.066-2.241-.126-3.359-.185-5.401-.286-10.882-.567-16.176.37-12.75 2.259-21.386 11.891-27.451 20.872-6.277 9.295-9.904 19.865-10.097 30.548-.058 3.205 4.955 3.386 7.735 4.088 2.088.527 3.467 1.263 5.806 1.03 4.659-.463 8.192-3.608 8.214-7.543.037-6.79-.353-17.352 4.413-23.26 5.151-6.386 19.385-10.063 27.658-12.681 4.504-1.425 8.578-.418 12.761 2.395 3.082 2.072 5.85 3.081 6.84 6.189 2.885 9.059 3.206 19.111 2.592 28.426-.254 3.866 6.22 11.271 11.263 7.261 1.42-1.129 1.969-2.802 2.427-4.392 3.105-10.765 4.836-22.052 2.146-32.893-.905-3.647-2.345-7.276-5-10.271-3.616-4.079-9.236-6.672-15.082-8.08-4.77-1.148-9.728-1.579-14.69-1.874Z"/>
    <path fill="#77E6AC" d="M187.281 469.574c-4.193-.216-8.367-.011-12.348 1.061-9.36 2.523-14.524 8.837-19.156 15.58-5.458 7.945-8.62 15.997-9.385 25.231-.07.844-.117 1.711.184 2.52.621 1.666 2.641 2.756 4.699 3.078 1.541.241 4.816.402 6.243-.154 2.125-.828 1.968-2.136 2.596-4.322 2.211-7.7 5.076-15.513 9.848-22.405 3.588-5.183 9.096-10.718 16.877-10.912 4.125-.103 8.325 1.276 11.126 3.819 3.136 2.847 4.418 6.736 4.912 10.493.568 4.315.132 8.704-.675 12.978a68.608 68.608 0 0 1-2.07 8.134c2.75 2.589 13.793 5.702 16.219 1.741 1.074-1.752.835-3.833.759-5.8-.243-6.292 1.456-12.536 1.504-18.831.048-6.296-1.957-13.115-7.91-16.991-3.958-2.577-9.081-3.488-14.03-4.208-3.092-.449-6.248-.849-9.393-1.012Z"/>
    <path fill="#1D6FAB" d="M213.182 487.657c-.602-.053-1.321.281-1.366.84l-.414 5.179c-.042.521.325 1.078 1.007 1.139.603.053 1.322-.281 1.366-.84l.415-5.18c.041-.52-.326-1.078-1.008-1.138Z"/>
    <path fill="#77E6AC" d="M354.376 435.478c-.688-4.479-4.05-8.464-8.711-10.707-2.436-1.173-5.078-1.902-7.808-2.323a20.107 20.107 0 0 0 2.033-1.099c4.407-2.741 7.028-6.834 7.336-11.404.299-4.434-1.688-9.001-5.48-12.141-2.238-1.854-5.149-3.171-8.385-2.857-3.082.299-6.002 1.635-8.576 3.014-3.866 2.072-7.217 4.768-9.896 7.87-.064-3.816-.241-7.753-2.419-11.201-.071-.113-.159-.213-.234-.323-.984-1.818-2.38-3.438-4.418-4.5-2.776-1.448-6.333-1.431-9.359-.437-2.784.469-5.433 1.546-7.53 3.12-3.498 2.626-4.414 6.462-4.562 10.224-.088 2.258.143 4.584.879 6.772-1.823-.989-3.754-1.824-5.863-2.367-3.81-.98-8.389-.775-11.748 1.137-3.407 1.939-4.875 5.354-4.352 8.701.544 3.484 2.78 6.558 6.044 8.747 2.627 1.761 5.648 2.965 8.78 3.952-5.252 2.433-9.703 5.824-10.254 11.21-.324 3.167.905 6.464 4.167 8.315 3.785 2.148 8.837 1.588 12.631-.242 2.673-1.289 4.713-3.209 6.429-5.338-.39 2.415-.496 4.849.032 7.255.796 3.623 3.12 6.7 6.982 8.567 3.299 1.596 7.622 2.022 10.894.14a8.593 8.593 0 0 0 2.356-1.976c3.236-2.637 4.147-6.624 4.219-10.254.055-2.712-.269-5.446-.882-8.135 3.727 2.392 7.756 4.475 12.013 6.099 5.752 2.195 12.437 3.358 18.398 1.023 5.052-1.979 7.998-6.195 7.284-10.842Zm-11.846-27.944a1.072 1.072 0 0 0-.303-.379 14.185 14.185 0 0 0-.226-2.558c.34.943.483 1.949.529 2.937Zm-30.579 24.362.145.078a.767.767 0 0 0-.026.71c.188.44.366.883.537 1.328a1.398 1.398 0 0 0-.612.152c-.07-.392-.157-.782-.235-1.173.065-.365.124-.73.191-1.095Zm-22.919-29.212a24.89 24.89 0 0 1 .314-3.088.445.445 0 0 0 .255-.072c-.08.329-.161.659-.221.989a20.91 20.91 0 0 0-.294 2.574l-.054-.403Zm.239-7.073c-.095.293-.193.586-.278.882a5.588 5.588 0 0 0-.407 1.332l-.276.485c-.08.14-.069.263-.012.363-.218.011-.428.112-.463.324a25.421 25.421 0 0 0 .453 10.443c-.583-1.654-.853-3.395-.905-5.127-.088-2.888.189-6.107 1.888-8.702Zm3.172-2.046a.56.56 0 0 0-.436.194l-.471.58c-.119-.268-.56-.417-.856-.157-.137.122-.247.258-.373.387a.633.633 0 0 0-.191-.05c.101-.113.183-.235.291-.344 1.16-1.168 2.642-2.105 4.276-2.806a12.92 12.92 0 0 0-2.24 2.196Zm3.88 57.729c-.025-.095-.036-.192-.059-.288.295.253.744.341 1.152.266-.408.209-.657.612-.483 1.116a8.014 8.014 0 0 0 1.152 2.153c.174.412.422.788.713 1.137-1.233-1.205-2.048-2.74-2.475-4.384Zm5.266-24.546.23 2.473c-.044.342-.094.683-.143 1.025a4.054 4.054 0 0 0-.56-1.325c.155-.724.304-1.45.473-2.173Zm-1.542 25.352a.915.915 0 0 0 .317-.724c-.001-.044.002-.088.002-.133a.833.833 0 0 0 .147.236l.391 1.232a30.845 30.845 0 0 0-.857-.611Zm11.53 4.119c-2.122 1.658-5.153 2.316-8.087 1.799a9.78 9.78 0 0 1-1.701-.463c.314.09.638.164.974.213 1.643.24 3.267-.094 4.666-.78.051.062.096.128.149.19.501.598 1.68.628 2.08-.087a12.51 12.51 0 0 0 .845-1.84c.655.292 1.634.009 1.769-.665.291-1.45.403-2.907.357-4.359.15-.533.257-1.078.327-1.62.403 2.574.303 5.427-1.379 7.612Zm4.253-20.162c-.041-.128-.087-.254-.128-.381a80.33 80.33 0 0 0 3.686 2.413c.403.361.822.712 1.258 1.053a66.795 66.795 0 0 1-4.816-3.085Zm5.819-28.63 1.017-.661a.794.794 0 0 0-.016.709 37.044 37.044 0 0 0-1.001-.048Zm25.942 28.729c.503.842.796 1.724.699 2.616-.026.058-.046.117-.074.175-.105.215-.341.864-.632.973-.284.106-.617-.208-.848-.389-.135-.105-.26-.219-.392-.327.762-.848 1.153-1.908 1.247-3.048Zm-8.123 5.296a21.632 21.632 0 0 0 3.904-.577c.022-.005.04-.012.061-.018-.865.678-2.598.954-4.23 1.046a.959.959 0 0 0 .265-.451Zm.305-15.532c-.239.169-.414.408-.47.658a37.176 37.176 0 0 0-1.732-.859 1.254 1.254 0 0 0-.547-.114.928.928 0 0 0 .11-.36c.905.132 1.785.365 2.639.675Zm-.715 4.543a17.398 17.398 0 0 0-1.997-1.215c.175-.081.329-.188.45-.312.058.101.133.202.24.299.446.402.876.815 1.307 1.228Zm-1.381-21.877.05-.063c.541.052 1.131-.215 1.336-.691a15.24 15.24 0 0 1-.012 1.556c-.097.337-.209.67-.345.994a10.84 10.84 0 0 1-.754 1.455 1.3 1.3 0 0 0-.594-.163l1.231-1.658c.476-.64-.173-1.31-.912-1.43Zm-1.252-1.82c-.028.015-.057.027-.085.045l-.834.549.758-1.062c.049.157.109.311.161.468Zm-.413-6.706a.87.87 0 0 0 .193.348c.043.048.081.098.122.146-.307.037-.604.159-.815.384 0-.399-.267-.774-.919-.866a5.962 5.962 0 0 1-1.113-.261c.847.001 1.703.083 2.532.249Zm-9.825 6.856c-.054.739.847 1.424 1.8.931l1.515-.782c-.383.407-.762.815-1.154 1.216a28.777 28.777 0 0 0-3.401-.595l1.24-.77Zm.872 18.222c.361-.187.72-.38 1.074-.58.142.001.284-.008.426-.01.003.259.11.508.382.667l.311.183c.026.058.057.113.093.167-.759-.153-1.519-.3-2.286-.427Zm4.444-27.186c-1.439.185-2.84.554-4.18 1.054a28.979 28.979 0 0 1 3.003-1.283c.507-.18 1.013-.332 1.518-.453-.121.234-.23.462-.341.682Zm.232 33.188-.989-.828 1.421.578c-.163.059-.31.144-.432.25Zm1.986-2.013-1.952-.964c.748.185 1.493.381 2.232.592a1.088 1.088 0 0 0-.28.372Zm1.988-2.93c.085.017.164.01.245.01a.843.843 0 0 0-.114.628l-1.514-.889c.462.077.923.16 1.383.251Zm-.272 5.73c.295.193.65.233.978.162.193.251.393.5.592.749l.95 1.392-3.336-2.35c.298.107.576.112.816.047Zm11.666 12.138c-3.361 1.661-7.209 1.829-10.922 1.222 2.112.206 4.241.178 6.322-.131 1.99-.294 3.908-.893 5.458-1.998a7.52 7.52 0 0 0 2.142-2.359c1.269-1.512 1.709-3.406 1.274-5.187.02-.759-.002-1.518-.078-2.256l-.011-.076c.114.267.221.539.315.816 1.323 3.898-.243 7.865-4.5 9.969Z"/>
    <path fill="#F64E33" d="m317.757 416.082 18.466-11.741c.522-.332-.029-1.054-.555-.72l-18.457 11.736c.184.241.378.478.546.725Zm22.772-5.059c-4.777 1.53-9.568 3.064-14.525 4.147-2.596.567-5.312.906-7.942 1.45.156.248.319.493.462.745 2.665-.54 5.429-.857 8.032-1.434 4.874-1.079 9.588-2.589 14.29-4.095.615-.197.301-1.011-.317-.813Zm-37.312-9.629a111.728 111.728 0 0 0 1.507 11.082c.336-.053.673-.097 1.012-.131a112.601 112.601 0 0 1-.962-6.061 114.26 114.26 0 0 1-.584-5.558c-.133-1.64-.285-3.281-1.223-4.761-.309-.487-1.169-.021-.863.462.963 1.52.969 3.293 1.113 4.967Zm-2.485 12.19c.315-.13.635-.25.96-.362a129.331 129.331 0 0 0-4.312-16.101c-.18-.53-1.155-.265-.975.264a128.18 128.18 0 0 1 4.327 16.199Zm-6.231 4.917c.061-.088.121-.177.184-.264.041-.164-.025-.338-.265-.429l-9.394-3.541c-2.937-1.107-5.885-2.367-9.094-2.816-.649-.091-.86.747-.206.838 3.201.448 6.136 1.722 9.066 2.827l9.163 3.454a.562.562 0 0 0 .546-.069Zm-1.054 1.918-18.485-1.093c-.657-.038-.592.816.059.854l18.082 1.069c.104-.281.22-.557.344-.83Zm.771 8.661a403.066 403.066 0 0 0-17.553 9.769c-.538.318.015 1.039.555.72a402.887 402.887 0 0 1 17.466-9.724 10.656 10.656 0 0 1-.468-.765Zm1.044 1.592-16.129 12.839c-.479.38.282.954.757.576l15.975-12.715a11.883 11.883 0 0 1-.603-.7Zm5.548 4.083a213.81 213.81 0 0 0-1.457 12.597c-.047.547.978.494 1.025-.049.348-4.065.821-8.122 1.408-12.167-.33-.119-.656-.244-.976-.381Zm5.904 1.885c.018-.55-1.006-.499-1.024.049l-.369 11.514c-.018.55 1.006.499 1.024-.049l.369-11.514Zm31.804 3.728c.077-.117.152-.234.23-.35-1.35-.31-2.644-.831-3.895-1.359-2.188-.924-4.371-1.856-6.557-2.783l-8.988-3.815c-.238.226-.498.43-.753.639l9.729 4.13c2.244.952 4.477 1.925 6.735 2.855 1.043.429 2.12.831 3.233 1.106.084-.143.175-.284.266-.423Zm5.421-9.591a480.67 480.67 0 0 0-24.156-2.339c-.091.28-.197.556-.314.829 8.114.58 16.207 1.357 24.265 2.347.649.08.861-.757.205-.837Zm-12.862-6.718a98.004 98.004 0 0 0-10.706.921c-.004.011-.001.021-.005.033-.014.033-.032.066-.046.099-.01.247-.028.494-.05.741a96.99 96.99 0 0 1 10.866-.94c.66-.02.602-.874-.059-.854Z"/>
    <path fill="#F64E33" d="M323.496 420.34c-.696-3.46-2.258-7.134-5.664-9.39-3.765-2.493-8.74-2.542-13.264-1.845-.321.05-.563.183-.738.355-9 1.173-16.241 6.817-16.379 14.688-.13 7.425 6.229 12.771 14.605 14.393 4.134.802 8.748.795 12.619-.786 7.679-3.136 10.146-10.842 8.821-17.415Zm-19.844-1.868-.008.01a33.526 33.526 0 0 0-.973 2.291l-.04-1.728c-.008-.362-.263-.637-.603-.791l.849-.67c.195-.079.368-.197.493-.358l.074-.091a.301.301 0 0 0 .028-.022c-.037.15-.076.299-.135.453-.147.384.018.699.315.906Zm-4.141 1.994c-.202.454-.407.906-.59 1.365a247.78 247.78 0 0 0-.014-.862c.206-.163.406-.331.604-.503Zm3.775 6.993a29.11 29.11 0 0 1 .626-2.945l.237 3.297a1.227 1.227 0 0 0-.863-.352Zm.997 5.092c-.279.004-.557.001-.835-.009l.162-.657c.008.026.021.05.029.077.094.305.346.491.644.589Zm1.27-14.289c.009-.015.022-.026.03-.041l.867-1.447c.022.048.061.084.093.126-.23.655-.436 1.315-.63 1.977-.018-.248-.16-.456-.36-.615Zm1.266 9.224.283-1.436.282 4.359c-.114.106-.228.212-.347.315-.094-.074-.19-.147-.282-.222a36.09 36.09 0 0 1 .064-3.016Zm3.26 3.337c-.003.067 0 .135-.002.202a.782.782 0 0 0 .334.703c-.523.131-1.051.239-1.58.334.452-.389.864-.806 1.248-1.239Zm-.307-3.657c.037-.655.099-1.308.187-1.959.035.456.046.912.069 1.368a9.08 9.08 0 0 1-.256.591Zm3.472-9.697c.081-.04.165-.076.245-.118l.283.594c-.2-.006-.4.022-.588.091a.811.811 0 0 0 .055-.28c0-.096.003-.191.005-.287Zm.704 12.687c-.476.283-.97.541-1.478.777l.005-.024c.011-.145.028-.29.041-.435.421-.013.824-.173.982-.525.115-.257.222-.516.331-.775a.957.957 0 0 0 .146.188c-.008.265-.012.529-.027.794Zm6.75-10.118a31.973 31.973 0 0 0-.1-.331 3.019 3.019 0 0 1-.075-.45 2.736 2.736 0 0 1 .046-.659c.01-.008.02-.014.028-.022.155.47.283.952.398 1.438a.563.563 0 0 0-.297.024Zm-2.051-5.297-.052.186c-.275-.497-.779-.685-1.246-.64l-.235-.572a6.49 6.49 0 0 0-.302-.847 9.733 9.733 0 0 1 1.835 1.873Zm-5.313-3.103c.403.233.996.264 1.434.036.04.016.078.035.118.052-.519.159-.887.583-.642 1.182l.137.333a5.408 5.408 0 0 0-.256.024l-.549-1.154a1.029 1.029 0 0 0-.35-.381l.108-.092Zm-12.514 4.82-.565.446-.123-.731c.195.152.436.253.688.285Zm-3.455-.133c-.45.587-.884 1.195-1.299 1.817-.212-.072-.49-.018-.63.17l-.558.751-.019-.206 2.024-2.783c.134.117.301.198.482.251Zm-4.269 3.627h.004c-.16.483-.3.97-.422 1.461-.147.455-.286.912-.441 1.366l.055-1.332.804-1.495Zm-1.491 10.498a.802.802 0 0 0 .219-.287c.297-.657.579-1.318.857-1.981-.006 1.186.01 2.371.056 3.557-.41-.413-.79-.842-1.132-1.289Zm2.876 2.785c.295-.122.547-.328.652-.641.02-.057.038-.115.057-.173.259.308.547.588.864.842.003.003.004.006.008.008a7.12 7.12 0 0 0 .459.331l.587.519c.265.309.506.631.729.961.001.023.005.045.006.067a18.716 18.716 0 0 1-2.711-1.45c-.226-.148-.437-.307-.651-.464Zm21.048 1.747c-4.505 2.792-11.023 2.614-16.253.738-.13-.247-.27-.488-.42-.726a.41.41 0 0 0 .068-.133c.495.209.999.403 1.518.564 2.678 1.747 6.688 1.928 9.893 1.15a15.71 15.71 0 0 0 3.109-1.117c.009-.003.017-.003.026-.007.189-.076.371-.165.556-.248.373-.085.75-.158 1.119-.257a.416.416 0 0 0 .308-.467c1.759-1.024 3.23-2.365 4.324-3.914-.954 1.706-2.337 3.233-4.248 4.417Zm4.547-4.982c-.026-.222-.308-.376-.57-.342.02-.043.049-.083.068-.127a.987.987 0 0 0 .088-.482c.178.19.431.3.704.335-.089.208-.189.412-.29.616Z"/>
    <path fill="#FF7C69" d="M445.258 393.524c-2.473-3.741-8.332-4.987-13.077-3.817-4.11 1.012-6.872 3.481-8.792 6.423-1.619-2.829-3.953-5.271-7.745-6.497-5.213-1.686-10.682.208-12.826 4.471-3.177 6.32 2.121 13.028 5.417 18.49.876 1.45 12.489 16.856 13.213 16.296 8.288-6.412 15.34-13.91 20.808-22.128 2.54-3.816 5.806-8.998 3.002-13.238Z"/>
    <path fill="#F64E33" d="M651.995 369.765c-2.207-5.158-.313-11.135 5.943-14.435 5.514-2.907 13.303-2.388 18.192 1.214-1.474-4.802-1.333-10.16 1.729-14.409 3.061-4.249 9.494-6.979 15.174-5.507 2.94.762 5.377 2.506 7.395 4.444 6.946 6.672 6.116 13.3 5.869 21.659-.187 6.307.461 14.848-1.763 20.828-2.475 6.655-15.896 1.079-21.88.087-9.158-1.518-20.064-3.249-26.928-8.983-1.723-1.44-2.97-3.12-3.731-4.898ZM160.818 251.751c-.285-1.508-.426-3.039-.076-4.53 1.276-5.424 9.461-8.505 15.619-6.452 6.159 2.053 9.595 8.1 8.707 13.578.767-5.097 5.187-8.257 10.97-9.242 1.526-.26 3.088-.475 4.634-.32 5.777.577 9.157 6.303 8.122 11.074-1.036 4.772-5.156 8.63-9.351 11.991-6.832 5.472-14.523 10.982-22.864 14.784-7.339-9.126-13.045-18.719-15.523-29.745a33.27 33.27 0 0 1-.238-1.138Z"/>
    <path fill="#FFCB0F" d="M203.247 257.08c-.745-.243-1.369.029-1.76.563.142-.194-.006.008-.035.047a15.096 15.096 0 0 1-.501.632 21.108 21.108 0 0 1-3.202 3.115l-.087.066a18.965 18.965 0 0 1-.685.499c-.649.455-1.329.878-2.034 1.273-.579.324-.74 1.088-.305 1.55.458.485 1.242.6 1.86.254 3.033-1.699 5.526-3.939 7.424-6.533.364-.498-.065-1.266-.675-1.466Zm-6.629-1.006c-.575-.359-1.406-.33-1.876.153l-3.709 3.815c-.439.451-.395 1.202.183 1.563.575.359 1.406.33 1.876-.153l3.71-3.815c.438-.451.395-1.202-.184-1.563Zm-25.504 3.899a48.31 48.31 0 0 1-3.553-12.006c-.223-1.415-2.873-1.178-2.649.244a50.614 50.614 0 0 0 3.714 12.558c.594 1.343 3.081.546 2.488-.796Zm6.797 12.753a15.844 15.844 0 0 1-2.345-2.718l-.089-.132c-.21-.369-.442-.726-.638-1.101-.28-.532-1.04-.885-1.722-.638-.637.23-1.064.866-.766 1.434a16.764 16.764 0 0 0 3.395 4.451c.246.229.505.402.884.45.317.04.72-.028.976-.196.519-.339.8-1.087.305-1.55Zm7.514-3.177a.849.849 0 0 0-.28-.355 1.015 1.015 0 0 0-.422-.261c-.321-.105-.694-.14-1.02-.022a1.36 1.36 0 0 0-.74.585l-.92 1.533a.726.726 0 0 0-.104.43.715.715 0 0 0 .077.42c.058.14.151.258.28.355.111.117.252.205.422.261.321.106.694.14 1.02.023.333-.121.576-.312.74-.585l.92-1.534a.717.717 0 0 0 .104-.43.715.715 0 0 0-.077-.42Zm-5.615-18.722c-.735-.065-1.383.32-1.516.933l-.921 4.218c-.124.571.418 1.202 1.119 1.264.736.065 1.383-.32 1.517-.933l.92-4.217c.125-.572-.418-1.202-1.119-1.265Z"/>
    <path fill="#1D6FAB" d="M618.513 66.125c5.241-.38 13.41-2.596 13.209-8.334-.023-.659-.227-1.303-.433-1.94-1.3-4.012-2.759-7.998-4.691-11.83-.864-1.715-1.911-3.484-3.78-4.5-4.541-2.466-18.65 4.453-23.091 6.3-6.429 2.674-12.143 5.845-17.846 9.302-5.45 3.305-12.264 5.054-18.343 7.433-6.39 2.5-12.666 5.592-17.018 10.224 23.978-3.048 47.875-4.907 71.993-6.655Z"/>
    <path fill="#57B4F7" d="M623.023 57.97c-5.574.659-11.189 1.138-16.747 1.881-10.945 1.465-53.142 9.809-52.657 9.573 4.003-1.948 27.72-9.492 31.888-11.181 7.46-3.026 14.97-5.953 22.389-9.05 3.785-1.58 7.583-3.145 11.458-4.567 1.423-.522 5.354-1.2 6.282-2.162.93-.964.2-1.569.531-2.848 1.738-6.713.745-14.798-.031-21.573-.138-1.21-.31-2.45-.969-3.534-.658-1.086-1.909-2.002-3.367-2.059-.931-.036-1.829.272-2.666.613-3.17 1.29-5.975 3.114-8.754 4.925-25.932 16.898-52.447 33.065-75.319 52.924-1.427 1.24-3.897 3.189-3.241 5.068.632 1.811 3.309 2.24 5.27 2.339 25.101 1.26 50.252 1.822 75.325 3.425 6.439.412 12.642.388 19.075.23 5.703-.139 11.287.471 16.996-.68-1.281-4.504-4.247-8.528-7.169-12.465-2.223-2.995-4.572-8.161-7.745-10.443-3.081-2.217-6.335-.913-10.549-.415Z"/>
    <path fill="#171714" d="M630.163 55.713a215.73 215.73 0 0 0-21.519 2.378c-1.505.244-1.257 2.234.264 1.988a215.743 215.743 0 0 1 21.518-2.378c1.542-.092 1.278-2.08-.263-1.988Zm-4.682 13.067-7.873-.346c-.647-.028-1.262.269-1.366.84-.09.495.357 1.11 1.008 1.139l7.873.345c.647.028 1.262-.268 1.366-.84.09-.494-.357-1.11-1.008-1.138Zm3.814 4.479c-2.53.444-5.038.453-7.564.02-.635-.11-1.272.326-1.366.84-.101.557.371 1.028 1.008 1.138a24.11 24.11 0 0 0 8.185-.01c.634-.11 1.138-.53 1.062-1.104-.067-.497-.688-.996-1.325-.884ZM611.176 30.32c-.512-.319-1.275-.302-1.69.138l-4.558 4.834c-.387.411-.361 1.08.165 1.408.511.32 1.275.303 1.689-.137l4.559-4.835c.387-.41.361-1.08-.165-1.408Z"/>
    <path fill="#FFCB0F" d="M646.037 131.222c4.996-2.215 11.439-2.307 15.897.552-.824-5.708 4.365-11.567 11.152-12.595 6.787-1.027 14.117 2.937 15.755 8.522-.46-7.211 4.754-14.372 12.476-17.648 7.722-3.276 17.512-2.658 24.775 1.281 7.74 4.197 11.828 11.41 12.313 18.863 5.855.418 11.182 1.584 15.721 4.893 8.026 5.85 12.551 16.307 5.825 24.756-5.874 7.377-17.148 9.003-26.022 6.204-3.562 6.708-11.741 10.856-20.145 12.217-7.783 1.26-18.693.997-25.397-2.771-5.013-2.818-8.495-7.455-9.346-12.443-7.605 1.999-15.616 3.449-23.525 2.601-8.696-.933-18.878-5.434-20.605-13.2-1.545-6.943 2.1-15.608 8.805-19.978a16.583 16.583 0 0 1 2.321-1.254Z"/>
    <path stroke="#1B0512" stroke-linecap="round" stroke-miterlimit="10" stroke-width="2" d="M738.411 144.419c-.928-2.092-2.678-3.983-5.069-4.988-2.39-1.004-5.435-1.011-7.653.238-2.217 1.249-3.343 3.813-2.31 5.871m-19.029 3.075c-3.572 2.517-9.368 2.467-12.877-.111m-20.885.166c.562-1.582-.083-3.356-1.378-4.605-1.294-1.249-3.16-2.015-5.085-2.4-1.709-.341-3.662-.364-5.057.526-2.19 1.398-1.924 4.162-1.442 6.426"/>
    <path fill="#fff" d="M727.961 163.955c-1.803 3.531-5.423 6.276-9.822 7.459-.617.166-.913.807-.69 1.292.243.528.932.742 1.55.575 4.963-1.334 9.115-4.517 11.155-8.512.604-1.184-1.587-2.001-2.193-.814Zm-20.497 8.071-3.522.518c-.31.046-.591.152-.795.36-.19.191-.313.495-.266.744.094.507.664.982 1.325.885l3.522-.518c.31-.046.591-.152.795-.359.19-.192.312-.495.266-.745-.094-.507-.664-.982-1.325-.885Zm-9.043-55.679c-.62-.229-1.289.024-1.585.507-1.619 2.646-2.586 5.571-2.81 8.535-.04.539.327 1.052 1.008 1.139.598.075 1.325-.298 1.366-.84.212-2.808 1.095-5.514 2.629-8.02.295-.482-.038-1.109-.608-1.321Zm7 .373a1.119 1.119 0 0 0-.632-.555c-.289-.095-.624-.126-.918-.02-.279.101-.56.278-.666.526l-1.036 2.418c-.109.253-.143.507-.024.765.105.229.354.464.632.555.289.095.625.126.918.02.28-.101.56-.279.666-.527l1.036-2.417c.109-.253.143-.508.024-.765Zm-25.851 8.063c-1.636-1.967-4.686-3.056-7.524-2.633-.616.092-1.164.546-1.061 1.104.094.506.664.983 1.325.884.278-.041.558-.069.84-.079.079-.003.157-.002.235-.005 0 0 .001 0 0 0l.018.001c.14.008.281.016.421.03.28.027.558.069.832.127.038.007.061.01.08.011.04.012.082.027.108.034.149.042.296.088.441.138.261.09.511.199.759.311a.437.437 0 0 0 .067.026c.038.024.075.05.098.062a6.9 6.9 0 0 1 .837.568l.08.066.063.057a5.34 5.34 0 0 1 .431.465c.358.43 1.172.558 1.675.228.519-.339.657-.936.275-1.395Zm-30.853 10.103c-5.751 1.742-9.624 6.583-9.52 11.652.012.54.724.939 1.325.884.694-.064 1.072-.562 1.061-1.104-.086-4.175 3.319-8.149 7.994-9.565 1.454-.44.593-2.307-.86-1.867Zm106.899 16.427c-.701-.062-1.197.295-1.366.839l-1.282 4.136c-.157.508.409 1.085 1.008 1.138.701.062 1.197-.295 1.366-.839l1.282-4.136c.157-.508-.409-1.085-1.008-1.138Z"/>
    <path fill="#FFA649" d="M737.765 150.786c-.767-.948-2.225-1.326-3.53-1.401-1.925-.11-3.91.088-5.8.387-.472.075-.866.335-1.009.695a2.46 2.46 0 0 0-.889.851 1.82 1.82 0 0 0-.241.706.896.896 0 0 0 .142 1.4c.056.036.117.058.174.093.052.075.105.151.164.22.183.211.487.367.796.406.105.013.222-.001.338-.014 2.481.9 5.353.508 7.924-.176.755-.201 1.592-.377 2.08-.942.587-.68.381-1.569-.149-2.225Zm-63.806 4.495c-.829-1.775-3.055-2.378-5.145-2.553-1.518-.127-3.067-.219-4.518.09-.94.165-1.855.446-2.71.84-.757.349-.529 1.174-.062 1.585 3.056 2.692 7.88 2.306 11.745 1.33.619-.156.912-.816.69-1.292Z"/>
    <path stroke="#57B4F7" stroke-linecap="round" stroke-miterlimit="10" stroke-width="2" d="M403.06-26.837c2.371 21.421 4.536 43.963-6.063 63.578-3.548 6.566-8.515 12.777-9.838 19.893-2.449 13.164 9.018 26.228 23.796 31.308 17.782 6.112 51.221 4.354 68.946-2.313 20.63-7.761 36.722-22.524 48.14-38.491 11.552-16.155 18.983-34.088 25.976-51.968"/>
  </g>
</svg>
