<svg xmlns="http://www.w3.org/2000/svg" width="750" height="500" fill="none" viewBox="0 0 750 500">
  <mask id="a" width="750" height="500" x="0" y="0" maskUnits="userSpaceOnUse" style="mask-type:luminance">
    <path fill="#fff" d="M750 .31H.379V500H750V.31Z"/>
  </mask>
  <g mask="url(#a)">
    <path fill="#55B01C" d="M458.785 471.815c-.515-2.38-3.068-2.214-4.934-1.723-2.183.574-4.165 1.799-5.811 3.325-1.662 1.54-2.967 3.388-4.06 5.364a1310.6 1310.6 0 0 1 .153-22.08c.167-10.319.462-20.635.873-30.946.083-2.059-3.121-2.574-3.204-.486-.46 11.509-.753 23.025-.914 34.543a17.674 17.674 0 0 0-.507-.715 29.453 29.453 0 0 0-5.275-5.453c-.962-.765-2.264-1.508-3.436-.68-.789.557-1 1.589-.87 2.497.144 1.015.651 1.88 1.218 2.715.644.947 1.396 1.82 2.215 2.619.23.224.485.421.728.632.133.363.291.721.507 1.061.802 1.27 2.148 2.107 3.602 2.407.454.46.919.91 1.406 1.339.098.087.207.14.319.177-.042 4.658-.06 9.317-.052 13.976.001.495.009.991.01 1.486a89.253 89.253 0 0 0-4.088-7.144c-2.035-3.188-4.64-6.875-8.2-8.494-1.275-.58-3.033-.822-4.148.206-1.534 1.415-.469 3.608.225 5.168 1.745 3.923 4.259 7.439 7.029 10.699 1.527 1.798 3.133 3.527 4.754 5.24 1.259 1.332 2.678 2.647 4.488 2.894.141 15.064.528 30.125 1.188 45.176.388 8.845.886 17.685 1.453 26.522a.495.495 0 0 0-.267.46l.701 30.698c.015.646.997.526.994-.109l-.038-6.871c.065.772.113 1.544.187 2.315.061.645 1.026.53.993-.109l-.047-.928c.298.116.725-.072.718-.499-.013-.702-.045-1.404-.064-2.106l.009.133c.17 2.891.318 5.784.446 8.677.012.28.205.409.417.422.026 1.768.038 3.535.03 5.303-.002.642.991.529.994-.109a273.98 273.98 0 0 0-1.767-32.182c.14-.252.22-.553.196-.909a1316.678 1316.678 0 0 1-2.556-54.649c-.201-7.808-.318-15.618-.381-23.428.125-.002.249-.011.371-.031 1.057-.171 2.021-.856 2.906-1.421a32.503 32.503 0 0 0 5.347-4.296c1.6-1.58 3.031-3.33 4.257-5.215 1.026-1.576 2.315-3.483 1.885-5.471Zm-21.19 14.189a135.665 135.665 0 0 1-3.657-4c-2.269-2.599-4.405-5.336-6.123-8.335-.838-1.462-1.89-3.218-2.225-4.887-.246-1.226.685-1.186 1.611-.855-.659.064-1.151.887-.743 1.59.222.381.455.756.681 1.134 2.201 5.928 6.001 11.119 10.908 15.041a102.88 102.88 0 0 0 2.186 2.441c.083.09.181.159.286.212-1.162-.393-2.113-1.484-2.924-2.341Zm-4.831-31.174a.66.66 0 0 1 .033-.198c.007-.011.038-.022.049-.028.379-.015.799.43 1.07.648.18.144.352.298.528.447-.538.082-1.014.602-.885 1.166-.069-.105-.147-.203-.214-.31-.322-.511-.635-1.101-.581-1.725Zm12.465 30.897c-.161.094-.827.454-1.23.52-.001-.246-.006-.492-.007-.737.142-.177.302-.347.425-.506.121-.159.247-.315.37-.473.182.157.426.265.735.295.142.013.283-.002.422-.029.173.063.357.099.546.118-.418.275-.83.559-1.261.812Zm8.432-7.391a16.493 16.493 0 0 0 1.47-2.39 8.772 8.772 0 0 1-1.47 2.39Zm2.729-5.992a1.7 1.7 0 0 0-.198-.622c.242.028.453.11.574.302.12.191.154.418.15.658a2.086 2.086 0 0 0-.526-.338Z"/>
    <path fill="#FFCB0F" d="M487.218 406.543c-2.225-1.907-5.209-2.903-8.007-3.626-4.366-1.128-8.935-1.362-13.392-.749a30.561 30.561 0 0 0 4.949-5.109c2.576-3.381 5.185-7.75 4.345-12.181-.761-4.018-4.53-7.017-8.422-7.748-4.335-.814-8.754.783-12.311 3.205-3.409 2.321-6.28 5.389-8.409 8.91-.264-3.227-.804-6.424-2.217-9.372-1.627-3.395-4.735-6.412-8.48-7.27-3.799-.869-7.582.741-10.031 3.679-2.55 3.058-3.674 6.974-3.401 10.921.219 3.176 1.155 6.198 2.343 9.128-5.393-1.769-11.07-2.245-15.904 1.518-2.843 2.213-4.798 5.601-4.246 9.288.64 4.277 4.346 7.349 8.302 8.571 2.787.861 5.693.797 8.565.349a31.22 31.22 0 0 0-3.647 2.978c-1.795 1.272-3.392 2.786-4.599 4.675-2.501 3.912-3.052 9.081.077 12.826a11.478 11.478 0 0 0 3.001 2.53c.961.803 2.088 1.402 3.372 1.69a8.698 8.698 0 0 0 3.155.112c2.019.102 3.953-.394 5.758-1.231 3.825-1.523 7.063-4.293 9.782-7.388.685-.78 1.34-1.586 1.985-2.4.428 4.148 1.251 8.262 2.545 12.204 1.864 5.677 5.183 11.206 10.949 13.542 4.887 1.98 10.284.778 13.693-3.293 3.285-3.924 4.444-9.321 3.321-14.279-.586-2.591-1.674-4.984-3.074-7.201a18.2 18.2 0 0 0 2.218.565c5.107.945 10.194-.388 14.194-3.691 3.88-3.205 6.406-8.096 6.587-13.141.107-2.978-.664-6.011-3.001-8.012Zm-22.789 25.93c.47.729.841 1.519 1.131 2.35a1.324 1.324 0 0 0-.85.18 33.13 33.13 0 0 0-.395-1.862 1.008 1.008 0 0 0-.257-.466c.137-.045.259-.115.371-.202Zm-1.707-.254c.041.071.098.121.149.177a1.116 1.116 0 0 0-.595.404l-.232-1.733c.233.379.46.762.678 1.152Zm-1.122 3.356a1.368 1.368 0 0 0-.095.397c-.049.619-.117 1.235-.184 1.851a16.3 16.3 0 0 0-.269-2.319c.178.058.367.083.548.071Zm-2.372-9.871c.09.1.188.191.281.289-.214.2-.352.466-.31.777l.048.357a1.341 1.341 0 0 0-.08.192 54.606 54.606 0 0 0-1.111-1.913c.388.107.778.207 1.172.298Zm.271 7.299a1.222 1.222 0 0 0-.489.092l-.451-2.095c.327.661.641 1.328.94 2.003Zm-1.719 3.436c.029.353.223.63.493.803-.084.327-.163.657-.243.986l-.549 1.73-.185-4.12c.103.288.276.485.484.601Zm-1.665-4.495.432 1.43a1.262 1.262 0 0 0-.486-.107l.054-1.323Zm-37.817-4.517c.267.004.548-.094.806-.337.036-.035.075-.067.112-.101a1.049 1.049 0 0 0-.103.284l-.773 1.218c-.009-.355-.02-.709-.042-1.064Zm-2.236-1.937a9.76 9.76 0 0 0-1.053 2.455c-.231.438-.385.9-.489 1.37.212-1.782.967-3.529 2.061-5.091.063-.09.137-.172.202-.261-.022.399.193.778.517 1.003-.436-.122-.93.016-1.238.524Zm-.738 8.182c.854 1.324 2.174 2.193 3.642 2.634-.019.084-.045.166-.063.25-.176.807.555 1.648 1.406 1.376a15.85 15.85 0 0 0 2.074-.831c.176.679 1.04 1.14 1.688.715.572-.376 1.12-.778 1.656-1.195.304-.019.608-.061.908-.127-1.307 1.023-2.765 1.811-4.369 2.097-2.741-.196-5.231-1.791-6.683-4.222a7.996 7.996 0 0 1-.706-1.536c.126.287.273.568.447.839Zm22.945-23.34c.703-.451 1.403-.906 2.113-1.345l-1.91 2.063c-.313.232-.63.46-.945.689.329-.455.586-.924.742-1.407Zm4.022 21.405a63.757 63.757 0 0 1-.444-4.568l.238-.314c.071 1.067.155 2.135.276 3.2a24.645 24.645 0 0 0-.07 1.682Zm24.053 17.579c-2.395 3.917-6.7 5.884-11.181 4.552-3.538-1.052-6.145-3.59-8.022-6.632 1.184 1.622 2.573 3.077 4.164 4.283 1.521 1.152 3.25 2.021 5.163 2.245 1.139.134 2.262-.004 3.337-.329a7.64 7.64 0 0 0 5.132-3.109c.645-.57 1.263-1.17 1.828-1.79.019-.022.036-.045.055-.066-.148.285-.305.567-.476.846Zm3.581-40.558a28.5 28.5 0 0 0-.602-.731l1.202.196c-.271.092-.475.29-.6.535Zm13.819 2.583a4.826 4.826 0 0 1-.496-.973 10.38 10.38 0 0 1 1.416 1.947 1.058 1.058 0 0 0-.165.402c-.013.066-.03.131-.044.197a1.172 1.172 0 0 0-.842-.27c.332-.307.473-.78.131-1.303Zm-.783-4.766c.476.213.927.447 1.351.704-.272.096-.531.195-.786.289-1.077-.856-2.282-1.543-3.558-2.087 1.022.308 2.029.661 2.993 1.094Zm-3.325 10.715c-.1.155-.189.316-.286.472-.031-.008-.06-.019-.093-.024l-.991-.156 1.37-.292Zm-6.727-3.962c-.491-.991-1.081-1.936-1.686-2.816l1.436.267c-.65.531-.642 1.683.379 1.966l1.622.448c-.583.047-1.167.098-1.751.135Zm5.943 8.273c-.343.191-.691.37-1.048.525a13.18 13.18 0 0 1-1.695.597 1.08 1.08 0 0 0-.245-.538l2.169-.421c.838-.163.979-1.129.605-1.734l.085-.013c.303.415.904.619 1.432.395-.417.414-.852.81-1.303 1.189Zm1.827-9.098-1.034-.286.565-.05c.196-.018.368-.086.518-.183-.018.173-.024.348-.049.519Zm1.947 10.083c.078-.163.118-.333.12-.502a19.171 19.171 0 0 0 1.985-2.125c-.567.961-1.312 1.834-2.105 2.627Zm5.305-7.437a9.879 9.879 0 0 0-.191-1.126c.074-.288.14-.583.197-.882.05.67.048 1.341-.006 2.008Z"/>
    <path fill="#F64E33" d="M465.265 404.617a.857.857 0 0 0-.071-.697c-1.876-3.401-4.101-6.749-7.381-8.948a18.129 18.129 0 0 0-9.915-3.053c-6.936-.064-13.334 4.26-16.109 10.585-3.022 6.888-1.041 15.526 3.994 20.968 2.692 2.911 6.164 3.959 10.037 4.187 3.888.229 7.656-.357 11.066-2.3 5.193-2.96 8.283-8.343 8.658-14.033.008-.053.02-.104.027-.156.326-2.197.197-4.402-.306-6.553Zm-19.31-2.305c.165-.146.338-.283.506-.426.03.131.058.262.096.388a9.363 9.363 0 0 0-.512.356.86.86 0 0 0-.09-.318Zm11.021 6.087.027-.045-.001.326c-.023.256-.034.515-.073.768-.06.007-.12.012-.182.033-.043.014-.081.034-.123.049l.352-1.131Zm3.371.106c.125.225.244.453.37.677a24.789 24.789 0 0 1-.651 3.205c.022-.747.01-1.494-.033-2.24.125-.543.235-1.089.314-1.642Zm-11.586 9.419c.247-.054.491-.124.732-.202l-.035.518a16.61 16.61 0 0 1-1.252.684c.19-.331.376-.664.555-1Zm8.208-.787c.022.335.053.669.092 1a9.694 9.694 0 0 1-2.651 2.056c.95-.936 1.81-1.958 2.559-3.056Zm-8.668-20.836c.042.028.075.064.126.085l.084.034a42.5 42.5 0 0 0-.35.233h-.061c-.506-.19-1.04-.071-1.565.21-.216.047-.432.099-.647.161a.93.93 0 0 0-.599-.477 14.712 14.712 0 0 1 1.598-.382l1.414.136Zm-5.134 20.202a8.2 8.2 0 0 0 .12 1.03c-.073.11-.146.194-.213.217-.095.033-.17-.053-.229-.214.11-.343.217-.688.322-1.033Zm.846 6.947c.388.171.781.328 1.183.457-.594-.081-1.176-.2-1.75-.337.19-.034.378-.074.567-.12Zm-.028-2.88c.396.059.815-.137.918-.631.305.073.642.004.843-.267.184-.247.352-.505.523-.761a.796.796 0 0 0 .2.161c.065.586.299 1.101.816 1.456.137.094.28.148.426.182a6.128 6.128 0 0 1-1.311.301c-.908.098-1.724-.07-2.415-.441Zm19.109-16.95a.763.763 0 0 0-.216.873.729.729 0 0 0-.21.138c-.947-2.634-2.249-5.07-4.244-7.023l-.097-.113c1.944 1.711 3.453 3.877 4.767 6.125Zm-25.751-.852c.03.585.635 1.109 1.193.748-.238.463-.455.937-.651 1.42-.296-.722-1.498-.811-1.601.137a65.74 65.74 0 0 0-.23 2.732c-.136-.264-.396-.377-.674-.364a16.462 16.462 0 0 1 1.963-4.673Zm-5.29 6.239.001.047c.039.49.548.781.992.739l.001.011a29.63 29.63 0 0 0 .456 7.056c-1.019-2.487-1.533-5.213-1.45-7.853Zm16.629 17c-3.583.182-7.635-.178-10.491-2.557a15.496 15.496 0 0 1-2.793-3.084c.061-.012.111-.038.168-.055.389.602.826 1.173 1.328 1.695 1.666 1.731 3.895 2.667 6.209 3.173 3.891.851 8.03.731 11.737-.671a16.651 16.651 0 0 1-6.158 1.499Zm7.612-4.045c.431-.346.829-.725 1.205-1.125a.953.953 0 0 0 .18.22c-.443.324-.904.628-1.385.905Zm6.806-8.111a15.49 15.49 0 0 0 .453-3.743.593.593 0 0 0 .345-.281c.005.256.023.511.017.766a15.531 15.531 0 0 1-.815 3.258Zm-28.334-18.508a156.732 156.732 0 0 1 3.813 5.95c.134.22.274.455.41.686a.684.684 0 0 1 .223.147c1.201 1.192 2.613 2.122 3.962 3.132a.431.431 0 0 0 .024-.248c-1.913-9.576-6.14-18.423-10.357-27.159-.301-.622-1.312-.24-1.009.387 4.007 8.299 8.041 16.723 10.033 25.769-1.257-.971-2.02-2.718-2.804-3.99a156.322 156.322 0 0 0-3.7-5.722 158.755 158.755 0 0 0-8.285-11.134c-.438-.538-1.318.09-.878.63 3.027 3.72 5.89 7.573 8.568 11.552Zm1.785 8.315a36.485 36.485 0 0 0-3.129-.747c-2.548-.474-5.097-.546-7.674-.721-5.134-.347-10.06-2.152-15.22-2.256-.685-.014-.857 1.054-.162 1.068 5.076.103 9.92 1.861 14.964 2.238 2.491.187 4.968.226 7.437.651 1.948.336 3.859.835 5.724 1.477a138.897 138.897 0 0 1-22.245 3.948c-.692.065-.576 1.139.118 1.074a140.49 140.49 0 0 0 23.376-4.226c-1.091-.801-2.192-1.589-3.189-2.506Zm2.609 8.123-22.648 15.125c-.579.388.053 1.264.63.878l22.648-15.125c.58-.387-.052-1.263-.63-.878Zm3.761 3.537a138.225 138.225 0 0 0-18.911 17.636c-.462.521.374 1.205.835.687a136.692 136.692 0 0 1 18.706-17.446c.55-.424-.079-1.302-.63-.877Zm11.636 30.997c-2.427-8.365-3.319-17.057-4.199-25.692-.07-.692-1.144-.575-1.074.118.89 8.73 1.81 17.504 4.265 25.96.194.669 1.201.278 1.008-.386Zm4.887-.921a305.741 305.741 0 0 1-6.547-23.319c-.159-.667-1.235-.559-1.074.118a309.245 309.245 0 0 0 6.612 23.588c.215.663 1.223.273 1.009-.387Zm4.112-8.084-6.759-14.245c-.296-.625-1.307-.243-1.008.387l6.759 14.245c.296.625 1.307.243 1.008-.387Zm12.672-16.028c-3.239.074-6.482.233-9.708-.154a36.53 36.53 0 0 1-9.363-2.425c-.643-.26-1.086.725-.44.987a37.692 37.692 0 0 0 9.641 2.506c3.318.399 6.657.236 9.988.16.695-.016.574-1.09-.118-1.074Zm4.373-7.068c-7.04.441-14.102.33-21.125-.334-.689-.065-.857 1.003-.162 1.069 7.114.672 14.274.786 21.406.339.694-.043.575-1.117-.119-1.074Zm-10.113-27.608-8.284 9.224c-2.387 2.658-4.778 5.374-6.256 8.664-.284.634.702 1.075.987.44 1.474-3.285 3.902-5.967 6.283-8.618l8.105-9.024c.465-.518-.371-1.202-.835-.686Zm-4.64-3.491a111.308 111.308 0 0 0-15.423 16.639c-.417.555.416 1.243.835.687a109.89 109.89 0 0 1 15.218-16.448c.518-.456-.109-1.337-.63-.878Zm11.962 24.74a224.666 224.666 0 0 1-19.024 1.905c-.694.04-.576 1.114.118 1.074 6.365-.365 12.712-1 19.024-1.905.686-.098.573-1.173-.118-1.074Z"/>
    <path stroke="#171714" stroke-miterlimit="10" stroke-width="2" d="m676.809 101.767 5.288 27.688h7.052l7.64-28.773"/>
    <path stroke="#171714" stroke-miterlimit="10" stroke-width="2" d="m696.052 123.754 8.677-25.516-37.022 1.086 1.439 4.739 8.973 27.291"/>
    <path fill="#1D6FAB" d="M695.529 136.311c.27-.807.535-1.615.806-2.419.362-1.077 1.525-7.913 1.733-10.262l-1.308-.045c-.53.057-1.093.016-1.65-.057-7.096-.251-14.192-.53-21.294-.51.503 4.168.578 8.488 1.866 12.732.09.295 14.694.257 19.847.561Z"/>
    <path fill="#FFCB0F" d="M685.799 23.464c-41.96 0-45.42 28.723-40.013 47.993 3.483 12.41 14.073 26.235 23.707 34.925h33.044c9.473-8.69 19.575-22.515 23.297-34.925 5.766-19.224 2.885-47.993-40.035-47.993Z"/>
    <path fill="#F64E33" d="M685.845 23.464c-24.002 0-25.981 28.723-22.888 47.993 1.992 12.41 8.05 26.235 13.561 34.925h18.902c5.419-8.69 11.197-22.515 13.326-34.925 3.298-19.224 1.65-47.993-22.901-47.993Z"/>
    <path fill="#00C2CD" d="M685.894 23.464c-9.366 0-10.139 28.723-8.932 47.993.778 12.41 3.142 26.235 5.292 34.925h7.377c2.115-8.69 4.37-22.515 5.2-34.925 1.288-19.224.644-47.993-8.937-47.993Z"/>
    <path fill="#171714" d="m702.338 105.973-33.482-.358c-1.282-.013-1.054 1.974.22 1.987l33.481.358c1.283.013 1.055-1.974-.219-1.987Z"/>
    <path fill="#FFCB0F" d="M694.966 127.168c-.087-.229-.294-.464-.526-.555-.48-.188-1.123-.017-1.32.507-.342.913-.554 1.873-.576 2.849-.006.273.011.502.177.733.144.202.411.378.662.405.253.027.527-.015.733-.177.196-.153.399-.4.405-.662.015-.66.118-1.312.295-1.947.041-.13.082-.26.13-.388.094-.249.118-.511.02-.765Zm-5.809-.783c-.057-.262-.144-.486-.359-.662-.192-.158-.495-.26-.744-.222-.251.039-.506.15-.663.359-.151.203-.277.487-.221.745.099.457.143.922.144 1.389a6.62 6.62 0 0 1-.142 1.113c-.052.235.04.541.177.732.144.202.411.379.662.405.568.061 1.018-.291 1.138-.839a7.118 7.118 0 0 0 .008-3.02Zm-6.049.521a1.053 1.053 0 0 0-.359-.663c-.191-.157-.494-.26-.744-.221-.511.079-.976.552-.884 1.103l.491 2.938c.043.257.154.494.359.663.192.157.495.259.744.221.511-.079.976-.552.884-1.104l-.491-2.937Zm-4.376 2.681-1.036-2.76c-.184-.491-.798-.789-1.291-.575-.5.217-.771.768-.575 1.291l1.035 2.761c.184.49.799.788 1.292.575.5-.217.771-.768.575-1.292Z"/>
    <path stroke="#171714" stroke-miterlimit="10" stroke-width="2" d="m187.152 67.115 4.612 30.086h6.149l6.661-31.265"/>
    <path stroke="#171714" stroke-miterlimit="10" stroke-width="2" d="m203.903 91.008 7.565-27.726-32.28 1.18v4.13l9.079 30.675"/>
    <path fill="#F64E33" d="M205.299 103.568h-20.651l-3.082-13.998h26.815l-3.082 13.998Z"/>
    <path fill="#57B4F7" d="M194.876-17.97c-45.594 0-49.354 31.211-43.478 52.15 3.784 13.486 17.005 29.037 27.474 38.48l31.581-.518c10.295-9.443 23.881-24.476 27.926-37.962 6.265-20.889 3.135-52.15-43.503-52.15Z"/>
    <path fill="#F64E33" d="M194.968-17.97c-26.081 0-28.232 31.211-24.871 52.15 2.164 13.486 8.747 28.508 14.736 37.95h20.539c5.888-9.442 12.167-24.464 14.481-37.95 3.583-20.889 1.793-52.15-24.885-52.15Z"/>
    <path fill="#FFCB0F" d="M194.987-17.97c-10.178 0-11.017 31.211-9.705 52.15.844 13.486 3.413 28.508 5.75 37.95h8.015c2.298-9.442 4.749-24.464 5.651-37.95 1.399-20.889.7-52.15-9.711-52.15Z"/>
    <path fill="#1D6FAB" d="M211.938 71.608a758.02 758.02 0 0 1-33.657.196c-1.282-.02-1.053 1.967.22 1.987a758.03 758.03 0 0 0 33.657-.196c1.285-.036 1.061-2.023-.22-1.987Zm-6.26 20.504c-6.732.016-13.463.175-20.189.476-1.285.057-1.063 2.044.22 1.987 6.726-.301 13.457-.46 20.189-.476 1.284-.003 1.057-1.99-.22-1.987Zm-1.255 4.413c-2.787-.421-5.558-.39-8.354-.089-2.917.315-5.786.352-8.717.253-1.269-.043-1.586 1.933-.298 1.977 2.869.097 5.713.137 8.572-.17 2.863-.308 5.639-.426 8.498.006 1.27.192 1.575-1.784.299-1.977Z"/>
    <path stroke="#171714" stroke-miterlimit="10" stroke-width="2" d="m58.805 272.478 5.548 29.048h7.399l7.015-30.187"/>
    <path stroke="#171714" stroke-miterlimit="10" stroke-width="2" d="m79.003 295.545 8.104-26.77-37.841 1.14v3.986l10.924 29.618"/>
    <path fill="#1D6FAB" d="M77.698 306.989H58.72c-.663 0-1.237-.414-1.381-.996L54.8 295.77c-.197-.795.476-1.55 1.382-1.55h24.055c.906 0 1.579.755 1.381 1.55l-2.539 10.223c-.144.582-.718.996-1.381.996Z"/>
    <path fill="#57B4F7" d="M68.194 190.326c-44.022 0-47.652 30.135-41.979 50.352 3.654 13.02 12.765 27.524 22.873 36.641h36.667c9.939-9.117 20.536-23.621 24.442-36.641 6.049-20.169 3.026-50.352-42.003-50.352Z"/>
    <path fill="#FFCB0F" d="M68.22 190.326c-25.181 0-27.258 30.135-24.013 50.352 2.09 13.02 8.446 27.524 14.228 36.641h19.83c5.686-9.117 11.748-23.621 13.982-36.641 3.46-20.169 1.731-50.352-24.027-50.352Z"/>
    <path fill="#F64E33" d="M68.335 190.326c-9.827 0-10.637 30.135-9.37 50.352.815 13.02 3.295 27.524 5.552 36.641h7.738c2.22-9.117 4.585-23.621 5.457-36.641 1.35-20.169.675-50.352-9.377-50.352Z"/>
    <path fill="#FFCB0F" d="M76.466 299.674c-.012 1.246-1.435 1.896-2.408 1.167-.721-.54-1.096-1.453-1.796-2.031-1.91-1.574-3.86-.123-5.341 1.232-.685.627-1.73 1.52-2.495.577-.526-.648-.83-1.429-1.504-1.961-2.011-1.588-4.116.328-5.16 2.016-.668 1.08.87 2.36 1.545 1.269.444-.719 1.486-2.522 2.507-1.602.657.593.902 1.531 1.61 2.109.84.687 1.965.758 2.949.36 1.128-.456 1.856-1.388 2.789-2.114.427-.332 1-.749 1.566-.518.419.17.709.659.972 1 .65.845 1.343 1.597 2.416 1.866 2.378.596 4.315-1.274 4.337-3.59.012-1.283-1.975-1.055-1.987.22Zm-11.093-4.377c-1.284 0-1.057 1.987.22 1.987 1.284 0 1.057-1.987-.22-1.987Z"/>
    <path fill="#FFCB0F" d="M74.346 296.16c-1.284 0-1.057 1.987.22 1.987 1.284 0 1.056-1.987-.22-1.987Zm-13.664 6.902c-1.284 0-1.057 1.986.22 1.986 1.284 0 1.056-1.986-.22-1.986Zm8.968 0c-1.283 0-1.056 1.986.22 1.986 1.284 0 1.057-1.986-.22-1.986Zm-12.238-7.075c-1.284 0-1.057 1.987.22 1.987 1.284 0 1.057-1.987-.22-1.987Z"/>
    <path fill="#57B4F7" d="M601.055 494.43a33.23 33.23 0 0 1 .046-2.548c.927-18.181 7.344-39.813 29.336-43.591 10.409-1.788 22.365 2.47 27.76 11.156 4.926 7.932 3.845 17.719 1.363 26.371-1.145 3.992-2.568 7.941-4.798 11.487-4.341 6.904-10.363 13.094-19.128 14.136-9.177 1.091-18.888-.783-26.904-5.428-2.513-1.456-4.941-3.25-6.29-5.693-1.006-1.822-1.332-3.851-1.385-5.89Z"/>
    <path fill="#57B4F7" d="M666.404 534.134c3.757-2.206 6.958-5.2 9.193-8.777 1.033-1.653 1.88-3.444 2.137-5.359.716-5.321-3.106-10.291-6.72-14.613-3.998-4.783-8.627-8.953-12.699-13.544-.269-.303-.575-.628-.987-.696-.298-.05-.595.046-.875.143-9.467 3.307-18.671 10.58-21.314 19.912-1.281 4.523 2.448 12.772 5.248 17.326 2.082 3.386 5.115 6.249 8.572 8.457 3.08 1.966 6.508 1.208 9.879.308a30.538 30.538 0 0 0 7.566-3.157Zm6.155-67.075a59.946 59.946 0 0 0 7.683 2.359c8.889 2.094 15.512 11.868 9.111 19.577-3.911 4.71-11.423 5.875-17.698 4.074-10.323-2.964-18.333-14.193-23.987-22.314-3.725-5.35-6.2-11.842-4.745-17.925.43-1.798 1.564-3.782 3.553-3.907 1.958-.122 3.457 1.596 4.671 3.069 5.6 6.801 13.058 11.868 21.412 15.067Z"/>
    <path fill="#77E6AC" d="M674.928 471.627a22.68 22.68 0 0 1 2.633-.661c5.316-1.003 9.907.92 12.413 5.514 2.157 3.952 2.293 9.009-.619 12.516-4.453 5.363-18.306 7.935-22.129.045-1.805-3.727-2.262-8.185-.234-11.693 1.627-2.816 4.627-4.671 7.936-5.721Z"/>
    <path fill="#57B4F7" d="m611.481 454.482-.159.016c-5.22.497-10.431-1.17-15.624-2.146-5.147-.968-11.233-1.565-14.537 2.736-2.501 3.256-3.239 7.65-1.943 11.567 1.399 4.228 5.405 8.316 10.189 9.182 5.65 1.022 11.56.355 16.762-1.667 9.138-3.551 16.088-10.58 21.86-18.012 1.154-1.486 5.485-7.934.58-7.522-2.602.219-5.389 1.748-7.634 2.826-2.97 1.427-6.112 2.67-9.494 3.02Z"/>
    <path fill="#77E6AC" d="M578.459 458.137c-1.468 3.802-1.009 8.59 1.12 11.996 2.202 3.522 6.578 5.781 10.776 5.279 3.848-.46 7.194-3.16 8.653-6.604 1.458-3.442 1.114-7.499-.592-10.887-2.033-4.038-5.381-6.913-10.312-6.671-3.267.16-6.37 1.842-8.27 4.378a10.496 10.496 0 0 0-1.375 2.509Z"/>
    <path fill="#FF7C69" d="M672.296 486.933c1.185 2.393 4.131 4.083 7.277 3.919 5.942-.309 9.981-4.661 9.25-10.122-.364-2.72-3.179-4.424-5.973-4.465-2.167-.033-4.227.773-6.053 1.802-1.759.991-3.413 2.25-4.347 3.954-.946 1.725-.879 3.45-.154 4.912ZM584.031 455.7c-1.139.783-1.995 1.969-2.433 3.244-1.144 3.334-.682 7.899 2.547 10.284 3.415 2.523 9.161 1.072 10.619-2.673.781-2.005.247-4.295-.685-6.296-.684-1.471-1.6-2.887-2.908-3.942-1.307-1.056-3.048-1.716-4.734-1.528a5.275 5.275 0 0 0-2.406.911Z"/>
    <path fill="#57B4F7" d="M670.394 409.78c1.928-2.728 5.2-4.7 9.171-4.967 4.292-.288 8.818 1.58 11.466 4.733 4.473 5.325 2.868 13.501-2.692 17.221-2.193 1.467-5.086 2.196-7.884 1.731-2.963-.493-5.56-2.241-7.593-4.275-1.772-1.772-3.229-3.83-3.931-6.081-.914-2.927-.274-5.905 1.463-8.362Zm-59.117-10.271c1.777-2.594 4.772-4.483 8.39-4.765 3.911-.305 8.018 1.426 10.406 4.386 4.032 5 2.509 12.742-2.583 16.301-2.009 1.403-4.649 2.115-7.194 1.697-2.694-.443-5.045-2.077-6.881-3.984-1.6-1.662-2.911-3.596-3.534-5.718-.809-2.761-.204-5.581 1.396-7.917Z"/>
    <path fill="#57B4F7" d="M628.397 400.822c-4.876 2.479-9.167 5.958-12.379 10.334-6.285 8.56-7.45 20.618-1.618 29.812 7.388 11.648 23.327 19.092 37.504 18.406 12.741-.616 24.487-8.541 28.941-19.526 4.454-10.984 1.389-24.466-7.553-33.217-12.055-11.799-30.892-12.926-44.895-5.809Z"/>
    <path fill="#E6F5F9" d="M638.113 425.863c-2.831.065-5.708.496-8.126 1.797-2.418 1.3-4.319 3.584-4.507 6.204-.18 2.519 1.239 5.025 3.267 6.779 2.027 1.755 4.605 2.853 7.208 3.687 2.488.797 5.044 1.383 7.62 1.828 3.734.647 7.628.992 11.227.032 3.598-.96 6.862-3.458 7.656-6.861.246-1.052.247-2.181-.153-3.212-.588-1.512-1.949-2.65-3.258-3.717-5.641-4.601-13.584-6.698-20.934-6.537Z"/>
    <path stroke="#000" stroke-linecap="round" stroke-miterlimit="10" stroke-width="2" d="M645.489 433.591c-.042-.1-.19.016-.214.119-.269 1.166-.464 2.377-1.095 3.405-.632 1.029-1.834 1.852-3.121 1.687-.554-.072-1.073-.318-1.532-.625-.624-.418-1.164-.968-1.456-1.626-.293-.657-.314-1.427.035-2.04m32.213-1.374c1.097-2.106 1.964-5.867.279-8.024-.691-.885-1.833-1.375-2.964-1.645-2.47-.59-4.73.076-6.196 1.974-.867 1.121-1.339 2.474-1.629 3.84m-36.071-5.91c.122-1.471.469-2.92 1.027-4.289 1.118-2.744 4.695-3.913 7.686-3.597 1.101.116 2.215.395 3.129.997 2.553 1.681 2.278 5.569.576 7.565m9.609 10.025a9.138 9.138 0 0 0-.672 2.921c-.035.578-.003 1.197.348 1.688.508.71 1.516.931 2.42.981.529.03 1.069.021 1.567-.13s.954-.461 1.164-.905"/>
    <path fill="#FF7C69" d="M649.302 428.959c-1.938-1.35-4.451-1.268-6.524-.363-1.638.714-1.99 2.914-1.166 4.335 1.158 1.999 4.059 2.525 6.414 2.114.804-.141 1.617-.375 2.212-.885 1.554-1.333.812-3.983-.936-5.201Zm37.079-11.533c-.071-1.186-.852-2.292-1.885-3.02-1.034-.728-2.297-1.115-3.561-1.328-.985-.165-2.027-.209-2.997-.05.859 1.856 1.557 3.777 2.494 5.606l.003.006c.218.396.431.793.644 1.191.452.775.853 1.569 1.195 2.386 1.046-.365 1.999-.943 2.749-1.704.826-.837 1.427-1.933 1.358-3.087Zm-69.55-8.182c.018.185-.317.048-.393-.125-.565-1.283-.858-2.697-.575-4.032.306-1.435 1.296-2.713 2.657-3.428 1.361-.714 3.071-.854 4.587-.376.914.289 1.774.812 2.31 1.563"/>
    <path fill="#57B4F7" d="M574.691 517.638c-2.458-3.767-4.028-8-4.422-12.321-.182-1.996-.125-4.033.538-5.911 1.488-4.209 6.754-8.396 11.346-9.441 3.276-.745 6.71-.568 9.923-1.569 3.579-1.115 6.909-2.973 9.698-5.294 2.792.128 5.316 1.751 7.28 3.652 7.66 7.416 7.293 17.467 3.105 25.978-3.586 7.288-12.604 17.251-22.561 15.606-3.794-.626-6.633-1.907-9.348-4.296a31.47 31.47 0 0 1-5.559-6.404Z"/>
    <path fill="#77E6AC" d="M605.263 502.394c1.05 2.09 1.522 4.373 1.716 6.641.405 4.702-.427 9.602-3.331 13.373-5.029 6.53-15.916 8.092-23.759 3.995-11.358-5.934-16.036-23.716-5.387-31.647 8.38-6.24 26.263-1.32 30.761 7.638Z"/>
    <path fill="#FF7C69" d="M594.042 503.116c2.576 2.472 4.507 5.706 5.393 8.623.924 3.048.483 6.488-1.587 8.909-.901 1.054-2.073 1.888-3.34 2.547-5.569 2.898-13.589 1.942-17.623-2.88-6.662-7.966-3.156-22.858 9.59-21.168 2.817.374 5.416 1.906 7.567 3.969Z"/>
    <path fill="#E6F5F9" d="M619.708 473.435c-1.481 1.31-2.723 2.455-3.796 4.387-2.096 3.771-3.001 8.159-2.38 12.438.922 6.354 5.301 12.937 12.581 14.092 4.882.775 10.565.274 14.112-3.454 1.841-1.935 3.119-4.335 4.171-6.789a48.927 48.927 0 0 0 3.095-10.106c.398-2.081.657-4.248.142-6.303-.677-2.702-2.623-4.916-4.79-6.665-2.258-1.824-4.855-3.278-7.677-3.954-2.823-.676-5.882-.538-8.522.669-2.536 1.158-4.105 3.164-6.124 4.965-.278.249-.549.487-.812.72Z" opacity=".47"/>
    <path fill="#E6F5F9" d="M643.919 465.576c-2.016-.816-4.117-1.287-6.237-1.684a157.15 157.15 0 0 1 2.458-6.469 21.545 21.545 0 0 1-1.893-.679 155.793 155.793 0 0 0-2.544 6.789c-1.806-.318-3.613-.638-5.381-1.121-.52-.142-1.066.349-1.138.839-.086.585.314.994.839 1.137 1.651.452 3.341.751 5.031 1.044a206.28 206.28 0 0 0-3.076 10.092 64.321 64.321 0 0 0-4.215-.902c-1.266-.222-1.568 1.754-.299 1.977 1.342.235 2.671.527 3.993.848a329.02 329.02 0 0 0-2.319 9.174c-1.979-.227-3.986-.34-5.91-.856-.522-.14-1.063.348-1.138.839-.088.583.316.997.84 1.138 1.862.5 3.824.593 5.754.807-.536 2.281-1.047 4.569-1.562 6.855a78.809 78.809 0 0 0-5.186-1.096c-1.267-.221-1.568 1.756-.299 1.977 1.694.295 3.375.653 5.043 1.058-.793 3.557-1.577 7.114-2.366 10.664-1.182 5.319-2.408 10.628-3.775 15.903-.322 1.242 1.657 1.535 1.977.298 2.262-8.728 4.123-17.56 6.069-26.37 1.362.368 2.718.762 4.058 1.207.513.17 1.085.022 1.32-.506.203-.457.009-1.149-.507-1.32a81.851 81.851 0 0 0-4.438-1.323c.525-2.356 1.056-4.71 1.607-7.059 1.04.199 2.059.48 3.029.954 1.156.566 1.968-1.261.813-1.826-1.086-.531-2.222-.836-3.379-1.052a318.245 318.245 0 0 1 2.267-8.974c1.414.392 2.818.823 4.203 1.317.508.181 1.088.014 1.319-.507.207-.465.005-1.137-.506-1.319a65.963 65.963 0 0 0-4.49-1.411 207.817 207.817 0 0 1 2.206-7.402c.303-.949.622-1.892.942-2.835 2.068.378 4.117.827 6.077 1.62 1.189.482 2.008-1.342.813-1.826Z"/>
    <path fill="#171714" d="M714.044 249.452c.633 1.876 2.787 3.615 3.947 4.938l5.921 6.756c3.873 4.419 7.802 8.797 11.623 13.261 3.773 4.409 7.487 9.196 11.619 13.261.59-.477 1.162-.978 1.742-1.466l-26.124-29.817c-1.586-1.81-3.177-3.625-4.947-5.257-1.168-1.077-2.449-2.092-3.958-2.592.013.308.075.614.177.916Z"/>
    <path fill="#77E6AC" d="M673.725 257.07c.421-1.316.883-2.63 1.387-3.94 7.921-20.591 28.597-44.151 50.538-49.628 20.117-5.022 36.7 5.498 46.182 18.757-3.204-1.691-10.827-.079-15.304 5.204-4.478 5.283-5.764 9.062-6.638 15.151-5.853-.556-12.91 2.631-17.527 7.917-4.618 5.286-6.579 12.422-4.872 17.725-7.102-1.867-17.024.387-21.503 9.215-2.842 5.602-2.365 11.632.073 16.013-2.382-4.281-12.381-1.699-16.329 1.686-2.04 1.749-3.708 3.448-4.58 5.82-.9 2.45-1.568 5.048-.975 7.253a108.804 108.804 0 0 1-8.882-13.601c-2.891-5.239-4.754-10.751-4.786-17.396-.033-6.538 1.041-13.382 3.216-20.176Z"/>
    <mask id="b" width="102" height="107" x="670" y="202" maskUnits="userSpaceOnUse" style="mask-type:luminance">
      <path fill="#fff" d="M673.729 257.071c.421-1.316.883-2.63 1.387-3.94 7.921-20.591 28.597-44.151 50.538-49.628 20.117-5.022 36.7 5.498 46.182 18.757-3.204-1.691-10.827-.079-15.305 5.204-4.477 5.283-5.763 9.062-6.637 15.151-5.853-.556-12.91 2.631-17.527 7.917-4.618 5.286-6.579 12.422-4.872 17.725-7.102-1.867-17.024.387-21.503 9.215-2.842 5.602-2.365 11.632.073 16.013-2.382-4.281-12.381-1.699-16.329 1.686-2.04 1.749-3.708 3.448-4.58 5.82-.9 2.45-1.568 5.048-.975 7.253a108.804 108.804 0 0 1-8.882-13.601c-2.891-5.239-4.754-10.751-4.787-17.396-.032-6.538 1.042-13.382 3.217-20.176Z"/>
    </mask>
    <g mask="url(#b)">
      <path fill="#FFCB0F" d="M740.464 229.254c-5.132-4.462-11.602-7.871-18.788-9.558-4.549-1.067-9.343-1.906-14.392-1.594-2.379.147-4.936.5-7.362 1.54-3.176 1.362-3.701 3.174-5.131 6.093-5.735 11.709-7.863 23.707-6.57 34.837 1.41 12.133 6.539 22.681 13.327 31.639 1.562 2.061 3.789 4.034 7.005 3.464 2.299-.407 4.577-1.68 6.783-2.926 4.693-2.649 9.422-5.322 13.731-8.735 7.706-6.102 13.632-14.212 18.949-22.327 1.031-1.574 2.088-3.203 3.563-4.415 1.476-1.213 3.5-1.906 4.791-1.19l1.078-.307c-4.377-9.773-9.01-19.59-16.984-26.521Z"/>
      <path fill="#F64E33" d="M739.046 225.543c-5.531-4.012-9.661-6.094-17.084-7.247-6.485-1.008-19.398.036-26.364 4.989-.566.402-1.076.897-1.551 1.443 1.052 1.031 2.032 2.14 3.001 3.248 5.765 6.597 11.004 13.664 16.652 20.361.929 1.101 1.918 2.134 2.903 3.183 2.797 2.978 8.44 12.636 11.054 15.781 3.286 3.955 3.574 1.483 7.395 4.966l24.022-19.031c-5.136-9.264-11.435-21.461-20.028-27.693Z"/>
    </g>
    <path fill="#171714" d="M693.959 219.665a2.495 2.495 0 0 0-.731-.379c-1.511-.459-2.217.994-1.931 2.223.085.367.242.714.404 1.055.481 1.014 1.027 2.023 1.842 2.796 1.946 1.844 3.399-1.087 2.797-2.844-.133-.391-.373-.736-.627-1.061-.374-.48-.785-.931-1.229-1.347a5.417 5.417 0 0 0-.525-.443Zm.9 9.126c.428-1.204-1.395-2.027-1.826-.813-2.084 5.863-3.629 11.912-4.549 18.067-.884 5.916-1.555 12.185.322 17.978.397 1.227 2.262.505 1.866-.716-1.811-5.588-1.02-11.738-.14-17.43a93.858 93.858 0 0 1 4.327-17.086Z"/>
    <path fill="#171714" d="M746.674 233.272c-8.005-12.212-22.92-17.777-37.125-16.082-4.486.536-8.876 1.741-13.041 3.481-1.187.496-.474 2.364.716 1.866 8.814-3.683 18.749-4.846 28.035-2.288 8.016 2.208 15.221 7.218 19.791 14.189.707 1.079 2.327-.093 1.624-1.166Zm-18.935 32.755c-1.648-3.221-3.761-6.126-5.962-8.985-2.455-3.189-4.92-6.37-7.38-9.554l-14.7-19.029c-.786-1.018-2.411.147-1.624 1.167l14.397 18.636 7.122 9.219c2.281 2.954 4.575 5.928 6.281 9.262.58 1.135 2.452.43 1.866-.716Zm-40.923 11.797a45.975 45.975 0 0 1-2.286-24.342c.223-1.266-1.753-1.567-1.977-.298a47.975 47.975 0 0 0 2.397 25.356c.457 1.204 2.324.488 1.866-.716Zm-4.277-.182-2.244-7.765c-.149-.519-.817-.757-1.291-.575-.54.207-.725.771-.575 1.291l2.244 7.765c.15.519.817.757 1.291.575.54-.208.725-.771.575-1.291Zm20.757-7.473-2.416-4.141c-.265-.454-.999-.541-1.396-.229-.459.361-.51.911-.228 1.395l2.416 4.141c.264.453.998.541 1.395.229.46-.361.511-.911.229-1.395Zm2.381-3.228-2.244-4.659c-.227-.471-.768-.802-1.291-.575-.464.201-.817.788-.575 1.291l2.243 4.659c.227.47.769.802 1.292.575.463-.201.817-.788.575-1.291Z"/>
    <path fill="#F64E33" d="M753.344 241.003c-7.123-.468-14.249 2.011-19.43 6.953-5.213 4.972-7.981 12.117-7.766 19.283.039 1.285 2.026 1.061 1.988-.22-.195-6.497 2.379-12.966 7.034-17.515 4.685-4.579 11.36-6.952 17.876-6.524 1.273.084 1.586-1.892.298-1.977Z"/>
    <path fill="#FFCB0F" d="M727.192 266.313c-4.017-.121-8.16-.72-11.844 1.234-2.956 1.567-5.488 3.945-7.356 6.711-3.697 5.474-4.975 12.332-3.228 18.723.34 1.242 2.203.516 1.867-.716-1.543-5.642-.355-11.909 2.905-16.738 1.619-2.397 3.714-4.459 6.214-5.928 3.429-2.014 7.336-1.424 11.144-1.31 1.268.039 1.585-1.938.298-1.976Z"/>
    <path fill="#77E6AC" d="M705.792 292.119c-4.244-4.219-11.36-1.696-15.511 1.328-4.611 3.359-7.736 8.58-7.769 14.351-.008 1.283 1.98 1.056 1.987-.22.028-4.914 2.848-9.418 6.695-12.32 3.463-2.612 9.667-5.233 13.329-1.594.913.907 2.174-.645 1.269-1.545Z"/>
    <path fill="#FFCB0F" d="m727.231 161.508-5.923-.582 1.425-6.232c.068-.296-.192-.506-.395-.379-1.811 1.133-3.456 2.674-4.822 4.541-.179.244-.352.494-.521.748-.129.194-.255.442-.429.577-.284.221-.552.018-.806-.161-.271-.191-.539-.39-.808-.585l-3.113-2.254c-.204-.148-.454.096-.395.379a65.514 65.514 0 0 0 1.187 4.725 32.113 32.113 0 0 0-4.428 4.087c-.219.244.022.611.262.56a38.926 38.926 0 0 0 5.174-1.477c.06.173.114.349.175.521.03.084.076.129.127.152-.786 2.319-1.482 4.683-1.711 7.204-.026.277.319.46.458.237l1.799-2.873c.598-.955 1.163-1.969 1.806-2.877.192-.273.357-.211.582-.034.198.156.386.339.578.509l1.202 1.062 2.458 2.174c.214.189.426-.123.395-.379a28.694 28.694 0 0 0-1.17-5.315c2.511-.65 4.906-1.907 7.029-3.703.226-.191.133-.598-.136-.625Z"/>
    <path fill="#FF9786" d="m36.7 115.945.502-.46 1.002-.92 2.082-1.912c.169-.155-.016-.38-.204-.35l-4.585.727c-.33.052-.794.216-1.055-.071-.236-.259-.397-.624-.578-.922l-1.212-1.992c-.09-.149-.34-.13-.383.05l-1.237 5.179a.209.209 0 0 0-.002.077c-1.59.276-3.132.782-4.576 1.517-.17.087-.11.33.05.383l2.433.817 1.217.408c.142.048.47.101.569.228.105.134.033.42.017.573-.164 1.488-.686 3.003-.068 4.455.067.156.285.116.362 0a49.125 49.125 0 0 0 3.14-5.416l5.74 2.552c.212.094.422-.144.254-.329l-1.879-2.072-.904-.998c-.294-.324-.618-.637-.889-.981-.187-.238.028-.381.204-.543Z"/>
    <path fill="#6EDEEB" d="m558.835 421.258-3.026-1.876-1.565-.97-.731-.453-.313-.194c-.1-.062-.316-.147-.38-.255-.129-.215.123-.737.189-.954l.259-.843.556-1.808 1.075-3.494c.064-.21-.182-.407-.359-.289a30.237 30.237 0 0 0-5.827 5.083c-1.551-.994-3.924-2.662-5.682-3.15-.195-.055-.329.127-.301.314.256 1.695 1.339 4.27 1.854 5.898a24.666 24.666 0 0 0-4.036 4c-.153.191-.012.491.237.427l3.071-.788 1.536-.394c.234-.06.506-.176.747-.183.315-.009.319.321.377.572l1.484 6.375c.057.245.411.241.47 0l1.584-6.403.198-.801c.051-.206.087-.5.232-.662.189-.209.523-.1.758-.056l.77.143 3.139.581 3.495.647c.262.049.44-.311.189-.467Zm-382.586-207.58-3.026-1.876-1.565-.97-.731-.453-.313-.194c-.1-.062-.316-.147-.38-.255-.129-.215.123-.738.189-.954l.26-.843.555-1.808 1.075-3.494c.064-.21-.182-.407-.359-.289a30.237 30.237 0 0 0-5.827 5.083c-1.551-.994-3.924-2.662-5.682-3.15-.195-.055-.329.127-.301.314.256 1.695 1.339 4.27 1.854 5.898a24.666 24.666 0 0 0-4.036 4c-.153.191-.012.491.237.427l3.071-.788 1.536-.394c.235-.06.506-.176.747-.183.315-.009.319.321.377.572l1.484 6.374c.057.246.411.242.471 0l1.583-6.402.198-.801c.051-.206.087-.501.232-.662.189-.209.523-.1.758-.056l.77.142 3.14.582 3.494.647c.262.048.44-.311.189-.467Z"/>
    <path fill="#99EBDA" d="m38.967 356.685-.819-3.465-.423-1.792-.197-.836-.085-.358c-.027-.115-.12-.328-.09-.45.061-.242.608-.435.808-.541l.78-.415 1.669-.887 3.228-1.717c.194-.103.159-.416-.05-.457a30.214 30.214 0 0 0-7.716-.514 18.366 18.366 0 0 0-1.95-5.11c-.1-.176-.323-.142-.435.01a32.767 32.767 0 0 0-2.7 4.353 24.717 24.717 0 0 0-5.684-.016c-.242.028-.355.34-.133.471l2.732 1.609 1.365.805c.21.123.483.233.659.398.23.216-.001.452-.137.671l-3.45 5.562c-.133.214.12.461.333.332l5.643-3.416.705-.427c.182-.11.415-.294.632-.306.281-.015.44.299.576.496l.445.644 1.813 2.628 2.018 2.926c.15.218.53.09.463-.198Z"/>
    <path fill="#77E6AC" d="M61.22 42.163c1.995-2.512 4.46-4.64 7.295-6.166 7.216-3.886 20.228-4.429 26.35 2.125 4.558 4.882 4.742 16.544 4.247 22.64 3.538-4.067 8.336-7.209 13.671-7.985 5.334-.776 11.169 1.09 14.473 5.348 4.653 5.997 2.933 12.145-3.289 16.23 4.441-.751 8.831 3.138 9.414 7.604.583 4.467-2.055 8.944-5.816 11.424-3.76 2.48-8.445 3.207-12.946 3.011-5.688-.247-11.776-2.223-14.857-7.01-1.838 9.464-11.666 16.64-21.242 15.51-9.576-1.131-17.462-10.399-17.045-20.031-6.59 7.48-20.395 6.377-25.713-2.055-5.319-8.432-.367-21.364 9.224-24.088 4.18-1.187 9.617.006 11.11 4.086-1.525-7.18.577-14.913 5.124-20.642Z"/>
    <path stroke="#1B0512" stroke-linecap="round" stroke-miterlimit="10" stroke-width="2" d="M62.192 68.542c-.204-2.915 2.2-5.16 4.835-5.952 3.594-1.08 6.972 2.922 4.255 6.053m34.296 8.057c-.432-1.746.907-3.474 2.453-4.395 1.688-1.007 4.051-1.34 5.492-.004 1.409 1.307 1.312 3.525 1.106 5.436M85.422 73.55a11.564 11.564 0 0 0 5.503 1.007"/>
    <path fill="#fff" d="M128.786 82.004c-.498-.076-1.105.297-1.138.839-.109 1.786-.999 3.44-2.368 4.587-1.517 1.27-3.415 1.933-5.356 2.198-1.272.174-1.06 2.162.22 1.987 2.301-.314 4.626-1.113 6.406-2.65 1.703-1.471 2.936-3.544 3.075-5.824.033-.538-.271-1.05-.839-1.137ZM76.468 96.778c-1.71-1.716-2.657-4.144-2.66-6.628-.001-.54-.609-.938-1.104-.883-.584.064-.885.561-.884 1.103.005 2.989 1.282 5.849 3.378 7.953.381.383 1.09.25 1.407-.138.372-.452.245-1.023-.137-1.407Zm4.019-1.798-.345-1.552a.756.756 0 0 0-.121-.36.754.754 0 0 0-.238-.302c-.192-.158-.495-.26-.745-.222-.25.04-.506.15-.662.36-.151.2-.279.486-.221.744L78.5 95.2c.01.132.05.252.12.36.053.12.132.22.239.302.191.158.495.26.744.221.251-.039.506-.15.663-.359.15-.201.278-.487.22-.744Zm7.237 1.65a.751.751 0 0 0-.21-.32.755.755 0 0 0-.316-.234c-.241-.095-.52-.126-.765-.02l-.225.12a.996.996 0 0 0-.33.406l-.69 1.208a.752.752 0 0 0-.078.387.748.748 0 0 0 .058.378.747.747 0 0 0 .21.32.753.753 0 0 0 .316.235c.241.094.52.126.765.02l.225-.122a.996.996 0 0 0 .33-.405l.69-1.208a.752.752 0 0 0 .078-.387.75.75 0 0 0-.058-.377Zm5.756-50.325c-.543-.057-1.05.286-1.138.84l-.69 4.313c-.083.516.305 1.081.839 1.138.542.058 1.05-.286 1.138-.84l.69-4.313c.083-.516-.305-1.081-.84-1.138Zm-23.524-4.479c-4.562 3.106-8.102 7.64-9.987 12.83-.436 1.201 1.386 2.024 1.826.812a24.758 24.758 0 0 1 9.328-12.018c1.066-.726-.104-2.347-1.167-1.624Zm4.122 2.624c-.423-.316-1.066-.305-1.408.138a38.327 38.327 0 0 0-2.902 4.37c-.26.455.04 1.135.507 1.319.546.214 1.04-.02 1.32-.507a37.489 37.489 0 0 1 .473-.805c.027-.045.204-.347.063-.104.201-.346.43-.68.653-1.014a35.9 35.9 0 0 1 1.431-1.99c.319-.413.304-1.076-.138-1.407ZM42.575 81.909c-1.386-1.796-2.764-3.717-2.514-6.104.246-2.354 1.415-4.515 1.99-6.794.314-1.245-1.665-1.538-1.977-.298-.632 2.504-1.959 4.851-2.032 7.48-.075 2.67 1.337 4.846 2.91 6.882.786 1.018 2.41-.147 1.623-1.166Z"/>
    <path fill="#FFBB97" d="M114.599 81.905c-1.025-.682-2.341-.747-3.536-.765-.682-.01-1.363.03-2.04.105-.633.07-1.282.138-1.843.462-.578.336-.944.974-.88 1.65.017.173.059.332.118.478-.088.416-.006.862.291 1.218.683.821 1.888 1.258 2.909 1.445a7.602 7.602 0 0 0 2.975-.075c1.005-.223 2.201-.541 2.781-1.471.647-1.037.209-2.391-.775-3.047Zm-46.284-6.758c-.245-.606-.738-1.017-1.282-1.346-.889-.536-1.952-.664-2.97-.619-.534.024-1.063.107-1.585.213-.538.11-1.141.191-1.638.431-.753.364-1.15 1.181-.873 1.99.096.28.26.537.46.763.058.147.131.289.231.409.385.465.92.634 1.475.798 1.878.554 4.412.987 5.843-.753.43-.523.598-1.245.339-1.886Z"/>
    <path stroke="#57B4F7" stroke-linecap="round" stroke-miterlimit="10" stroke-width="2" d="M531.949 46.787a77.314 77.314 0 0 1 3.895-.901m7.871-1.196c34.401-3.467 70.399 15.49 87.542 47.701 4.194 7.882 6.801 16.5 9.563 24.99 4.631 14.231 9.318 29.217 6.493 43.913-5.766 30.007-33.558 42.559-56.573 57.008-18.821 11.817-41.624 30.814-24.438 54.113 4.127 5.595 10.405 9.246 16.895 11.74 23.9 9.183 55.983.646 64.994-23.318 1.154-3.069 1.911-6.408 1.273-9.624-1.323-6.67-8.3-10.875-15.042-11.766-14.633-1.935-28.919 8.276-35.459 21.507-15.888 32.136-.26 58.228 34.227 62.075 22.578 2.519 44.215-6.537 66.323-9.25 12.353-1.516 22.399.281 34.262 3.198 10.43 2.565 20.369 3.361 27.78 12.487 5.753 7.083 7.695 17.404 3.864 25.685-5.099 11.023-18.018 15.697-26.933 23.946-15.884 14.697-16.952 41.894-3.726 59.023 11.597 15.02 32.192 21.606 50.875 18.219M70.296-30.98c-6.494 17.345-1.072 39.394-13.64 52.999-4.843 5.24-11.627 8.2-18.33 10.646-13.64 4.976-27.852 8.438-41.083 14.418-13.232 5.98-25.768 14.94-32.422 27.846-6.461 12.531-6.687 27.394-4.673 41.348 1.629 11.277 4.817 22.738 12.105 31.496 10.866 13.06 29.219 17.865 46.16 16.591 16.943-1.274 32.993-7.745 48.85-13.842 15.858-6.098 32.245-11.973 49.235-11.964 62.069.036 88.755 71.279 71.217 122.512-22.189 64.816-88.28 95.533-146.938 120.996-15.41 6.689-31.245 12.844-44.98 22.518-13.735 9.673-25.42 23.52-28.499 40.034-2.305 12.361.352 25.093 3.834 37.176A273.023 273.023 0 0 0-6.99 535.471c6.832 12.703 15.852 25.79 29.693 29.852 10.977 3.222 22.655.064 33.922-1.915 29.866-5.245 60.485-2.037 90.798-2.783 30.522-.751 62.242-7.066 87.618-25.093 11.305-8.031 17.179-22.061 25.115-33.22 10.221-14.37 21.727-27.963 35.686-38.852 19.044-14.857 45.362-24.272 67.393-14.37 21.914 9.85 32.493 36.197 31.145 60.182-1.348 23.985-12.166 46.28-22.781 67.831"/>
    <path fill="#6EDEEB" d="M709.68 358.64a1.786 1.786 0 0 0-.554-.908c-1.163-1.007-2.455.368-3.025 1.326l-3.625 6.097c-.256.324-.526.638-.813.928-.617.624-1.667.562-2.155-.129.95-4.754 1.654-9.554 2.092-14.384.122-1.344-.707-2.633-2.098-2.844-1.275-.194-2.722.748-2.844 2.097-.024.256-.058.51-.083.765-.274 1.335-.445 2.704-.707 4.037-.446 2.267-.806 4.627-1.418 6.853-.117.423-.454.853-.862.935-.139-1.015-.279-2.028-.417-3.043l-1.529-11.174c-.248-1.817-1.975-2.418-3.33-2.007-.688-.032-1.33.556-1.575 1.356-.186.607-.154 1.252-.099 1.879.119 1.379.339 2.746.559 4.112l.744 4.626c.207 1.532.43 3.061.645 4.592-.009.35-.067.635-.231.712-.432.205-.948-.683-1.134-.957-.091-.133-.172-.274-.257-.412a175.594 175.594 0 0 0-4.372-10.799c-1.304-2.932-5.976-1.155-4.666 1.79a175.795 175.795 0 0 1 6.41 16.651c.131.7.206 1.406.183 2.121-.016.53-.095 1.083-.41 1.519-.44.609-1.023.89-1.68.972-.333-.214-.659-.438-.999-.644-2.971-1.802-6.306-3.363-9.872-2.958-1.298.148-2.416 1.422-2.209 2.758.198 1.279 1.277 2.27 2.59 2.211.072.029.141.066.212.092 2.403.899 4.326 2.417 6.148 4.143 3.617 3.425 4.685 6.375 9.81 6.769 3.865.296 10.802 1.093 14.24-1.018 6.251-3.838 1.487-11.977 3.476-17.69 1.001-2.875 2.957-5.364 3.714-8.33.17-.669.317-1.357.141-2.044ZM302.887 29.306a1.782 1.782 0 0 0-.554-.908c-1.163-1.007-2.455.368-3.025 1.326l-3.625 6.097c-.256.324-.526.638-.813.928-.617.624-1.667.562-2.154-.129a136.39 136.39 0 0 0 2.091-14.384c.122-1.344-.707-2.633-2.098-2.844-1.275-.194-2.722.748-2.844 2.098-.023.255-.058.509-.083.764-.274 1.335-.445 2.703-.707 4.037-.446 2.267-.806 4.627-1.418 6.853-.117.424-.454.853-.862.934-.139-1.014-.279-2.027-.417-3.042l-1.529-11.174c-.248-1.816-1.975-2.418-3.33-2.007-.688-.032-1.33.556-1.575 1.356-.186.607-.154 1.252-.099 1.88.119 1.378.339 2.745.559 4.11l.744 4.627c.207 1.532.43 3.061.645 4.592-.009.35-.067.634-.231.712-.432.205-.948-.683-1.134-.956-.091-.134-.172-.275-.257-.413a175.16 175.16 0 0 0-4.372-10.8c-1.304-2.93-5.976-1.154-4.666 1.791a175.697 175.697 0 0 1 6.41 16.651c.131.7.206 1.406.183 2.121-.016.53-.095 1.083-.41 1.52-.44.608-1.023.89-1.68.971-.333-.214-.659-.438-.999-.644-2.971-1.802-6.306-3.363-9.872-2.958-1.298.148-2.416 1.422-2.209 2.758.198 1.28 1.277 2.27 2.59 2.211.072.03.141.066.212.092 2.403.899 4.326 2.417 6.148 4.143 3.617 3.425 4.685 6.375 9.81 6.769 3.865.296 10.802 1.093 14.24-1.018 6.251-3.838 1.487-11.977 3.476-17.69 1.001-2.875 2.957-5.364 3.714-8.33.17-.67.317-1.357.141-2.044Z"/>
    <path fill="#57B4F7" d="M63.891 445.519a1.8 1.8 0 0 0-.554-.908c-1.163-1.007-2.455.368-3.025 1.326l-3.625 6.097c-.256.324-.526.638-.813.928-.617.624-1.668.562-2.155-.129.95-4.754 1.654-9.554 2.092-14.384.122-1.344-.707-2.633-2.098-2.845-1.275-.193-2.722.749-2.844 2.098-.024.256-.058.51-.083.765-.274 1.335-.445 2.703-.708 4.037-.445 2.267-.805 4.627-1.417 6.853-.117.423-.454.853-.862.934-.139-1.014-.279-2.027-.417-3.042l-1.53-11.174c-.247-1.817-1.974-2.418-3.329-2.007-.688-.032-1.33.555-1.575 1.356-.186.607-.154 1.252-.1 1.879.12 1.379.34 2.746.56 4.112l.744 4.626c.207 1.532.43 3.061.645 4.592-.009.35-.067.634-.231.712-.432.205-.948-.683-1.134-.957-.092-.133-.172-.274-.257-.412a175.603 175.603 0 0 0-4.372-10.799c-1.304-2.932-5.976-1.156-4.666 1.79a175.93 175.93 0 0 1 6.41 16.651c.13.7.206 1.406.183 2.121-.016.529-.095 1.083-.41 1.519-.44.609-1.023.89-1.68.972-.333-.214-.659-.438-.999-.644-2.971-1.802-6.306-3.363-9.872-2.958-1.298.148-2.416 1.422-2.209 2.758.198 1.279 1.277 2.27 2.59 2.211.072.029.14.066.212.092 2.403.899 4.326 2.417 6.148 4.143 3.617 3.425 4.684 6.375 9.81 6.768 3.865.297 10.802 1.093 14.24-1.018 6.25-3.837 1.487-11.976 3.476-17.689 1.001-2.875 2.957-5.365 3.714-8.33.17-.669.317-1.357.141-2.044Z"/>
    <path fill="#FC0" d="M546.475 464.643c-.14-1.264-1.426-2.46-2.759-2.209-3.529.664-7.096 1.181-10.614 1.898-1.02.208-4.808 1.216-4.36-.773.188-.833 4.317-2.083 5.206-2.452 1.97-.82 4.001-1.462 6.034-2.104 1.156-.364 2.773-1.494 3.141-2.712.536-1.777-1.437-2.778-2.99-2.315l-19.797 5.902c-.325-.058-.645-.142-.924-.31-.343-.98-.445-1.953-.079-3.003 1.213-3.476 3.239-6.548 3.745-10.269.384-2.826-3.512-3.916-4.754-1.389-1.722 3.502-4.025 6.764-6.843 9.529-2.991 2.441-5.333 3.707-5.968 8.12-.556 3.865-1.82 10.785.072 14.382 3.181 6.045 10.684 2.879 16.232 4.245 1.11.55 2.267 1.019 3.343 1.514l.432.198c1.847 1.097 3.624 2.337 5.673 3.007 1.072.351 3.141.665 4.097-.212 1.878-1.721-.874-3.387-2.171-4.174-1.908-1.157-3.723-2.338-5.752-3.271-.283-.13-.564-.262-.848-.391-.073-.078-.157-.148-.227-.228-.564-.636-.462-1.631.191-2.102 5.107.645 10.007 2.485 15.162 2.851 1.999.143 3.767-2.029 2.354-3.78-.921-1.141-2.86-1.16-4.168-1.466-.882-.206-1.769-.399-2.638-.63-2.25-.6-4.598-1.119-6.795-1.883-.328-.114-.647-.366-.799-.668a626.75 626.75 0 0 0 14.594-2.546c1.325-.25 2.367-1.345 2.21-2.759Z"/>
    <path fill="#FF7C69" d="M596.391 38.084c1.237.294 2.797-.513 3.01-1.853.563-3.546 1.279-7.078 1.789-10.632.148-1.03.475-4.936 2.197-3.843.721.457.506 4.765.555 5.727.108 2.13.028 4.26-.053 6.39-.046 1.21.473 3.113 1.496 3.87 1.492 1.103 3.1-.417 3.188-2.035l1.113-20.626c.163-.286.35-.559.603-.765 1.038.007 1.989.24 2.854.938 2.864 2.313 5.075 5.255 8.408 6.985 2.531 1.314 4.871-1.986 2.91-4.007-2.717-2.802-5.013-6.069-6.668-9.653-1.29-3.638-1.693-6.27-5.635-8.355-3.451-1.826-9.542-5.347-13.566-4.778-6.764.958-6.311 9.088-9.467 13.851-.891.86-1.723 1.79-2.552 2.637l-.332.34c-1.655 1.369-3.422 2.624-4.743 4.326-.692.892-1.684 2.734-1.181 3.93.988 2.347 3.484.318 4.662-.638 1.733-1.406 3.456-2.717 5.018-4.313.218-.222.437-.443.654-.666.098-.043.193-.098.292-.138.788-.316 1.69.116 1.914.889-2.328 4.59-5.711 8.583-7.794 13.313-.807 1.834.642 4.23 2.767 3.49 1.384-.483 2.056-2.303 2.785-3.43.492-.761.972-1.532 1.483-2.272 1.322-1.915 2.602-3.951 4.062-5.762.218-.27.562-.486.898-.527a626.6 626.6 0 0 0-2.52 14.598c-.211 1.33.469 2.68 1.853 3.009Z"/>
    <path fill="#FC0" d="M425.358 43.784c-.14-1.264-1.426-2.46-2.759-2.21-3.529.665-7.097 1.181-10.614 1.899-1.02.208-4.808 1.216-4.36-.774.188-.832 4.316-2.082 5.206-2.452 1.97-.819 4.001-1.462 6.034-2.103 1.156-.365 2.773-1.494 3.141-2.712.536-1.777-1.437-2.778-2.991-2.315l-19.796 5.902c-.325-.058-.645-.142-.924-.31-.343-.98-.445-1.953-.079-3.003 1.213-3.476 3.238-6.549 3.745-10.27.384-2.825-3.512-3.915-4.754-1.389-1.723 3.502-4.026 6.764-6.843 9.53-2.991 2.44-5.333 3.706-5.968 8.12-.556 3.865-1.82 10.785.072 14.382 3.181 6.044 10.684 2.878 16.232 4.245 1.11.55 2.267 1.019 3.343 1.513l.432.199c1.847 1.097 3.624 2.337 5.672 3.007 1.073.35 3.142.664 4.098-.212 1.878-1.722-.874-3.387-2.171-4.174-1.908-1.158-3.723-2.338-5.753-3.271-.282-.13-.564-.263-.847-.391-.074-.078-.157-.149-.228-.228-.563-.637-.461-1.631.192-2.102 5.107.645 10.007 2.484 15.162 2.851 1.999.142 3.767-2.03 2.354-3.78-.921-1.141-2.861-1.16-4.169-1.466-.882-.207-1.769-.4-2.638-.63-2.249-.6-4.597-1.12-6.794-1.884-.328-.114-.647-.365-.8-.668a621.203 621.203 0 0 0 14.595-2.546c1.325-.25 2.366-1.345 2.21-2.758Z"/>
    <path fill="#FFCB0F" d="M142.992 383.78c-.2-.322-.396-.647-.581-.978l-.096-.174c-.092-.179-.187-.357-.279-.536-.413-.81-.807-1.629-1.211-2.444-.862-1.736-1.764-3.474-2.941-5.022-.79-1.041-2.407-1.42-3.487-.572-1.042.818-1.417 2.376-.572 3.488.235.308.455.627.669.949l2.954 5.632c.143.391.27.788.367 1.188.218.892-.443 1.803-1.363 1.791-.165-.004-.328-.037-.491-.063a279.785 279.785 0 0 0-4.898-4.534c-1.949-1.75-3.931-3.859-6.399-4.863-1.209-.491-2.794-.019-3.299 1.267-.482 1.227-.03 2.771 1.267 3.298.175.072.342.158.511.242.87.782 1.783 1.525 2.638 2.314 1.71 1.58 3.545 3.134 5.132 4.834.119.127.218.286.29.453-4.477-1.708-9.086-3.088-13.639-4.56-1.284-.415-2.708-.06-3.299 1.267-.182.408-.276 2.151.139 2.469 1.93 1.48 5.104 1.881 7.452 2.422 2.027.467 4.241 1.449 6.114 2.388 1.188.596 1.775.876 1.335 2.231-1.486-.017-3.052-.656-4.542-.836-2.026-.244-4.118-.177-6.118-.458-1.34-.189-3.079-.513-4.249.433-.816.659-1.284 2.606-.38 3.426.924.838 3.45.668 4.629.844 2.126.319 4.273.63 6.409.893 3.155.389 6.844 1.26 9.528 3.03.445.293.878.654 1.087 1.154.179.432.22.844.165 1.24-3.193 2.289-6.071 5.061-8.881 7.796-.939.914-.654 2.771.344 3.518 1.185.887 2.512.634 3.518-.344.287-.28.577-.558.865-.838 1.982-1.473 4.214-2.289 6.563-2.917 4.85-1.295 7.945-.654 10.988-4.844 2.295-3.16 6.641-8.692 6.644-12.756.006-7.117-8.791-7.585-12.883-11.828Z"/>
    <path fill="#E6E89F" d="m578.589 91.543-6.219 1.133-.752.137c-.257.047-.56.164-.77-.047-.153-.152-.252-.395-.36-.579l-.428-.727-1.639-2.785c-.103-.175-.389-.193-.487 0a17.37 17.37 0 0 0-1.587 4.675l-6.599 2.633c-.234.093-.3.478 0 .544 1.979.433 3.998.642 6.023.636a59.906 59.906 0 0 0-2.655 7.167c-.06.201.143.412.347.347 1.629-.524 2.662-1.907 3.712-3.17.272-.328.55-.651.847-.957.185-.19.403-.441.686-.471.249-.027.525.096.753.187.859.341 1.628.871 2.441 1.302.86.456 1.789.807 2.778.696.167-.019.339-.167.272-.357a29.772 29.772 0 0 0-2.287-4.962 17.558 17.558 0 0 0 6.199-4.93c.176-.223.015-.524-.275-.472Zm86.93 110.412-6.219 1.133-.752.137c-.257.047-.56.164-.771-.047-.152-.152-.251-.395-.36-.579l-.427-.727-1.64-2.785c-.102-.175-.389-.192-.487 0a17.387 17.387 0 0 0-1.586 4.675l-6.599 2.633c-.235.094-.3.478 0 .544 1.978.433 3.998.642 6.023.636a59.926 59.926 0 0 0-2.655 7.167c-.06.201.142.413.347.347 1.628-.524 2.662-1.907 3.711-3.17.273-.328.55-.651.848-.957.185-.19.403-.441.685-.471.25-.027.526.097.754.187.858.341 1.627.871 2.441 1.302.86.456 1.788.807 2.777.696.168-.019.339-.167.272-.357a29.79 29.79 0 0 0-2.286-4.962 17.546 17.546 0 0 0 6.198-4.93c.177-.223.016-.524-.274-.472ZM127.652 20.468l-6.219 1.133-.752.137c-.257.047-.56.164-.771-.047-.152-.152-.252-.395-.36-.58l-.428-.726-1.639-2.786c-.102-.174-.389-.192-.487 0a17.44 17.44 0 0 0-1.587 4.675l-6.599 2.634c-.234.093-.299.478 0 .544 1.979.433 3.998.641 6.023.635a60.285 60.285 0 0 0-2.655 7.168c-.059.2.143.412.347.347 1.629-.524 2.662-1.908 3.712-3.17.273-.328.55-.652.847-.957.186-.19.404-.441.686-.471.25-.027.526.096.753.187.859.34 1.628.87 2.442 1.302.86.455 1.788.807 2.777.696.168-.019.339-.167.272-.357a29.852 29.852 0 0 0-2.286-4.962 17.556 17.556 0 0 0 6.198-4.93c.177-.223.015-.524-.274-.472Z"/>
    <path fill="#FFCB0F" d="m90.355 402.503-6.22 1.133-.751.137c-.257.047-.56.164-.77-.047-.153-.152-.252-.395-.36-.579l-.428-.727-1.64-2.785c-.102-.175-.389-.193-.487 0a17.397 17.397 0 0 0-1.587 4.674l-6.599 2.634c-.234.093-.3.478 0 .544 1.98.433 3.999.642 6.023.636a59.982 59.982 0 0 0-2.654 7.167c-.06.201.142.412.346.347 1.63-.524 2.663-1.908 3.712-3.17.273-.328.55-.652.847-.957.186-.19.404-.441.686-.471.25-.027.526.096.754.187.858.341 1.627.871 2.44 1.302.86.456 1.79.807 2.778.696.168-.019.34-.167.272-.357a29.77 29.77 0 0 0-2.286-4.962 17.56 17.56 0 0 0 6.198-4.93c.177-.223.015-.524-.274-.472Zm631.854 49.252-3.554-3.648a35.541 35.541 0 0 0 3.415-4.478c.11-.17-.032-.465-.24-.438a18.157 18.157 0 0 0-5.329 1.531c-.409.19-.901.484-1.364.346-.442-.132-.791-.617-1.105-.942l-2.155-2.221c-.169-.174-.48-.049-.475.206l.069 4.071-2.842-.118c-.249-.011-.358.321-.197.497l1.911 2.092a44.617 44.617 0 0 1-4.067 2.053c-.259.114-.271.608.074.572l6.15-.631c-.027 2.136-.018 4.288.495 6.37.075.305.44.247.537 0a45.562 45.562 0 0 0 2.144-7.139c2.107.73 4.196 1.516 6.262 2.364.268.11.458-.295.271-.487Z"/>
    <path fill="#F64E33" d="m357.372 55.19.532-.511 1.062-1.022 2.208-2.12c.179-.172-.016-.422-.217-.389l-4.861.806c-.35.058-.842.24-1.119-.078-.25-.288-.42-.692-.612-1.023l-1.286-2.21c-.096-.165-.361-.144-.406.055l-1.311 5.746a.251.251 0 0 0-.003.086 16.596 16.596 0 0 0-4.852 1.683c-.181.096-.117.365.053.425l2.58.906 1.29.453c.151.053.499.112.604.253.111.149.035.465.017.636-.174 1.65-.726 3.331-.071 4.943.071.173.302.128.384 0a55.227 55.227 0 0 0 3.329-6.01l6.087 2.832a.23.23 0 0 0 .269-.365l-1.992-2.3-.96-1.106c-.311-.36-.654-.707-.941-1.089-.199-.264.029-.422.216-.602ZM211.117 488.115a174.46 174.46 0 0 0-2.346-24.335c-.998-5.94-3.524-11.201-7.636-15.683-5.146-5.611-11.74-8.704-18.292-11.229-5.248-2.022-10.602-3.761-16.088-4.355-5.117-.553-10.276-.104-15.41.345-8.474.742-17.087 1.52-25.069 5.243-8.274 3.859-14.781 10.587-19.653 18.196-5.431 8.481-10.35 18.323-13.029 28.017-1.579 5.713-2.957 11.586-2.621 17.503.335 5.918 2.594 11.96 7.19 15.704.541.44 1.138.858 1.827.971 1.608.264 4.532-1.857 5.825-2.773 2.144-1.517 2.754-3.211 2.021-6.017-8.348-31.959 20.265-57.312 49.708-58.655 13.688-.624 29.522 2.993 36.11 16.443 3.189 6.51 4.195 13.858 4.94 21.009.38 3.648 1.135 7.616.877 11.318-.355 5.099-2.005 11.925-.635 16.89.649 2.353 2.664 4.519 5.106 4.508 1.99-.009 3.752-1.457 4.694-3.21.942-1.753 1.215-3.777 1.439-5.755a174.512 174.512 0 0 0 1.042-24.135Z"/>
    <path fill="#FFCB0F" d="M202.779 510.963c-2.846-20.384 1.999-46.894-13.33-60.894-6.152-5.619-13.856-8.119-21.501-8.855-7.645-.737-15.338.174-23.005.759-12.862.983-27.003 8.161-34.837 21.722-4.396 7.611-6.998 16.586-8.905 25.626-.938 4.449-1.724 9.115-.958 13.587.941 5.491 5.555 10.817 10.049 11.603 3.762.658 8.838-2.009 8.56-7.538-.617-12.258-1.066-25.496 9.199-33.994 8.25-6.83 20.57-11.18 30.8-13.603 33.534-7.944 26.784 32.096 29.67 52.77 1.283 9.192 15.552 8.088 14.258-1.183Z"/>
    <path fill="#57B4F7" d="M159.981 449.823c-3.392.113-6.824.513-10.366.945-7.869.961-14.845 1.541-21.793 6.149-16.639 11.036-19.554 34.142-19.599 51.641-.027 10.233 16.934 8.934 16.96-1.261.019-7.447-.396-19.032 4.311-25.501 5.088-6.993 19.183-10.995 27.375-13.849 4.459-1.553 8.498-.439 12.651 2.655 3.06 2.28 5.806 3.393 6.795 6.804 2.883 9.942 3.228 20.968 2.644 31.183-.185 3.247 1.571 6.076 4.315 7.714 1.356.81 2.922.78 4.253 1.422 1.585.764 2.071 2.071 3.981 1.333 1.107-.428 2.622-2.605 3.175-3.679 2.145-4.166 1.513-10.116 1.336-14.622-.31-7.939-.154-16.091-1.366-23.94-1.735-11.241-8.444-20.344-19.176-24.597-5.232-2.073-10.316-2.57-15.496-2.397Z"/>
    <path fill="#FF7C69" d="M159.905 459.811c-.933-.066-1.866-.126-2.798-.185-4.498-.286-9.064-.567-13.473.37-10.619 2.257-17.812 11.883-22.864 20.858-5.229 9.29-8.249 19.854-8.41 30.529-.048 3.204 4.127 3.384 6.443 4.085 1.738.527 2.888 1.263 4.836 1.031 3.88-.464 6.823-3.606 6.841-7.539.031-6.786-.294-17.341 3.675-23.245 4.291-6.382 16.146-10.057 23.038-12.674 3.751-1.424 7.144-.417 10.628 2.393 2.567 2.072 4.873 3.08 5.698 6.186 2.402 9.053 2.67 19.099 2.159 28.408-.213 3.864 5.18 11.264 9.38 7.257 1.183-1.128 1.64-2.801 2.022-4.39 2.586-10.758 4.028-22.037 1.787-32.872-.754-3.645-1.953-7.271-4.164-10.264-3.012-4.077-7.693-6.669-12.563-8.076-3.972-1.147-8.102-1.578-12.235-1.872Z"/>
    <path fill="#77E6AC" d="M156.049 469.282c-3.492-.216-6.969-.011-10.284 1.061-7.796 2.52-12.097 8.83-15.956 15.57-4.546 7.94-7.179 15.986-7.816 25.215-.058.844-.098 1.71.153 2.518.517 1.666 2.199 2.755 3.914 3.077 1.283.241 4.011.401 5.2-.154 1.77-.828 1.639-2.135 2.162-4.32 1.841-7.695 4.227-15.503 8.202-22.391 2.989-5.179 7.577-10.711 14.058-10.905 3.435-.103 6.933 1.276 9.266 3.817 2.612 2.845 3.68 6.732 4.092 10.486.472 4.312.11 8.698-.563 12.97a79.791 79.791 0 0 1-1.724 8.129c2.291 2.588 11.489 5.698 13.51 1.74.894-1.752.695-3.831.632-5.796-.203-6.289 1.212-12.529 1.252-18.82.04-6.292-1.63-13.107-6.588-16.981-3.297-2.575-7.564-3.485-11.685-4.204-2.576-.449-5.205-.849-7.825-1.012Z"/>
    <path fill="#1D6FAB" d="M177.626 487.354c-.502-.053-1.1.281-1.138.839l-.345 5.177c-.034.52.271 1.077.84 1.138.501.053 1.1-.281 1.137-.84l.346-5.176c.034-.52-.272-1.077-.84-1.138Z"/>
    <path fill="#77E6AC" d="M295.226 435.207c-.573-4.475-3.373-8.458-7.256-10.7-2.028-1.172-4.229-1.9-6.503-2.321a15.924 15.924 0 0 0 1.694-1.099c3.67-2.739 5.853-6.83 6.11-11.397.249-4.431-1.406-8.995-4.564-12.133-1.864-1.853-4.289-3.169-6.984-2.855-2.568.299-4.999 1.633-7.143 3.012-3.221 2.071-6.012 4.765-8.243 7.865-.053-3.814-.201-7.748-2.015-11.194-.059-.112-.132-.213-.195-.322-.819-1.817-1.982-3.436-3.68-4.498-2.311-1.447-5.274-1.43-7.795-.437-2.318.469-4.525 1.546-6.271 3.118-2.914 2.624-3.677 6.458-3.8 10.218-.074 2.257.119 4.581.732 6.768-1.519-.989-3.127-1.823-4.884-2.366-3.173-.979-6.987-.774-9.785 1.137-2.837 1.938-4.06 5.351-3.625 8.695.453 3.482 2.316 6.554 5.034 8.741 2.188 1.761 4.705 2.964 7.314 3.95-4.375 2.431-8.082 5.82-8.541 11.203-.27 3.166.754 6.46 3.471 8.31 3.152 2.147 7.361 1.587 10.52-.241 2.227-1.289 3.926-3.208 5.355-5.335-.325 2.413-.413 4.846.027 7.25.663 3.621 2.598 6.696 5.815 8.562 2.748 1.595 6.349 2.02 9.074.14a7.67 7.67 0 0 0 1.962-1.975c2.696-2.635 3.454-6.62 3.514-10.247.046-2.711-.224-5.443-.734-8.131 3.104 2.391 6.46 4.473 10.006 6.096 4.79 2.193 10.359 3.355 15.323 1.022 4.209-1.978 6.662-6.191 6.067-10.836Zm-9.866-27.926a1.052 1.052 0 0 0-.253-.378 16.94 16.94 0 0 0-.188-2.557c.283.942.402 1.947.441 2.935Zm-25.47 24.347.121.078a.905.905 0 0 0-.022.709c.157.44.305.883.448 1.327a1.01 1.01 0 0 0-.51.153c-.059-.392-.131-.782-.196-1.173.054-.364.104-.73.159-1.094Zm-19.09-29.194a29.82 29.82 0 0 1 .262-3.086.326.326 0 0 0 .212-.072c-.066.329-.134.659-.183.989a24.67 24.67 0 0 0-.245 2.572l-.046-.403Zm.2-7.068c-.08.293-.161.585-.232.88-.156.43-.275.873-.339 1.332l-.23.484a.408.408 0 0 0-.01.363c-.182.012-.356.113-.385.324a30.366 30.366 0 0 0 .377 10.437c-.486-1.653-.71-3.393-.754-5.124-.073-2.886.157-6.103 1.573-8.696Zm2.641-2.046a.44.44 0 0 0-.363.195l-.392.579c-.099-.268-.466-.417-.713-.156-.114.121-.206.258-.311.386a.449.449 0 0 0-.159-.05c.084-.112.153-.234.243-.343.966-1.168 2.2-2.104 3.561-2.805a12.09 12.09 0 0 0-1.866 2.194Zm3.232 57.693c-.021-.094-.03-.191-.049-.287.246.253.62.341.959.266-.339.209-.546.611-.401 1.115a8.58 8.58 0 0 0 .959 2.152c.145.411.352.788.593 1.136-1.026-1.204-1.705-2.739-2.061-4.382Zm4.386-24.53.192 2.472c-.037.341-.079.682-.12 1.024a4.503 4.503 0 0 0-.466-1.324c.13-.724.254-1.45.394-2.172Zm-1.284 25.336c.162-.17.267-.41.264-.723-.001-.044.002-.088.001-.133a.893.893 0 0 0 .123.236l.326 1.231a25.849 25.849 0 0 0-.714-.611Zm9.604 4.117c-1.768 1.657-4.292 2.314-6.736 1.798a7.087 7.087 0 0 1-1.417-.463c.262.09.531.164.811.213 1.369.24 2.722-.094 3.886-.78.043.063.081.128.124.19.418.598 1.4.628 1.733-.086.28-.6.514-1.214.704-1.84.545.293 1.361.01 1.474-.664.242-1.449.335-2.905.296-4.356.126-.533.215-1.078.273-1.619.336 2.572.252 5.423-1.148 7.607Zm3.542-20.149c-.034-.128-.072-.254-.107-.382.999.829 2.021 1.64 3.071 2.412.335.361.684.711 1.047 1.052a55.386 55.386 0 0 1-4.011-3.082Zm4.847-28.613.847-.66a.93.93 0 0 0-.013.708 25.891 25.891 0 0 0-.834-.048Zm21.607 28.712c.419.84.663 1.723.582 2.613-.022.059-.038.118-.061.176-.088.214-.284.863-.527.972-.237.106-.514-.208-.707-.389-.111-.105-.216-.218-.325-.326.634-.848.96-1.908 1.038-3.046Zm-6.766 5.292a15.236 15.236 0 0 0 3.252-.577l.051-.017c-.721.677-2.164.952-3.523 1.045a1.01 1.01 0 0 0 .22-.451Zm.254-15.522a1.162 1.162 0 0 0-.391.657 29.803 29.803 0 0 0-1.443-.859.905.905 0 0 0-.455-.113c.053-.115.081-.236.091-.36a9.676 9.676 0 0 1 2.198.675Zm-.595 4.54a14.432 14.432 0 0 0-1.663-1.215c.145-.08.274-.187.375-.311.048.101.11.202.199.298.372.403.73.815 1.089 1.228Zm-1.151-21.864.042-.063c.451.053.943-.214 1.113-.69a18.33 18.33 0 0 1-.01 1.555c-.081.336-.174.669-.288.993-.176.503-.388.987-.628 1.454a.963.963 0 0 0-.494-.163l1.025-1.656c.397-.64-.144-1.31-.76-1.43Zm-1.042-1.819c-.024.016-.048.027-.071.046l-.694.548.63-1.062c.041.157.092.312.135.468Zm-.344-6.701a.92.92 0 0 0 .161.347c.035.048.067.098.101.147a1.031 1.031 0 0 0-.679.383c0-.399-.222-.773-.765-.865a4.286 4.286 0 0 1-.927-.261 9.108 9.108 0 0 1 2.109.249Zm-8.184 6.851c-.045.739.706 1.423 1.5.931l1.262-.781c-.319.406-.636.814-.962 1.215-.935-.276-1.9-.46-2.833-.596l1.033-.769Zm.727 18.211c.301-.187.6-.38.894-.58.118.001.237-.008.355-.009.002.258.092.507.318.666l.259.183c.022.058.048.113.078.166a49.365 49.365 0 0 0-1.904-.426Zm3.701-27.169a13.618 13.618 0 0 0-3.481 1.054 21.83 21.83 0 0 1 2.5-1.282c.423-.18.845-.333 1.265-.453-.101.234-.192.461-.284.681Zm.194 33.168-.824-.828 1.184.577a1.107 1.107 0 0 0-.36.251Zm1.654-2.012-1.627-.963a45.1 45.1 0 0 1 1.86.591c-.104.107-.18.233-.233.372Zm1.655-2.928c.071.017.137.009.204.01a.978.978 0 0 0-.094.627l-1.262-.888c.385.076.77.159 1.152.251Zm-.226 5.726a.918.918 0 0 0 .814.162c.161.25.328.499.493.748l.792 1.391-2.779-2.348c.248.107.48.112.68.047Zm9.717 12.13c-2.8 1.66-6.005 1.828-9.098 1.222 1.76.205 3.533.178 5.266-.131 1.657-.294 3.255-.893 4.546-1.997.768-.658 1.352-1.467 1.785-2.357a6.734 6.734 0 0 0 1.06-5.184 20.804 20.804 0 0 0-.065-2.255c-.002-.026-.007-.05-.009-.076.096.267.184.538.263.815 1.102 3.896-.202 7.861-3.748 9.963Z"/>
    <path fill="#F64E33" d="m264.724 415.825 15.381-11.735c.435-.332-.025-1.052-.462-.719L264.27 415.1c.153.241.315.477.454.725Zm18.969-5.056c-3.979 1.529-7.969 3.062-12.098 4.144-2.162.567-4.424.906-6.615 1.449.13.248.266.493.385.745 2.22-.539 4.522-.857 6.69-1.433 4.059-1.079 7.986-2.588 11.902-4.092.512-.197.251-1.011-.264-.813Zm-31.079-9.624a134.037 134.037 0 0 0 1.255 11.076 12 12 0 0 1 .843-.131 134.175 134.175 0 0 1-.801-6.058c-.201-1.848-.362-3.7-.487-5.555-.11-1.639-.237-3.279-1.018-4.757-.257-.487-.974-.021-.719.462.802 1.519.807 3.29.927 4.963Zm-2.07 12.184c.262-.13.529-.25.8-.363a150.498 150.498 0 0 0-3.591-16.09c-.15-.53-.962-.265-.813.264a148.553 148.553 0 0 1 3.604 16.189Zm-5.188 4.913c.051-.089.101-.177.154-.264a.367.367 0 0 0-.221-.429l-7.825-3.539c-2.446-1.106-4.902-2.365-7.574-2.814-.541-.09-.716.746-.172.838 2.667.447 5.111 1.721 7.552 2.825l7.631 3.452c.178.08.34.032.455-.069Zm-.88 1.916-15.396-1.091c-.547-.039-.493.814.05.853l15.06 1.068c.087-.28.183-.556.286-.83Zm.643 8.656a324.171 324.171 0 0 0-14.619 9.764c-.449.317.012 1.037.461.719a324.742 324.742 0 0 1 14.548-9.718 11.7 11.7 0 0 1-.39-.765Zm.868 1.591-13.435 12.831c-.398.381.236.954.632.576l13.305-12.707a12.095 12.095 0 0 1-.502-.7Zm4.622 4.08a254.03 254.03 0 0 0-1.213 12.59c-.039.546.814.493.853-.05.29-4.062.684-8.116 1.173-12.159a13.648 13.648 0 0 1-.813-.381Zm4.919 1.884c.015-.55-.838-.498-.853.049l-.308 11.507c-.014.55.839.498.854-.049l.307-11.507Zm26.49 3.726.192-.351c-1.125-.31-2.202-.83-3.244-1.358-1.823-.923-3.641-1.854-5.462-2.781l-7.486-3.813c-.198.226-.414.431-.627.639l8.103 4.128c1.869.951 3.729 1.923 5.61 2.852.869.43 1.766.831 2.693 1.106.07-.143.145-.284.221-.422Zm4.512-9.585a335.505 335.505 0 0 0-20.12-2.338c-.076.28-.164.556-.262.829 6.759.58 13.5 1.356 20.211 2.346.541.08.718-.757.171-.837Zm-10.712-6.714a68.328 68.328 0 0 0-8.917.921c-.003.011-.001.021-.005.033-.011.033-.026.065-.038.099-.008.246-.023.493-.042.74a67.83 67.83 0 0 1 9.051-.94c.55-.019.502-.872-.049-.853Z"/>
    <path fill="#F64E33" d="M269.505 420.078c-.581-3.457-1.881-7.129-4.718-9.383-3.136-2.492-7.28-2.54-11.048-1.844a1.04 1.04 0 0 0-.615.354c-7.496 1.173-13.527 6.813-13.642 14.679-.108 7.421 5.188 12.763 12.164 14.385 3.444.801 7.287.795 10.511-.786 6.396-3.134 8.451-10.835 7.348-17.405Zm-16.529-1.866-.007.01c-.298.755-.562 1.52-.81 2.289l-.033-1.726c-.007-.362-.219-.637-.502-.791l.706-.67a.994.994 0 0 0 .411-.357l.062-.091.023-.022a4.472 4.472 0 0 1-.113.453.808.808 0 0 0 .263.905Zm-3.449 1.993c-.169.453-.339.906-.491 1.364l-.012-.862c.171-.162.338-.33.503-.502Zm3.144 6.989c.13-.989.306-1.97.522-2.944l.197 3.295a.942.942 0 0 0-.719-.351Zm.831 5.088c-.232.004-.465.001-.696-.008l.135-.658c.007.027.018.051.024.078a.842.842 0 0 0 .537.588Zm1.057-14.28c.008-.014.018-.026.026-.041l.721-1.446c.019.048.052.084.078.126a46.725 46.725 0 0 0-.525 1.976.921.921 0 0 0-.3-.615Zm1.055 9.219.236-1.436.234 4.356c-.094.106-.19.212-.289.315-.078-.074-.158-.146-.234-.222a42.6 42.6 0 0 1 .053-3.013Zm2.715 3.334c-.002.068 0 .135-.002.202-.01.322.103.554.279.703a17.04 17.04 0 0 1-1.317.334c.377-.389.72-.806 1.04-1.239Zm-.255-3.655c.03-.654.082-1.307.155-1.957.029.455.039.912.058 1.367a10.31 10.31 0 0 1-.213.59Zm2.891-9.69c.068-.04.138-.076.204-.118l.236.594a1.098 1.098 0 0 0-.49.091.95.95 0 0 0 .046-.28c0-.096.002-.192.004-.287Zm.587 12.679c-.397.283-.808.54-1.231.777 0-.009.003-.016.004-.024.009-.146.023-.291.034-.436.35-.012.687-.173.818-.524.096-.257.184-.516.276-.774a.952.952 0 0 0 .121.187c-.006.265-.01.529-.022.794Zm5.622-10.112c-.028-.111-.055-.221-.084-.331-.027-.149-.054-.298-.062-.449a3.285 3.285 0 0 1 .038-.659c.008-.008.017-.014.024-.022.129.469.235.951.331 1.437a.409.409 0 0 0-.247.024Zm-1.709-5.294-.043.186c-.229-.497-.648-.684-1.038-.639l-.196-.572a7.384 7.384 0 0 0-.251-.847 9.167 9.167 0 0 1 1.528 1.872Zm-4.425-3.1a1.12 1.12 0 0 0 1.195.035c.033.016.065.035.098.052-.432.159-.739.583-.534 1.181l.113.333a3.088 3.088 0 0 0-.213.025l-.458-1.154a.972.972 0 0 0-.291-.381l.09-.091Zm-10.423 4.816-.471.446-.102-.73c.162.152.363.252.573.284Zm-2.877-.133a34.52 34.52 0 0 0-1.083 1.816.43.43 0 0 0-.524.171l-.465.75-.016-.206 1.686-2.781c.112.116.251.197.402.25Zm-3.556 3.625h.003c-.133.483-.25.97-.351 1.461-.123.454-.239.911-.368 1.364l.046-1.331.67-1.494Zm-1.242 10.491a.78.78 0 0 0 .182-.286c.247-.657.482-1.318.714-1.98-.005 1.185.009 2.37.047 3.554a12.91 12.91 0 0 1-.943-1.288Zm2.395 2.784a1.01 1.01 0 0 0 .544-.64l.047-.174c.216.308.456.588.72.842.002.003.003.006.006.008l.006.005c.12.115.247.221.377.325l.488.52c.221.308.422.63.608.96l.005.067a14.897 14.897 0 0 1-2.259-1.45c-.187-.148-.363-.306-.542-.463Zm17.531 1.746c-3.752 2.79-9.181 2.612-13.537.738a11.02 11.02 0 0 0-.35-.726.45.45 0 0 0 .057-.133c.412.209.832.403 1.264.564 2.231 1.745 5.57 1.926 8.24 1.149a11.737 11.737 0 0 0 2.59-1.117l.021-.006c.158-.077.309-.165.463-.248.311-.085.625-.158.933-.258.193-.062.281-.278.256-.466a12.495 12.495 0 0 0 3.602-3.912c-.795 1.706-1.947 3.231-3.539 4.415Zm3.788-4.979c-.022-.222-.257-.376-.475-.342.017-.043.04-.083.057-.126.063-.17.082-.332.073-.483.148.191.359.3.586.335-.074.208-.157.412-.241.616Z"/>
    <path fill="#FF7C69" d="M370.921 393.28c-2.06-3.739-6.939-4.983-10.892-3.815-3.423 1.012-5.723 3.479-7.322 6.42-1.349-2.828-3.293-5.269-6.451-6.494-4.342-1.685-8.898.209-10.683 4.469-2.647 6.316 1.766 13.02 4.512 18.478.729 1.449 10.401 16.846 11.004 16.286a89.405 89.405 0 0 0 17.332-22.114c2.115-3.814 4.835-8.993 2.5-13.23Z"/>
    <path fill="#F64E33" d="M543.117 369.536c-1.839-5.155-.262-11.129 4.95-14.426 4.592-2.906 11.08-2.387 15.152 1.213-1.228-4.799-1.11-10.154 1.44-14.401 2.55-4.246 7.908-6.974 12.638-5.503 2.449.761 4.479 2.504 6.16 4.441 5.785 6.668 5.094 13.292 4.888 21.645-.155 6.304.384 14.84-1.468 20.816-2.062 6.65-13.24 1.078-18.224.086-7.628-1.517-16.712-3.246-22.429-8.977a13.216 13.216 0 0 1-3.107-4.894Zm-409.108-117.94c-.237-1.508-.355-3.037-.063-4.527 1.063-5.422 7.88-8.501 13.009-6.449 5.13 2.052 7.992 8.096 7.252 13.57.639-5.094 4.32-8.252 9.138-9.236 1.27-.26 2.571-.475 3.859-.32 4.811.577 7.627 6.299 6.765 11.067-.863 4.768-4.295 8.625-7.789 11.983-5.691 5.469-12.096 10.976-19.043 14.775-6.113-9.12-10.866-18.707-12.93-29.726-.07-.377-.138-.756-.198-1.137Z"/>
    <path fill="#FFCB0F" d="M169.349 256.921c-.62-.244-1.14.029-1.465.562.118-.193-.006.009-.03.047l-.136.213a20.383 20.383 0 0 1-.906 1.275 19.364 19.364 0 0 1-2.042 2.257l-.073.066a17.35 17.35 0 0 1-.57.498c-.541.455-1.107.879-1.694 1.273-.483.324-.616 1.087-.254 1.549.381.485 1.034.6 1.549.254 2.526-1.698 4.602-3.937 6.183-6.529.304-.498-.053-1.265-.562-1.465Zm-5.522-1.005c-.479-.359-1.171-.33-1.562.152l-3.09 3.813c-.365.451-.329 1.201.153 1.562.479.359 1.171.33 1.562-.153l3.09-3.812c.365-.451.329-1.202-.153-1.562Zm-21.244 3.895a55.753 55.753 0 0 1-2.959-11.998c-.186-1.414-2.393-1.177-2.207.244a58.444 58.444 0 0 0 3.094 12.55c.495 1.342 2.566.546 2.072-.796Zm5.664 12.746a15.799 15.799 0 0 1-1.805-2.461l-.148-.255-.074-.133c-.175-.368-.368-.725-.532-1.099-.233-.532-.866-.885-1.434-.638-.53.23-.887.865-.638 1.433a16.805 16.805 0 0 0 2.828 4.448c.204.23.42.402.736.45.264.04.6-.028.813-.196.432-.339.666-1.086.254-1.549Zm6.258-3.175a.82.82 0 0 0-.233-.355.832.832 0 0 0-.351-.261c-.268-.105-.578-.14-.849-.022-.278.12-.48.311-.617.584l-.766 1.533a.849.849 0 0 0-.087.43.832.832 0 0 0 .065.419.82.82 0 0 0 .233.355.832.832 0 0 0 .351.261c.268.105.578.14.85.022.277-.12.479-.311.616-.584l.766-1.533a.835.835 0 0 0 .087-.429.834.834 0 0 0-.065-.42Zm-4.675-18.709c-.613-.065-1.152.32-1.263.932l-.767 4.215c-.104.572.348 1.201.932 1.263.613.065 1.152-.319 1.263-.931l.767-4.216c.104-.571-.348-1.201-.932-1.263Z"/>
    <path fill="#1D6FAB" d="M515.23 66.085c4.365-.38 11.169-2.595 11.002-8.33-.019-.658-.189-1.301-.361-1.937-1.083-4.01-2.298-7.994-3.907-11.824-.72-1.713-1.592-3.481-3.149-4.496-3.782-2.465-15.533 4.45-19.232 6.296-5.355 2.672-10.114 5.84-14.864 9.296-4.54 3.302-10.215 5.05-15.279 7.427-5.322 2.499-10.55 5.59-14.174 10.218 19.972-3.046 39.876-4.903 59.964-6.65Z"/>
    <path fill="#57B4F7" d="M518.985 57.935c-4.643.658-9.32 1.137-13.949 1.88-9.116 1.464-44.263 9.803-43.859 9.567 3.334-1.947 23.089-9.486 26.56-11.175 6.214-3.023 12.469-5.949 18.648-9.043 3.153-1.579 6.316-3.144 9.544-4.565 1.185-.522 4.459-1.199 5.232-2.16.775-.964.167-1.568.443-2.847 1.447-6.709.62-14.789-.026-21.56-.116-1.209-.259-2.447-.807-3.532-.549-1.084-1.591-2-2.805-2.057-.775-.036-1.523.272-2.221.612-2.64 1.29-4.976 3.113-7.291 4.923-21.599 16.887-43.684 33.044-62.734 52.891-1.189 1.239-3.246 3.187-2.7 5.065.527 1.81 2.757 2.239 4.39 2.337 20.907 1.26 41.856 1.821 62.739 3.424 5.363.411 10.53.387 15.888.23 4.75-.14 9.401.47 14.156-.681-1.067-4.501-3.537-8.523-5.971-12.456-1.852-2.994-3.808-8.157-6.451-10.438-2.567-2.215-5.277-.912-8.786-.415Z"/>
    <path fill="#171714" d="M524.93 55.68a151.01 151.01 0 0 0-17.924 2.376c-1.254.244-1.047 2.233.22 1.987a150.993 150.993 0 0 1 17.923-2.376c1.284-.093 1.065-2.08-.219-1.987Zm-3.897 13.059-6.557-.346c-.539-.028-1.052.269-1.138.84-.075.494.297 1.109.839 1.137l6.558.345c.539.029 1.051-.268 1.138-.839.075-.494-.298-1.109-.84-1.138Zm3.174 4.476a15.25 15.25 0 0 1-6.3.02c-.529-.11-1.06.326-1.138.839-.084.558.309 1.028.84 1.137 2.239.462 4.58.462 6.817-.009.528-.111.948-.53.884-1.103-.055-.497-.572-.996-1.103-.884Zm-15.092-42.912c-.426-.32-1.062-.303-1.407.137l-3.797 4.832c-.322.41-.301 1.078.138 1.407.426.319 1.061.302 1.407-.138l3.797-4.831c.322-.41.3-1.079-.138-1.407Z"/>
    <path fill="#FFCB0F" d="M538.154 131.139c4.161-2.213 9.528-2.305 13.241.551-.686-5.704 3.635-11.559 9.289-12.586 5.653-1.027 11.758 2.935 13.122 8.516-.383-7.206 3.96-14.363 10.392-17.637 6.432-3.273 14.586-2.656 20.635 1.28 6.447 4.194 9.852 11.403 10.255 18.852 4.877.418 9.314 1.583 13.095 4.89 6.685 5.846 10.454 16.297 4.852 24.74-4.893 7.373-14.283 8.998-21.675 6.201-2.966 6.704-9.779 10.848-16.779 12.209-6.482 1.259-15.569.997-21.153-2.77-4.175-2.816-7.076-7.449-7.784-12.435-6.334 1.998-13.007 3.447-19.594 2.599-7.243-.932-15.725-5.43-17.163-13.191-1.286-6.939 1.749-15.598 7.334-19.966a13.29 13.29 0 0 1 1.933-1.253Z"/>
    <path stroke="#1B0512" stroke-linecap="round" stroke-miterlimit="10" stroke-width="2" d="M615.092 144.328c-.772-2.092-2.23-3.981-4.221-4.985-1.991-1.003-4.527-1.011-6.375.238-1.847 1.248-2.784 3.81-1.924 5.867m-15.846 3.073c-2.976 2.515-7.803 2.465-10.726-.111m-17.395.167c.468-1.581-.069-3.355-1.148-4.603-1.078-1.248-2.632-2.013-4.236-2.398-1.423-.341-3.05-.364-4.212.526-1.823 1.397-1.602 4.159-1.2 6.421"/>
    <path fill="#fff" d="M606.388 163.852c-1.502 3.529-4.517 6.273-8.181 7.455-.514.166-.761.806-.575 1.291.203.527.776.741 1.291.575 4.133-1.334 7.592-4.515 9.291-8.508.503-1.182-1.322-1.999-1.826-.813Zm-17.07 8.066-2.934.518c-.258.045-.492.151-.662.359-.158.191-.26.494-.222.744.079.507.553.981 1.104.884l2.933-.518c.259-.046.493-.152.663-.359.158-.192.26-.495.221-.744-.078-.507-.552-.981-1.103-.884Zm-7.534-55.644c-.517-.23-1.074.024-1.32.507a21.851 21.851 0 0 0-2.34 8.529c-.034.539.272 1.052.839 1.138.498.076 1.104-.298 1.138-.839a20.353 20.353 0 0 1 2.189-8.015c.246-.482-.032-1.108-.506-1.32Zm5.831.372c-.087-.229-.294-.464-.526-.555-.241-.094-.52-.126-.765-.02-.233.101-.466.279-.555.527l-.863 2.415c-.09.254-.119.508-.02.765.088.229.295.464.527.555.241.095.52.126.765.02.232-.101.466-.279.554-.527l.863-2.415c.091-.253.119-.507.02-.765Zm-21.532 8.058c-1.363-1.966-3.904-3.054-6.267-2.631-.514.092-.97.545-.884 1.103.079.506.553.982 1.104.884.231-.042.465-.07.7-.08.065-.002.13-.001.195-.004 0 0 .001 0 0 0l.015.001a5.447 5.447 0 0 1 1.044.156c.031.008.051.01.066.012.034.011.068.026.09.034.124.041.247.087.367.137a7 7 0 0 1 .633.311.258.258 0 0 0 .055.026c.032.024.063.05.082.063a5.18 5.18 0 0 1 .697.567l.067.066.052.057c.043.049.085.099.126.149.082.102.159.208.234.315.298.43.975.558 1.395.229.432-.34.547-.936.229-1.395Zm-25.699 10.097c-4.79 1.74-8.016 6.579-7.929 11.644.009.54.602.94 1.103.884.578-.064.893-.562.884-1.103-.071-4.172 2.764-8.144 6.658-9.559 1.212-.44.494-2.306-.716-1.866Zm89.039 16.417c-.584-.062-.997.295-1.138.839l-1.067 4.133c-.132.508.34 1.085.839 1.138.584.062.997-.296 1.138-.839l1.067-4.133c.131-.508-.34-1.085-.839-1.138Z"/>
    <path fill="#FFA649" d="M614.553 150.691c-.639-.947-1.853-1.325-2.94-1.399-1.604-.111-3.257.087-4.831.386-.393.075-.721.335-.84.695-.318.21-.567.516-.741.85-.115.221-.17.461-.201.706-.34.398-.295 1.078.119 1.399.046.036.097.058.144.092.044.076.088.152.138.221.152.21.405.366.662.405.087.013.186-.001.282-.014 2.066.899 4.458.508 6.6-.176.629-.201 1.326-.376 1.732-.941.489-.68.318-1.568-.124-2.224Zm-53.142 4.493c-.691-1.775-2.545-2.376-4.285-2.551-1.265-.128-2.555-.22-3.763.089a8.127 8.127 0 0 0-2.258.84c-.63.348-.44 1.173-.052 1.584 2.546 2.69 6.564 2.304 9.783 1.329.516-.156.76-.816.575-1.291Z"/>
    <path stroke="#57B4F7" stroke-linecap="round" stroke-miterlimit="10" stroke-width="2" d="M335.773-26.82c1.976 21.408 3.778 43.936-5.049 63.54-2.955 6.562-7.092 12.768-8.195 19.88-2.039 13.155 7.512 26.211 19.82 31.288 14.811 6.108 42.663 4.352 57.426-2.312 17.183-7.756 30.586-22.51 40.097-38.467 9.622-16.145 15.811-34.066 21.636-51.935"/>
  </g>
</svg>
