<svg xmlns="http://www.w3.org/2000/svg" width="97" height="97" fill="none" viewBox="0 0 97 97">
  <rect width="96" height="96" x=".667" y=".4" fill="#fff" rx="48"/>
  <path fill="#EE6161" d="M24.626 46.346c-2.178 0-3.702-1.362-3.702-3.54l.07-12.411c0-1.34.34-2.493 1.361-3.206a3.925 3.925 0 0 1 2.254-.707h48.114a3.944 3.944 0 0 1 3.943 3.944V42.82c0 .894-.297 1.719-.799 2.38-.72.95-1.824 1.216-3.108 1.216-3.618 0-48.133-.07-48.133-.07Z"/>
  <path fill="#E94444" d="M75.96 45.074a3.937 3.937 0 0 1-3.236 1.69H24.61a3.944 3.944 0 0 1-3.944-3.943V30.426c0-1.34.669-2.524 1.69-3.236v15.63a2.257 2.257 0 0 0 2.254 2.254h51.35Z"/>
  <path fill="#F1D0A5" d="M63.023 55.098s-1.74.013-2.055.848v-.725c0-1.26-2.422-1.644-2.422-1.644s-2.178.385-2.178 1.644c0-.61-.002-.744-.003-1.354 0-1.26-2.176-1.55-2.176-1.55s-2.078-.018-2.343.95v-7.36c0-1.26-2.3-1.975-2.3-1.975s-1.899.863-1.899 2.122l-.401 8.278-1.051.4c-1.564 0-2.719.838-2.719 2.415l-.037 3.123c0 2.43 1.047 4.614 2.994 6.047l.45.332c1.012.765 1.855 1.764 1.962 3.025a.332.332 0 0 0 .33.308l12.885-.056a.33.33 0 0 0 .33-.33c0-.481.528-.565.632-1.028.186-.82.531-1.6 1.022-2.293a6.425 6.425 0 0 0 1.18-3.713v-5.83c0-1.222-2.202-1.634-2.202-1.634Z"/>
  <path fill="#F2BB88" d="M50.359 68.568a.434.434 0 0 1-.406-.277c-.422-1.103-1.178-2.105-2.192-2.87l-.468-.346a5.898 5.898 0 0 1-2.387-4.74v-3.152c0-.596.474-1.098 1.07-1.1h1.271l.724-.693-.724-1.058h-1.26a2.78 2.78 0 0 0-.65.079l.002-.003c-1.258.284-2.199 1.49-2.183 2.778v3.15a7.634 7.634 0 0 0 3.098 6.15l.45.33c1.013.766 1.761 1.933 1.868 3.194a.333.333 0 0 0 .33.308h13.632a.33.33 0 0 0 .33-.33c0-.482.055-.958.16-1.42H50.359Z"/>
  <path fill="#F2BB88" d="M51.847 45.905v1.021a2.26 2.26 0 0 0-.611-1.547c-.603-.647-1.69-.212-1.69.673v14.16a1.15 1.15 0 1 1-2.298 0V45.904a2.29 2.29 0 0 1 2.299-2.28 2.29 2.29 0 0 1 2.3 2.28Zm4.521 8.983a2.26 2.26 0 0 0-.475-1.388c-.564-.73-1.74-.308-1.74.614v3.178a.94.94 0 0 1-.939.94h-.431a.94.94 0 0 1-.94-.94l.004-4.025a2.298 2.298 0 0 1 2.22-1.682 2.29 2.29 0 0 1 2.3 2.281c.002.61.002 1.631 0 1.022Zm4.604.332v1.021a2.26 2.26 0 0 0-.611-1.547c-.603-.647-1.69-.211-1.69.673v1.945a.94.94 0 0 1-.939.94h-.415a.94.94 0 0 1-.94-.94v-2.25c.06-1.17 1.126-2.144 2.295-2.122a2.29 2.29 0 0 1 2.3 2.28Z"/>
  <path fill="#F2BB88" d="M65.226 56.731v1.021c0-.772-.595-1.453-1.322-1.849a.729.729 0 0 0-1.072.645v.773a.93.93 0 0 1-1.86 0v-1.376c.334-.91 1.29-1.536 2.298-1.413a2.208 2.208 0 0 1 1.956 2.2Z"/>
  <path fill="#F9F8F9" d="M63.126 39.531v-5.785c0-.463-.357-.866-.82-.88a.845.845 0 0 0-.87.845v5.785c0 .463.356.866.819.88a.845.845 0 0 0 .87-.845Zm10.668-4.949a.845.845 0 0 0 .845-.87c-.014-.463-.418-.82-.88-.82h-2.395a.845.845 0 0 0-.845.845v5.768c0 .467.378.845.845.845h2.394c.463 0 .867-.357.88-.819a.845.845 0 0 0-.844-.871h-1.585v-1.194h1.37c.463 0 .867-.356.88-.819a.845.845 0 0 0-.844-.871h-1.406v-1.194h1.585Zm-35.37-1.717h-1.638a.845.845 0 0 0-.845.845v5.801a.847.847 0 0 0 .845.865h.004s1.554-.006 1.983-.006a2.415 2.415 0 0 0 2.411-2.412c0-.721-.319-1.367-.822-1.81.222-.379.336-.83.29-1.31-.11-1.129-1.093-1.973-2.228-1.973Zm.031 1.69a.51.51 0 0 1 .514.446.495.495 0 0 1-.492.543c-.089 0-.414.002-.845.002v-.99h.823Zm.318 4.124-1.141.004v-1.446l1.14-.001a.723.723 0 0 1 0 1.443Zm28.023-5.814H65.16a.845.845 0 0 0-.846.845v5.801a.847.847 0 0 0 .845.865h.004s1.554-.007 1.983-.007a2.415 2.415 0 0 0 2.412-2.411c0-.721-.32-1.367-.823-1.81.222-.38.336-.83.29-1.31-.11-1.129-1.093-1.973-2.228-1.973Zm.031 1.69a.51.51 0 0 1 .514.446.495.495 0 0 1-.491.543c-.09 0-.415.002-.846.002v-.99h.823Zm.318 4.124-1.141.004v-1.446l1.14-.001a.723.723 0 0 1 0 1.443Zm-15.526-4.09a2.068 2.068 0 0 1 1.51.306c.377.247.894.183 1.166-.175a.845.845 0 0 0-.2-1.213 3.746 3.746 0 0 0-2.402-.63c-1.921.151-3.432 1.775-3.453 3.703a3.76 3.76 0 0 0 3.755 3.796c.896-.018 1.838-.347 2.481-1.123a.845.845 0 1 0-1.294-1.086c-.24.274-.579.487-1.187.52a2.068 2.068 0 0 1-2.04-2.39 2.063 2.063 0 0 1 1.664-1.708Zm-26.045 4.097c-.533 0-1.045-.208-1.378-.559-.311-.328-.822-.403-1.176-.121a.845.845 0 0 0-.101 1.23c.657.725 1.624 1.14 2.655 1.14 1.284 0 2.362-.823 2.565-1.958.153-.858-.23-1.977-1.767-2.544a30.704 30.704 0 0 1-1.482-.596.283.283 0 0 1-.17-.295v-.002c.012-.08.072-.277.38-.37.758-.228 1.472.331 1.494.349a.845.845 0 0 0 1.083-1.298c-.057-.048-1.414-1.167-3.064-.67-.848.256-1.448.926-1.566 1.75a1.966 1.966 0 0 0 .877 1.946c.131.082.882.4 1.863.771.177.066.751.307.688.662-.049.272-.407.565-.901.565Zm19.334 0c-.532 0-1.044-.208-1.377-.559-.312-.328-.823-.403-1.176-.12a.845.845 0 0 0-.101 1.229c.656.725 1.624 1.14 2.654 1.14 1.284 0 2.363-.823 2.565-1.958.153-.858-.23-1.977-1.767-2.544a30.642 30.642 0 0 1-1.481-.596.282.282 0 0 1-.171-.295v-.002c.012-.08.072-.277.38-.37.757-.228 1.471.33 1.495.349a.845.845 0 0 0 1.082-1.298c-.057-.048-1.413-1.167-3.064-.67-.848.256-1.448.926-1.566 1.75a1.966 1.966 0 0 0 .877 1.946c.131.082.883.4 1.863.771.177.066.751.307.688.662-.048.272-.406.565-.9.565Zm-12.363-.129a1.24 1.24 0 0 1-.58.13 1.12 1.12 0 0 1-.619-.175c-.436-.278-.523-.51-.523-.796v-3.97c0-.463-.357-.866-.82-.88a.845.845 0 0 0-.87.845v4.005c0 .921.438 1.668 1.303 2.22.323.206.897.431 1.531.44.48 0 .93-.104 1.339-.31 1.007-.507 1.562-1.343 1.562-2.354v-3.966c0-.463-.357-.866-.82-.88a.845.845 0 0 0-.87.845v4c0 .261-.075.565-.633.846Zm27.928-3.334c0-1.3-1.096-2.358-2.443-2.358h-1.55a.797.797 0 0 0-.845.803v5.828c0 .463.357.866.82.88a.845.845 0 0 0 .87-.845v-1.336l1.668 1.895a.843.843 0 0 0 1.202.068c.346-.314.354-.859.045-1.21l-1.34-1.522c.918-.34 1.572-1.199 1.572-2.203Zm-2.443-.667c.408 0 .753.305.753.667 0 .362-.345.668-.753.668-.166 0-.431 0-.696.002l-.003-1.337h.699Z"/>
</svg>
