<svg xmlns="http://www.w3.org/2000/svg" width="97" height="97" fill="none" viewBox="0 0 97 97">
  <rect width="96" height="96" x=".333" y=".4" fill="#fff" rx="48"/>
  <path fill="#FF9F40" d="m66.511 45.87 3.049-1.217 6.556 16.416-3.049 1.217-6.555-16.415Z"/>
  <path fill="#FFBE40" d="m20.574 61.028 6.556-16.416 3.048 1.218-6.555 16.415-3.049-1.217Z"/>
  <path fill="#FFDF40" d="M69.662 76.4H27.006V43.586h42.656V76.4Z"/>
  <path fill="#FFBE40" d="M48.331 43.588H69.66V76.4H48.331V43.588Z"/>
  <path fill="#665252" d="M46.693 66.555h3.281v3.282h-3.281v-3.282Z"/>
  <path fill="#D13465" d="M73.052 40.087h3.281v3.281h-3.281v-3.28Z"/>
  <path fill="#FF525F" d="M27.006 23.681h3.281v3.281h-3.281v-3.28Z"/>
  <path fill="#665252" d="M49.974 63.274h-3.281v-.682c0-2.6.972-4.876 2.669-6.24a1.642 1.642 0 1 0-2.67-1.28h-3.28a4.927 4.927 0 0 1 4.921-4.923 4.927 4.927 0 0 1 4.922 4.922 4.903 4.903 0 0 1-1.834 3.834c-.92.74-1.447 2.085-1.447 3.687v.682Z"/>
  <path fill="#4D3636" d="M49.974 55.072c0 .498-.224.966-.612 1.28-.385.31-.72.679-1.028 1.076v5.847h1.64v-.683c0-1.602.527-2.946 1.447-3.686a4.902 4.902 0 0 0 1.835-3.834 4.927 4.927 0 0 0-4.922-4.922v3.28c.905 0 1.64.736 1.64 1.642Z"/>
  <path fill="#E1E6F0" d="M38.49 30.244a4.927 4.927 0 0 1-4.922-4.922A4.927 4.927 0 0 1 38.49 20.4a4.927 4.927 0 0 1 4.922 4.922 4.927 4.927 0 0 1-4.922 4.922Z"/>
  <path fill="#FFBE40" d="M63.1 23.681h-3.282V20.4h-3.281v3.281h-3.281v3.281h3.28v3.282h3.282v-3.282h3.281v-3.28Z"/>
  <path fill="#FFDF40" d="M26.896 30.244h-3.28v3.28h-3.282v3.282h3.281v3.281h3.281v-3.28h3.282v-3.282h-3.282v-3.281Z"/>
  <path fill="#E1E6F0" d="M46.69 26.963h3.28v9.843h-3.28v-9.843Zm-12.083 7.398 2.842-1.64 3.281 5.682-2.842 1.641-3.28-5.682Z"/>
  <path fill="#C3D0E6" d="M72.941 30.244h-8.203c-1.565 0-2.96.735-3.862 1.877l-.004-.003-4.805 6.09 2.577 2.032 1.933-2.45a4.92 4.92 0 0 0 4.161 2.297 4.927 4.927 0 0 0 4.922-4.922c0-.575-.1-1.127-.282-1.64h3.563v-3.281Z"/>
  <path fill="#4D3636" d="M48.334 66.556h1.64v3.28h-1.64v-3.28Z"/>
  <path fill="#C3D0E6" d="M48.334 26.962h1.64v9.844h-1.64v-9.844Z"/>
</svg>
